<svg width="34" height="44" viewBox="0 0 34 44" fill="none" xmlns="http://www.w3.org/2000/svg">
<path d="M17.6833 14.611C17.6689 14.9683 17.5575 15.3053 17.3203 15.5636L16.0292 16.9701L13.9749 19.2079L13.5067 19.718C13.4015 19.8325 13.2798 19.9224 13.1499 19.9853C12.6941 20.2078 12.1248 20.1201 11.7556 19.718L7.94199 15.5636C7.71717 15.3187 7.57898 14.957 7.57898 14.611C7.57898 14.2807 7.71304 13.8853 7.94199 13.6584C8.17711 13.4225 8.48649 13.2472 8.8165 13.2629C9.14651 13.2809 9.45795 13.4022 9.69514 13.6584L10.9863 15.0649L11.3926 15.5075L11.3926 13.3754C11.3926 13.1305 11.3905 12.8856 11.3926 12.643L11.3926 12.6115C11.3926 12.2655 11.5308 11.9038 11.7556 11.6589C11.9701 11.4252 12.3228 11.2499 12.6301 11.2634C12.9498 11.2792 13.2819 11.3937 13.5046 11.6589C13.7274 11.9217 13.8677 12.2475 13.8677 12.6115L13.8677 15.5142L15.1031 14.1684L15.5713 13.6584C15.7961 13.4135 16.1282 13.2629 16.4458 13.2629C16.749 13.2629 17.112 13.409 17.3203 13.6584C17.5369 13.9145 17.6978 14.2515 17.6833 14.611Z" fill="#246BFD"/>
<path d="M7.57984 29.389C7.59428 29.0318 7.70566 28.6947 7.94285 28.4364L9.23399 27.0299L11.2883 24.7921L11.7565 24.282C11.8617 24.1675 11.9834 24.0776 12.1133 24.0147C12.5691 23.7922 13.1384 23.8799 13.5076 24.282L17.3212 28.4364C17.546 28.6813 17.6842 29.043 17.6842 29.389C17.6842 29.7193 17.5501 30.1147 17.3212 30.3416C17.0861 30.5775 16.7767 30.7528 16.4467 30.7371C16.1167 30.7191 15.8052 30.5978 15.568 30.3416L14.2769 28.9351L13.8706 28.4925L13.8706 30.6246C13.8706 30.8695 13.8726 31.1144 13.8706 31.357L13.8706 31.3885C13.8706 31.7345 13.7324 32.0962 13.5076 32.3411C13.2931 32.5748 12.9404 32.7501 12.6331 32.7366C12.3134 32.7208 11.9813 32.6063 11.7585 32.3411C11.5358 32.0783 11.3955 31.7525 11.3955 31.3885L11.3955 28.4858L10.1601 29.8316L9.69188 30.3416C9.46706 30.5865 9.13499 30.7371 8.81736 30.7371C8.51417 30.7371 8.15116 30.591 7.94285 30.3416C7.72628 30.0855 7.5654 29.7485 7.57984 29.389Z" fill="#246BFD"/>
</svg>