<svg width="24" height="24" viewBox="0 0 24 24" fill="none" xmlns="http://www.w3.org/2000/svg">
<path d="M7.57984 6.75716C7.59428 6.39992 7.70566 6.0629 7.94285 5.80452L9.23399 4.39803L11.2883 2.16023L11.7565 1.65021C11.8617 1.53562 11.9834 1.44575 12.1133 1.38284C12.5691 1.1604 13.1384 1.24803 13.5076 1.65021L17.3212 5.80452C17.546 6.04942 17.6842 6.41115 17.6842 6.75716C17.6842 7.08743 17.5501 7.48287 17.3212 7.70979C17.0861 7.94571 16.7767 8.12096 16.4467 8.10523C16.1167 8.08725 15.8052 7.96593 15.568 7.70979L14.2769 6.3033L13.8706 5.86069L13.8706 7.99276C13.8706 8.23766 13.8726 8.48256 13.8706 8.72521L13.8706 8.75667C13.8706 9.10267 13.7324 9.46441 13.5076 9.70931C13.2931 9.94297 12.9404 10.1182 12.6331 10.1047C12.3134 10.089 11.9813 9.97443 11.7585 9.70931C11.5358 9.44643 11.3955 9.12065 11.3955 8.75667L11.3955 5.85395L10.1601 7.19977L9.69188 7.70979C9.46706 7.95469 9.13499 8.10523 8.81736 8.10523C8.51417 8.10523 8.15116 7.95919 7.94285 7.70979C7.72628 7.45366 7.5654 7.11664 7.57984 6.75716Z" fill="#246BFD"/>
<path d="M17.6833 17.2428C17.6689 17.6001 17.5575 17.9371 17.3203 18.1955L16.0292 19.602L13.9749 21.8398L13.5067 22.3498C13.4015 22.4644 13.2798 22.5543 13.1499 22.6172C12.6941 22.8396 12.1248 22.752 11.7556 22.3498L7.94199 18.1955C7.71717 17.9506 7.57898 17.5889 7.57898 17.2428C7.57898 16.9126 7.71304 16.5171 7.94199 16.2902C8.17711 16.0543 8.4865 15.879 8.8165 15.8948C9.14651 15.9127 9.45795 16.0341 9.69514 16.2902L10.9863 17.6967L11.3926 18.1393V16.0072C11.3926 15.7623 11.3905 15.5174 11.3926 15.2748V15.2433C11.3926 14.8973 11.5308 14.5356 11.7556 14.2907C11.9701 14.057 12.3228 13.8818 12.6301 13.8953C12.9498 13.911 13.2819 14.0256 13.5046 14.2907C13.7274 14.5536 13.8677 14.8794 13.8677 15.2433V18.1461L15.1031 16.8002L15.5713 16.2902C15.7961 16.0453 16.1282 15.8948 16.4458 15.8948C16.749 15.8948 17.112 16.0408 17.3203 16.2902C17.5369 16.5463 17.6978 16.8834 17.6833 17.2428Z" fill="#246BFD"/>
</svg>