<svg width="24" height="44" viewBox="0 0 24 44" fill="none" xmlns="http://www.w3.org/2000/svg">
<path d="M20 20.9696L12.4356 28.5497C11.5089 29.4783 10.252 30 8.94144 30C7.63089 30 6.37401 29.4783 5.44731 28.5497C4.52061 27.6211 4 26.3616 4 25.0483C4 23.7351 4.52061 22.4756 5.44731 21.547L13.0117 13.9669C13.6295 13.3478 14.4675 13 15.3412 13C16.2149 13 17.0528 13.3478 17.6706 13.9669C18.2884 14.586 18.6355 15.4256 18.6355 16.3011C18.6355 17.1766 18.2884 18.0163 17.6706 18.6354L10.0979 26.2154C9.78902 26.525 9.37006 26.6989 8.93321 26.6989C8.49636 26.6989 8.0774 26.525 7.7685 26.2154C7.4596 25.9059 7.28606 25.4861 7.28606 25.0483C7.28606 24.6106 7.4596 24.1907 7.7685 23.8812L14.7568 16.8867" stroke="#246BFD" stroke-width="2" stroke-linecap="round" stroke-linejoin="round"/>
</svg>