<svg width="25" height="24" viewBox="0 0 25 24" fill="none" xmlns="http://www.w3.org/2000/svg">
<path d="M11.5699 6.12019C11.8731 6.03841 12.1859 5.99805 12.4999 6.00019C13.5608 6.00019 14.5782 6.42161 15.3284 7.17176C16.0785 7.9219 16.4999 8.93932 16.4999 10.0002V11.3402C16.4999 11.6054 16.6053 11.8598 16.7928 12.0473C16.9804 12.2348 17.2347 12.3402 17.4999 12.3402C17.7652 12.3402 18.0195 12.2348 18.207 12.0473C18.3946 11.8598 18.4999 11.6054 18.4999 11.3402V10.0002C18.4985 8.58331 17.9957 7.21265 17.0806 6.13096C16.1654 5.04927 14.897 4.32633 13.4999 4.09019V3.00019C13.4999 2.73497 13.3946 2.48061 13.207 2.29308C13.0195 2.10554 12.7652 2.00019 12.4999 2.00019C12.2347 2.00019 11.9804 2.10554 11.7928 2.29308C11.6053 2.48061 11.4999 2.73497 11.4999 3.00019V4.10019L11.0499 4.18019C10.7927 4.24914 10.5734 4.41747 10.4402 4.64814C10.307 4.87881 10.271 5.15293 10.3399 5.41019C10.4089 5.66745 10.5772 5.88678 10.8079 6.01993C11.0386 6.15308 11.3127 6.18914 11.5699 6.12019ZM22.2099 20.2902L4.20994 2.29019C4.02164 2.10188 3.76624 1.99609 3.49994 1.99609C3.23364 1.99609 2.97824 2.10188 2.78994 2.29019C2.60164 2.47849 2.49585 2.73388 2.49585 3.00019C2.49585 3.26649 2.60164 3.52188 2.78994 3.71019L6.90994 7.82019C6.63897 8.51505 6.49993 9.25435 6.49994 10.0002V13.1802C5.91639 13.3865 5.41094 13.7683 5.05288 14.2731C4.69482 14.778 4.50168 15.3812 4.49994 16.0002V18.0002C4.49994 18.2654 4.6053 18.5198 4.79283 18.7073C4.98037 18.8948 5.23472 19.0002 5.49994 19.0002H8.63994C8.87022 19.8476 9.37294 20.5956 10.0705 21.1289C10.7681 21.6622 11.6218 21.9512 12.4999 21.9512C13.378 21.9512 14.2317 21.6622 14.9293 21.1289C15.6269 20.5956 16.1297 19.8476 16.3599 19.0002H18.0899L20.7899 21.7102C20.8829 21.8039 20.9935 21.8783 21.1154 21.9291C21.2372 21.9798 21.3679 22.006 21.4999 22.006C21.632 22.006 21.7627 21.9798 21.8845 21.9291C22.0064 21.8783 22.117 21.8039 22.2099 21.7102C22.3037 21.6172 22.3781 21.5066 22.4288 21.3848C22.4796 21.2629 22.5057 21.1322 22.5057 21.0002C22.5057 20.8682 22.4796 20.7375 22.4288 20.6156C22.3781 20.4937 22.3037 20.3831 22.2099 20.2902ZM8.49994 10.0002C8.48468 9.81717 8.48468 9.6332 8.49994 9.45019L12.0899 13.0002H8.49994V10.0002ZM12.4999 20.0002C12.1509 19.9981 11.8085 19.9047 11.5068 19.7292C11.205 19.5538 10.9545 19.3025 10.7799 19.0002H14.2199C14.0454 19.3025 13.7949 19.5538 13.4931 19.7292C13.1914 19.9047 12.849 19.9981 12.4999 20.0002ZM6.49994 17.0002V16.0002C6.49994 15.735 6.6053 15.4806 6.79283 15.2931C6.98037 15.1055 7.23472 15.0002 7.49994 15.0002H14.0899L16.0899 17.0002H6.49994Z" fill="#001D52"/>
</svg>
