<svg width="18" height="18" viewBox="0 0 18 18" fill="none" xmlns="http://www.w3.org/2000/svg">
<path d="M0.709705 0.887101L0.792893 0.792893C1.15338 0.432409 1.72061 0.40468 2.1129 0.709705L2.20711 0.792893L9.101 7.686L15.9957 0.792893C16.3562 0.432409 16.9234 0.40468 17.3157 0.709705L17.4099 0.792893C17.7704 1.15338 17.7981 1.72061 17.4931 2.1129L17.4099 2.20711L10.515 9.101L17.4099 15.9957C17.7704 16.3562 17.7981 16.9234 17.4931 17.3157L17.4099 17.4099C17.0494 17.7704 16.4822 17.7981 16.0899 17.4931L15.9957 17.4099L9.101 10.515L2.20711 17.4099C1.84662 17.7704 1.27939 17.7981 0.887101 17.4931L0.792893 17.4099C0.432409 17.0494 0.40468 16.4822 0.709705 16.0899L0.792893 15.9957L7.686 9.101L0.792893 2.20711C0.432409 1.84662 0.40468 1.27939 0.709705 0.887101L0.792893 0.792893L0.709705 0.887101Z" fill="white"/>
</svg>
