<svg width="71" height="71" viewBox="0 0 71 71" fill="none" xmlns="http://www.w3.org/2000/svg">
<mask id="path-1-outside-1_4385_39511" maskUnits="userSpaceOnUse" x="0" y="0" width="71" height="71" fill="black">
<rect fill="white" width="71" height="71"/>
<path fill-rule="evenodd" clip-rule="evenodd" d="M70 35.5C70 16.4462 54.5538 1 35.5 1C16.4462 1 1 16.4462 1 35.5C1 54.5538 16.4462 70 35.5 70C54.5538 70 70 54.5538 70 35.5ZM6 35.5C6 19.2076 19.2076 6 35.5 6C51.7924 6 65 19.2076 65 35.5C65 51.7924 51.7924 65 35.5 65C19.2076 65 6 51.7924 6 35.5Z"/>
</mask>
<path fill-rule="evenodd" clip-rule="evenodd" d="M70 35.5C70 16.4462 54.5538 1 35.5 1C16.4462 1 1 16.4462 1 35.5C1 54.5538 16.4462 70 35.5 70C54.5538 70 70 54.5538 70 35.5ZM6 35.5C6 19.2076 19.2076 6 35.5 6C51.7924 6 65 19.2076 65 35.5C65 51.7924 51.7924 65 35.5 65C19.2076 65 6 51.7924 6 35.5Z" fill="white"/>
<path d="M35.5 2C54.0015 2 69 16.9985 69 35.5H71C71 15.8939 55.1061 0 35.5 0V2ZM2 35.5C2 16.9985 16.9985 2 35.5 2V0C15.8939 0 0 15.8939 0 35.5H2ZM35.5 69C16.9985 69 2 54.0015 2 35.5H0C0 55.1061 15.8939 71 35.5 71V69ZM69 35.5C69 54.0015 54.0015 69 35.5 69V71C55.1061 71 71 55.1061 71 35.5H69ZM35.5 5C18.6553 5 5 18.6553 5 35.5H7C7 19.7599 19.7599 7 35.5 7V5ZM66 35.5C66 18.6553 52.3447 5 35.5 5V7C51.2401 7 64 19.7599 64 35.5H66ZM35.5 66C52.3447 66 66 52.3447 66 35.5H64C64 51.2401 51.2401 64 35.5 64V66ZM5 35.5C5 52.3447 18.6553 66 35.5 66V64C19.7599 64 7 51.2401 7 35.5H5Z" fill="black" fill-opacity="0.2" mask="url(#path-1-outside-1_4385_39511)"/>
</svg>
