<svg width="41" height="40" viewBox="0 0 41 40" fill="none" xmlns="http://www.w3.org/2000/svg">
<path d="M36.6842 0.0461301H14.431C12.1999 0.0461301 10.3849 1.86474 10.3849 4.10018V9.50559H4.31583C2.0848 9.50559 0.269775 11.3242 0.269775 13.5596V22.3434C0.269775 24.5789 2.0848 26.3975 4.31583 26.3975H6.53992C6.36201 28.0816 5.63831 29.5846 4.50218 30.5948C4.30619 30.7688 4.22883 31.0409 4.30289 31.2922C4.51242 31.9449 5.3487 31.7983 5.8894 31.8457C7.50027 31.8457 9.1049 31.2913 10.3849 30.3049C10.3066 32.5902 12.1451 34.5101 14.431 34.5053H28.065C28.8318 37.7009 31.866 39.9885 35.1104 39.9536C35.6517 39.9065 36.4874 40.0525 36.6972 39.4C36.7713 39.1488 36.6939 38.8767 36.4979 38.7027C35.3615 37.6925 34.6377 36.1894 34.4602 34.5054H36.6843C38.9153 34.5054 40.7303 32.6867 40.7303 30.4513V21.6675C40.7303 19.4321 38.9153 17.6135 36.6843 17.6135H34.5649C34.521 17.3918 34.4848 17.1667 34.4607 16.9378H36.6843C38.9153 16.9378 40.7304 15.1192 40.7304 12.8837V4.09995C40.7304 1.86451 38.9153 0.0458984 36.6843 0.0458984L36.6842 0.0461301ZM10.1529 28.7218C9.16732 29.7281 7.81355 30.3477 6.41816 30.4722C7.36224 29.1652 7.90048 27.5056 7.9303 25.7332C7.94355 25.3664 7.62233 25.0388 7.25596 25.0463H4.31598C2.82881 25.0463 1.61861 23.8344 1.61861 22.3436V13.5598C1.61861 12.0697 2.82881 10.8571 4.31598 10.8571H10.3851V12.8842C10.3851 15.1196 12.2001 16.9382 14.4311 16.9382H28.0628C28.3025 17.857 28.7158 18.723 29.2664 19.4711V22.3436C29.2664 23.8344 28.0562 25.0463 26.569 25.0463H12.394C12.0683 25.0463 11.7892 25.2798 11.7305 25.6004C11.5149 26.7862 10.9538 27.8953 10.1527 28.7215L10.1529 28.7218ZM36.6842 18.9658C38.1714 18.9658 39.3816 20.1784 39.3816 21.6685V30.4523C39.3816 31.943 38.1714 33.155 36.6842 33.155H33.7443C33.3782 33.1472 33.0564 33.4757 33.0699 33.8418C33.0994 35.6143 33.638 37.2736 34.5821 38.5809C31.9521 38.3785 29.7042 36.3461 29.2692 33.7094C29.2105 33.3888 28.9314 33.1553 28.6057 33.1553L14.4306 33.1547C12.9434 33.1547 11.7333 31.9427 11.7333 30.452V28.9329C12.2818 28.1836 12.6948 27.3167 12.9347 26.3979H26.5688C28.7998 26.3979 30.6148 24.5793 30.6148 22.3439V20.8423C32.1667 22.0426 34.206 22.6021 36.1481 22.3089C36.407 22.27 36.6198 22.0845 36.6945 21.8332C36.7691 21.5819 36.6917 21.3099 36.4964 21.1358C35.8446 20.5552 35.3347 19.8095 34.98 18.9655H36.6842L36.6842 18.9658ZM39.3816 12.8847C39.3816 14.3749 38.1714 15.5874 36.6842 15.5874H33.7454C33.5648 15.5874 33.3917 15.6601 33.265 15.7889C33.1382 15.918 33.0684 16.0924 33.0711 16.2737C33.0985 18.0431 33.6361 19.7024 34.5805 21.0118C31.956 20.8055 29.7015 18.777 29.2676 16.1424C29.2095 15.8211 28.9302 15.5871 28.6041 15.5871H14.4306C12.9434 15.5871 11.7333 14.3745 11.7333 12.8844V4.10059C11.7333 2.61048 12.9434 1.39789 14.4306 1.39789H36.6839C38.1711 1.39789 39.3813 2.61048 39.3813 4.10059L39.3816 12.8847Z" fill="#246BFD"/>
<path d="M15.7797 5.45145H35.3357C36.2156 5.43848 36.2273 4.11577 35.3357 4.1001H15.7797C14.9001 4.11307 14.8881 5.43577 15.7797 5.45145Z" fill="#246BFD"/>
<path d="M35.3357 7.47803H15.7797C14.9001 7.491 14.8881 8.8137 15.7797 8.82938H35.3357C36.2156 8.81641 36.2273 7.4937 35.3357 7.47803Z" fill="#246BFD"/>
<path d="M35.3357 10.8564H24.5462C23.6623 10.8706 23.6578 12.1924 24.5462 12.2078H35.3357C36.2186 12.1936 36.2246 10.8718 35.3357 10.8564Z" fill="#246BFD"/>
</svg>
