<svg width="32" height="32" viewBox="0 0 32 32" fill="none" xmlns="http://www.w3.org/2000/svg">
<g clip-path="url(#clip0_5517_34238)">
<path d="M15.9998 2.66602C8.6665 2.66602 2.6665 8.66602 2.6665 15.9993C2.6665 23.3327 8.6665 29.3327 15.9998 29.3327C23.3332 29.3327 29.3332 23.3327 29.3332 15.9993C29.3332 8.66602 23.3332 2.66602 15.9998 2.66602ZM21.5998 13.7327L15.1998 20.1327C14.6665 20.666 13.8665 20.666 13.3332 20.1327L10.3998 17.1993C9.8665 16.666 9.8665 15.866 10.3998 15.3327C10.9332 14.7993 11.7332 14.7993 12.2665 15.3327L14.2665 17.3327L19.7332 11.866C20.2665 11.3327 21.0665 11.3327 21.5998 11.866C22.1332 12.3993 22.1332 13.1993 21.5998 13.7327Z" fill="white"/>
</g>
<defs>
<clipPath id="clip0_5517_34238">
<rect width="32" height="32" fill="white"/>
</clipPath>
</defs>
</svg>