<svg width="24" height="25" viewBox="0 0 24 25" fill="none" xmlns="http://www.w3.org/2000/svg">
<path d="M22.6666 11.6261L12.5807 21.7329C11.3451 22.9711 9.6693 23.6667 7.9219 23.6667C6.1745 23.6667 4.49866 22.9711 3.26307 21.7329C2.02747 20.4948 1.33331 18.8155 1.33331 17.0644C1.33331 15.3134 2.02747 13.6341 3.26307 12.396L13.349 2.28917C14.1727 1.46373 15.2899 1 16.4549 1C17.6198 1 18.737 1.46373 19.5608 2.28917C20.3845 3.1146 20.8473 4.23414 20.8473 5.40149C20.8473 6.56883 20.3845 7.68837 19.5608 8.51381L9.46387 18.6206C9.052 19.0333 8.49339 19.2652 7.91092 19.2652C7.32846 19.2652 6.76985 19.0333 6.35798 18.6206C5.94611 18.2079 5.71473 17.6481 5.71473 17.0644C5.71473 16.4808 5.94611 15.921 6.35798 15.5083L15.6756 6.18231" stroke="#246BFD" stroke-width="2" stroke-linecap="round" stroke-linejoin="round"/>
</svg>
