<svg width="24" height="24" viewBox="0 0 24 24" fill="none" xmlns="http://www.w3.org/2000/svg">
<path d="M17.25 6H16.425C16.2509 5.15356 15.7904 4.39301 15.1209 3.84654C14.4515 3.30007 13.6142 3.00109 12.75 3L11.25 3C10.3858 3.00109 9.54849 3.30007 8.87906 3.84654C8.20964 4.39301 7.74907 5.15356 7.575 6H6.75C5.7558 6.00119 4.80267 6.39666 4.09966 7.09966C3.39666 7.80267 3.00119 8.7558 3 9.75L3 12H21V9.75C20.9988 8.7558 20.6033 7.80267 19.9003 7.09966C19.1973 6.39666 18.2442 6.00119 17.25 6ZM9.138 6C9.29256 5.56282 9.57842 5.18407 9.95648 4.91557C10.3345 4.64706 10.7863 4.50192 11.25 4.5H12.75C13.2137 4.50192 13.6655 4.64706 14.0435 4.91557C14.4216 5.18407 14.7074 5.56282 14.862 6H9.138Z" fill="#246BFD"/>
<path d="M12.75 14.7C12.75 14.8857 12.671 15.0637 12.5303 15.195C12.3897 15.3263 12.1989 15.4 12 15.4C11.8011 15.4 11.6103 15.3263 11.4697 15.195C11.329 15.0637 11.25 14.8857 11.25 14.7V14H3V17.5C3.00119 18.4279 3.39666 19.3175 4.09966 19.9736C4.80267 20.6298 5.7558 20.9989 6.75 21H17.25C18.2442 20.9989 19.1973 20.6298 19.9003 19.9736C20.6033 19.3175 20.9988 18.4279 21 17.5V14H12.75V14.7Z" fill="#246BFD"/>
</svg>
