<svg width="40" height="34" viewBox="0 0 40 34" fill="none" xmlns="http://www.w3.org/2000/svg">
<path d="M4.8925 5.76599H10.9632V2.34485C10.9632 1.05279 12.016 0 13.3081 0H26.9852C28.2773 0 29.33 1.05279 29.33 2.34485V5.76599H35.4008C37.8182 5.76599 39.795 7.74042 39.795 10.1602V29.6058C39.795 32.0232 37.8205 34 35.4008 34H4.8942C2.4768 34 0.5 32.0256 0.5 29.6058V10.1602C0.5 7.74278 2.47443 5.76599 4.8942 5.76599H4.8925ZM28.0338 15.4408H30.6765C31.1079 15.4408 31.4572 15.7925 31.4572 16.2215V17.6777H33.6403C36.1657 17.6777 38.2293 15.6144 38.2293 13.0888V10.1577C38.2293 8.60311 36.9538 7.32762 35.3992 7.32762H4.89263C3.33803 7.32762 2.06255 8.60311 2.06255 10.1577V13.1498C2.09527 15.6493 4.14936 17.6798 6.65146 17.6798H8.83694V16.2237C8.83694 15.7923 9.18865 15.4429 9.61766 15.4429H12.2604C12.6918 15.4429 13.0411 15.7947 13.0411 16.2237V17.6798H27.2483V16.2237C27.2483 15.7923 27.6 15.4429 28.029 15.4429L28.0338 15.4408ZM31.4573 19.2443V20.7168C31.4573 21.1482 31.1056 21.4976 30.6766 21.4976H28.0339C27.6024 21.4976 27.2531 21.1458 27.2531 20.7168V19.2443H13.046V20.7168C13.046 21.1482 12.6942 21.4976 12.2652 21.4976H9.62252C9.19111 21.4976 8.84179 21.1458 8.84179 20.7168V19.2443H6.65632C4.89299 19.2443 3.23992 18.487 2.0674 17.1786V29.6062C2.0674 31.1608 3.34289 32.4363 4.89748 32.4363H35.404C36.9586 32.4363 38.2341 31.1608 38.2341 29.6062V17.181C37.0829 18.4824 35.385 19.2443 33.6452 19.2443L31.4573 19.2443ZM29.8932 17.0049H28.8145V19.9361H29.8932V17.0049ZM11.4791 17.0049H10.4005V19.9361H11.4791V17.0049ZM12.525 5.76611H27.7643V2.34497C27.7643 1.91594 27.4126 1.56425 26.9836 1.56425H13.3065C12.8775 1.56425 12.5258 1.91596 12.5258 2.34497V5.76611H12.525Z" fill="#246BFD"/>
</svg>