<svg width="44" height="44" viewBox="0 0 44 44" fill="none" xmlns="http://www.w3.org/2000/svg">
<path d="M43.6088 9.33228C43.3644 9.1604 43.0511 9.11829 42.7701 9.22219L35.2971 11.94C34.3706 12.2766 33.6329 12.9551 33.2203 13.8503C33.1429 14.0181 33.0921 14.1925 33.0413 14.3666C31.758 14.0018 29.3733 13.2399 27.0033 12.0188C23.422 10.1734 20.686 11.0849 18.3394 12.8748C17.1504 12.8982 15.5115 13.0388 13.9006 13.1807C12.8729 13.2714 11.9017 13.3548 11.1142 13.4029C11.0949 12.9299 10.9842 12.4605 10.78 12.0171C10.3673 11.1218 9.62973 10.4433 8.70315 10.1067L1.23002 7.3888C0.949867 7.28585 0.634734 7.32796 0.391273 7.49889C0.145922 7.67085 0 7.951 0 8.24998V26.5833C0 27.09 0.410008 27.5 0.916695 27.5H3.59416C4.73292 27.5 5.79236 26.9629 6.4772 26.0956C6.842 26.373 7.27409 26.6978 7.72724 27.0381C8.79699 27.8429 9.96789 28.721 10.4817 29.1516C13.8951 32.009 17.9986 35.0947 18.8158 35.6318C19.5794 36.1331 20.9544 36.6667 22 36.6667C22.4091 36.6667 23.4395 36.6667 24.1628 36.0552C24.9085 36.3479 25.7123 36.3337 26.4598 36.0042C27.2055 35.6756 27.8089 35.0562 28.1597 34.3033C28.8759 34.4501 29.6985 34.3427 30.4442 33.9685C31.1433 33.6185 31.6581 33.0885 31.9338 32.4691C32.5962 32.5299 33.3034 32.3142 33.9363 31.8299C34.8405 31.1387 35.2546 30.1179 35.1374 29.1109L37.4626 27.8245C38.1436 28.7475 39.2259 29.3332 40.4058 29.3332H43.0832C43.5899 29.3332 43.9999 28.9232 43.9999 28.4165V10.0834C44 9.78431 43.8541 9.50415 43.6088 9.33228ZM5.31111 24.477C5.04436 25.1886 4.3542 25.6667 3.59416 25.6667H1.8333V9.55872L8.07632 11.8289C8.54004 11.9981 8.90888 12.3374 9.1147 12.785C9.32147 13.2326 9.33943 13.7339 9.16661 14.1949L5.31111 24.477ZM32.8237 30.3736C32.513 30.6117 32.078 30.7442 31.8846 30.5508C31.8747 30.541 31.8594 30.5419 31.8493 30.5325C31.8318 30.5162 31.8231 30.4943 31.8041 30.4792C31.1488 29.9617 28.2126 26.9575 26.3981 25.0651C26.0481 24.699 25.4671 24.6855 25.1028 25.0374C24.7367 25.3874 24.7241 25.9675 25.075 26.3327C25.5009 26.7772 28.9199 30.3381 30.2882 31.5834C30.1861 31.9859 29.8129 32.2345 29.6234 32.3295C29.0362 32.624 28.4239 32.5748 28.1947 32.3617C28.1879 32.3554 28.1778 32.3557 28.1707 32.3495C28.1596 32.3396 28.1546 32.3255 28.1427 32.3161C27.0434 31.4379 24.2854 28.5071 23.6614 27.8285C23.3185 27.4552 22.7394 27.4319 22.3661 27.774C21.9937 28.1168 21.9686 28.6969 22.3115 29.0693C22.3416 29.1019 25.0445 32.0175 26.5626 33.3717C26.4134 33.8004 26.1094 34.1554 25.7195 34.3275C25.4317 34.4554 24.9815 34.521 24.4672 34.1409C23.1508 33.0247 20.509 30.2126 19.9894 29.6565C19.6448 29.2858 19.0629 29.2671 18.6941 29.6127C18.3244 29.9582 18.3047 30.5383 18.6502 30.908C19.2662 31.5673 21.087 33.4971 22.4711 34.8038C22.3165 34.8226 22.1542 34.8334 22 34.8334C21.393 34.8334 20.3502 34.4458 19.8229 34.0993C19.1802 33.6767 15.1447 30.6654 11.6597 27.7471C11.1325 27.3048 9.92939 26.3998 8.82827 25.5727C8.23814 25.1297 7.69441 24.7212 7.29369 24.4129L10.7259 15.2592C11.6168 15.2203 12.8045 15.1176 14.0615 15.0067C14.7725 14.9441 15.4842 14.883 16.1643 14.83C15.119 15.9031 13.5648 17.8251 13.7697 19.6267C13.8637 20.4467 14.3122 21.1298 15.0686 21.6024C16.5663 22.5397 19.3387 21.7537 20.6742 20.1111C21.5363 19.9866 22.1191 19.7665 22.7546 19.4513C23.8288 20.4611 25.2691 21.6482 26.7821 22.8951C29.4157 25.065 32.4011 27.525 33.1907 28.9045C33.6302 29.6717 33.0206 30.2232 32.8237 30.3736ZM34.3962 27.4256C33.1749 25.7917 30.5273 23.6057 27.9476 21.4799C26.228 20.0628 24.6041 18.7245 23.5648 17.6852C23.2783 17.4005 22.8388 17.3361 22.4843 17.525C21.5505 18.0254 21.1299 18.2321 20.0753 18.3378C19.7942 18.3664 19.5418 18.5222 19.3915 18.7612C18.6726 19.9016 16.6745 20.4441 16.0408 20.0484C15.6808 19.8228 15.6111 19.5936 15.5914 19.4191C15.5028 18.6394 16.2923 17.2895 17.602 15.9789C20.8453 12.7357 23.1638 12.101 26.1635 13.6479C29.0135 15.1173 31.8264 15.9482 33.0071 16.262C33.0413 16.3993 33.066 16.5381 33.1164 16.6727L36.6756 26.1646L34.3962 27.4256ZM42.1667 27.5H40.4058C39.6458 27.5 38.9556 27.0219 38.6889 26.3103L34.8333 16.0291C34.6606 15.5672 34.6784 15.0659 34.8852 14.6183C35.0911 14.1707 35.46 13.8315 35.9236 13.6622L42.1666 11.392V27.5H42.1667Z" fill="#246BFD"/>
</svg>
