<svg width="32" height="32" viewBox="0 0 32 32" fill="#000" xmlns="http://www.w3.org/2000/svg">
<path d="M14 13.973C14 15.0303 13.5354 16.0876 12.9548 16.7484C12.0256 17.8058 11.2127 19.1274 10.7481 20.5812C10.1674 22.1672 10.2836 24.0175 11.2127 25.4713C11.3288 25.6035 11.5611 26 11.5611 26H5.75415C5.17345 26 4.7089 25.8678 4.24434 25.4713C3.08296 24.6783 2.73454 23.0924 3.19909 21.9029C3.77979 19.9204 5.17345 18.4666 6.7994 17.5414C5.75415 16.4841 5.17345 14.766 5.52187 12.9156C5.87029 11.0653 7.14781 9.47936 8.88989 9.08286C10.8643 8.68636 12.6063 9.74369 13.5354 11.594C13.7677 12.2548 14 13.0478 14 13.973Z" fill="#000"/>
<path d="M28.7765 21.4839C27.7515 18.9032 25.7015 17.0968 23.2672 16.1935C24.6765 15.1613 25.5734 13.4839 25.5734 11.6774C25.5734 8.45161 23.139 6 20.0641 6C16.9891 6 14.5547 8.45161 14.5547 11.5484C14.5547 13.3548 15.4516 15.0323 16.861 16.0645C14.2985 16.9677 12.2485 18.9032 11.2235 21.4839C10.8391 22.5161 10.9672 23.5484 11.4797 24.4516C12.1204 25.3548 13.1454 26 14.2985 26H25.7015C26.8546 26 27.8796 25.4839 28.5203 24.4516C29.0328 23.5484 29.1609 22.3871 28.7765 21.4839Z" fill="#000"/>
</svg>