<svg width="44" height="33" viewBox="0 0 44 33" fill="none" xmlns="http://www.w3.org/2000/svg">
<g clip-path="url(#clip0_13_3561)">
<path d="M30.7353 31.9451C32.7628 29.1523 32.3803 25.022 29.8683 22.6548C28.4151 21.2866 26.3111 20.3207 24.299 20.7136C24.1722 20.7863 24.0706 20.8953 24.0072 21.0269C23.717 21.6286 22.8731 22.0494 21.9546 22.0494C21.0361 22.0494 20.1925 21.6285 19.902 21.0269C19.8386 20.8953 19.7234 20.7779 19.597 20.7052C17.5795 20.3304 15.4957 21.2824 14.0412 22.6545C11.5295 25.0218 11.146 29.1524 13.1742 31.9448C13.577 32.5178 14.2394 32.8592 14.9459 32.8592H28.9637C29.6702 32.8592 30.3327 32.5179 30.7355 31.9448L30.7353 31.9451ZM14.3529 31.1161C11.7093 27.5009 14.3761 22.1445 18.8423 22.0539C20.0684 23.9415 23.8412 23.9415 25.0669 22.0539C29.534 22.1456 32.1995 27.5013 29.5563 31.1169C29.4234 31.3061 29.2017 31.4187 28.9633 31.4187L14.9455 31.4184C14.7074 31.4184 14.4854 31.3058 14.3526 31.1166L14.3529 31.1161Z" fill="#246BFD"/>
<path d="M41.4128 8.35601C41.501 4.09771 37.7442 0.340321 33.4856 0.428777C29.1147 0.428777 25.5583 3.98479 25.5583 8.35601V9.08375C25.5754 10.0302 26.9826 10.0319 26.9997 9.08375C26.4846 0.083347 39.5762 -0.72626 39.9715 8.35601V14.3716C38.768 13.7143 37.2823 13.2146 35.8847 13.4743C35.736 13.5434 35.6128 13.6621 35.5391 13.815C35.2425 14.4294 34.4173 14.8419 33.4856 14.8419C32.5538 14.8419 31.7286 14.4295 31.432 13.815C31.3583 13.6621 31.2348 13.5434 31.0864 13.4743C30.4092 13.2809 29.6512 13.464 28.9759 13.5852C28.5886 13.676 28.3479 14.064 28.4387 14.451C28.6925 15.3773 29.7149 14.8155 30.3738 14.8438C31.6031 16.7343 35.3683 16.7336 36.5978 14.8445C44.1783 15.5349 43.566 25.829 37.0891 26.3717H34.9271C33.0283 26.3219 33.0254 23.5396 34.9271 23.4891H39.2511C40.1979 23.4733 40.1986 22.0635 39.2511 22.0478H34.9271C31.1183 22.1681 31.1176 27.6927 34.9271 27.813H37.0891C42.5629 27.7596 46.0697 20.0753 41.4131 15.4795V8.3556L41.4128 8.35601Z" fill="#246BFD"/>
<path d="M10.4244 13.4006C14.0007 13.4006 16.9103 10.4909 16.9103 6.91466C16.5539 -1.68958 4.29345 -1.68711 3.93848 6.91466C3.93848 10.4909 6.84812 13.4006 10.4244 13.4006ZM10.4244 1.87005C13.206 1.87005 15.469 4.13308 15.469 6.91466C15.2155 13.5978 5.63264 13.5959 5.37979 6.91466C5.37979 4.13308 7.64282 1.87005 10.4244 1.87005Z" fill="#246BFD"/>
<path d="M21.7382 20.4285C25.0596 20.4285 27.762 17.7191 27.762 14.389C27.4309 6.377 16.044 6.3793 15.7144 14.389C15.7144 17.7191 18.4167 20.4285 21.7382 20.4285ZM21.7382 9.69162C24.3216 9.69162 26.4234 11.7989 26.4234 14.389C26.1879 20.6122 17.2878 20.6103 17.053 14.389C17.053 11.7989 19.1548 9.69162 21.7382 9.69162Z" fill="#246BFD"/>
<path d="M6.82112 27.8137H8.9831C12.7916 27.6927 12.7929 22.1694 8.9831 22.0484H4.65915C3.71266 22.0642 3.71134 23.474 4.65915 23.4897H8.9831C10.8816 23.538 10.8848 26.3228 8.9831 26.3723H6.82112C0.340061 25.8286 -0.267021 15.5188 7.31207 14.8443C8.54172 16.7347 12.3071 16.7347 13.5364 14.8443C14.1963 14.816 15.2174 15.3777 15.4716 14.4515C15.5623 14.0644 15.3216 13.6768 14.9343 13.586C14.2593 13.4644 13.4997 13.282 12.8238 13.4747C12.6758 13.5439 12.5519 13.6626 12.4783 13.8154C11.8853 15.1631 8.96343 15.1622 8.37117 13.8154C8.25149 13.5667 7.99765 13.41 7.72612 13.401C5.78454 13.3631 3.91693 14.0766 2.51391 15.444C-2.16781 20.0285 1.33286 27.7652 6.82147 27.8146L6.82112 27.8137Z" fill="#246BFD"/>
<path d="M33.1256 13.4005C36.3959 13.6724 38.8027 11.2662 38.5305 7.99558C38.2612 1.28284 27.8162 1.91472 28.4413 8.71624C28.441 11.299 30.5425 13.4005 33.1252 13.4005H33.1256ZM29.8826 7.99558C29.8826 6.20745 31.3374 4.75262 33.1256 4.75262H33.8462C35.6344 4.75262 37.0892 6.20745 37.0892 7.99558V8.71624C37.0892 10.5044 35.6344 11.9592 33.8462 11.9592H33.1256C31.3374 11.9592 29.8826 10.5044 29.8826 8.71624V7.99558Z" fill="#246BFD"/>
</g>
<defs>
<clipPath id="clip0_13_3561">
<rect width="44" height="33" fill="white"/>
</clipPath>
</defs>
</svg>
