<svg width="16" height="14" viewBox="0 0 16 14" fill="none" xmlns="http://www.w3.org/2000/svg">
<path d="M2.00029 8.49987L10.7933 8.49987L8.35429 10.9389C8.07289 11.2201 7.91475 11.6017 7.91466 11.9995C7.91457 12.3974 8.07252 12.779 8.35379 13.0604C8.63505 13.3418 9.01657 13.4999 9.41443 13.5C9.81229 13.5001 10.1939 13.3421 10.4753 13.0609L14.0613 9.47487C14.7165 8.81784 15.0845 7.92779 15.0845 6.99987C15.0845 6.07196 14.7165 5.18191 14.0613 4.52487L10.4753 0.938873C10.1939 0.65761 9.81229 0.499652 9.41443 0.499746C9.01657 0.499839 8.63505 0.65798 8.35379 0.939375C8.07252 1.22077 7.91456 1.60237 7.91466 2.00023C7.91475 2.39809 8.07289 2.77961 8.35429 3.06087L10.7933 5.49987L2.00029 5.49987C1.60246 5.49987 1.22093 5.65791 0.939626 5.93921C0.658322 6.22052 0.500285 6.60205 0.500286 6.99987C0.500286 7.3977 0.658322 7.77923 0.939626 8.06053C1.22093 8.34184 1.60246 8.49987 2.00029 8.49987Z" fill="#D6E2FF"/>
</svg>