<svg width="16" height="14" viewBox="0 0 16 14" fill="none" xmlns="http://www.w3.org/2000/svg">
<path d="M13.9997 5.50013H5.20671L7.64571 3.06113C7.92711 2.77986 8.08525 2.39834 8.08534 2.00048C8.08543 1.60262 7.92747 1.22102 7.64621 0.939627C7.36495 0.658232 6.98343 0.500094 6.58557 0.5C6.18771 0.499906 5.80611 0.657865 5.52471 0.939127L1.93871 4.52513C1.28348 5.18216 0.915527 6.07221 0.915527 7.00013C0.915527 7.92804 1.28348 8.81809 1.93871 9.47513L5.52471 13.0611C5.80611 13.3424 6.18771 13.5003 6.58557 13.5003C6.98343 13.5002 7.36495 13.342 7.64621 13.0606C7.92747 12.7792 8.08543 12.3976 8.08534 11.9998C8.08525 11.6019 7.92711 11.2204 7.64571 10.9391L5.20671 8.50013H13.9997C14.3975 8.50013 14.7791 8.34209 15.0604 8.06079C15.3417 7.77948 15.4997 7.39795 15.4997 7.00013C15.4997 6.6023 15.3417 6.22077 15.0604 5.93947C14.7791 5.65816 14.3975 5.50013 13.9997 5.50013Z" fill="#D6E2FF"/>
</svg>