<svg width="22" height="27" viewBox="0 0 22 27" fill="none" xmlns="http://www.w3.org/2000/svg">
<path d="M0.2 1.5C0.2 0.78203 0.78203 0.2 1.5 0.2H15.4798C15.824 0.2 16.1542 0.336514 16.3979 0.579603L21.4181 5.58717C21.6626 5.83106 21.8 6.16222 21.8 6.50757V25.5C21.8 26.218 21.218 26.8 20.5 26.8H1.5C0.78203 26.8 0.2 26.218 0.2 25.5V1.5Z" fill="white" stroke="#9CA2AB" stroke-width="0.4"/>
<mask id="path-2-inside-1_4436_27576" fill="white">
<path fill-rule="evenodd" clip-rule="evenodd" d="M22 6.49986H17C16.1716 6.49986 15.5 5.82829 15.5 4.99986V0C15.8899 0.00524716 16.2627 0.162142 16.5391 0.437867L21.5593 5.44544C21.8397 5.72507 21.998 6.10412 22 6.49986Z"/>
</mask>
<path fill-rule="evenodd" clip-rule="evenodd" d="M22 6.49986H17C16.1716 6.49986 15.5 5.82829 15.5 4.99986V0C15.8899 0.00524716 16.2627 0.162142 16.5391 0.437867L21.5593 5.44544C21.8397 5.72507 21.998 6.10412 22 6.49986Z" fill="#F2F6FF"/>
<path d="M22 6.49986V6.89986H22.402L22.4 6.49785L22 6.49986ZM15.5 0L15.5054 -0.399964L15.1 -0.40542V0H15.5ZM16.5391 0.437867L16.2566 0.721066L16.5391 0.437867ZM21.5593 5.44544L21.2768 5.72864L21.5593 5.44544ZM22 6.09986H17V6.89986H22V6.09986ZM17 6.09986C16.3925 6.09986 15.9 5.60738 15.9 4.99986H15.1C15.1 6.0492 15.9507 6.89986 17 6.89986V6.09986ZM15.9 4.99986V0H15.1V4.99986H15.9ZM15.4946 0.399964C15.7805 0.403812 16.0539 0.518869 16.2566 0.721066L16.8216 0.154668C16.4715 -0.194585 15.9992 -0.393317 15.5054 -0.399964L15.4946 0.399964ZM16.2566 0.721066L21.2768 5.72864L21.8418 5.16224L16.8216 0.154668L16.2566 0.721066ZM21.2768 5.72864C21.4824 5.9337 21.5985 6.21167 21.6 6.50188L22.4 6.49785C22.3974 5.99657 22.1969 5.51644 21.8418 5.16224L21.2768 5.72864Z" fill="#9CA2AB" mask="url(#path-2-inside-1_4436_27576)"/>
<path d="M8.6001 9.1V9.9H15.9001V9.1H8.6001Z" fill="#007AFF"/>
<path d="M6.1001 18.1V18.9H13.4001V18.1H6.1001Z" fill="#007AFF"/>
<path d="M6.1001 12.1V12.9H15.9001V12.1H6.1001Z" fill="#007AFF"/>
<path d="M6.1001 15.1V15.9H15.9001V15.1H6.1001Z" fill="#007AFF"/>
</svg>
