<svg width="32" height="32" viewBox="0 0 32 32" fill="none" xmlns="http://www.w3.org/2000/svg">
<path d="M21.588 2.66675C25.7067 2.66675 28 5.04008 28 9.10675V22.8801C28 27.0134 25.7067 29.3334 21.588 29.3334H10.4133C6.36 29.3334 4 27.0134 4 22.8801V9.10675C4 5.04008 6.36 2.66675 10.4133 2.66675H21.588ZM10.7733 20.9867C10.3733 20.9467 9.98667 21.1334 9.77333 21.4801C9.56 21.8134 9.56 22.2534 9.77333 22.6001C9.98667 22.9334 10.3733 23.1334 10.7733 23.0801H21.2267C21.7587 23.0267 22.16 22.5721 22.16 22.0401C22.16 21.4934 21.7587 21.0401 21.2267 20.9867H10.7733ZM21.2267 14.9054H10.7733C10.1987 14.9054 9.73333 15.3734 9.73333 15.9467C9.73333 16.5201 10.1987 16.9867 10.7733 16.9867H21.2267C21.8 16.9867 22.2667 16.5201 22.2667 15.9467C22.2667 15.3734 21.8 14.9054 21.2267 14.9054ZM14.7587 8.86675H10.7733V8.88008C10.1987 8.88008 9.73333 9.34675 9.73333 9.92008C9.73333 10.4934 10.1987 10.9601 10.7733 10.9601H14.7587C15.3333 10.9601 15.8 10.4934 15.8 9.90541C15.8 9.33341 15.3333 8.86675 14.7587 8.86675Z" fill="#000"/>
</svg>
