<svg width="64" height="64" viewBox="0 0 64 64" fill="none" xmlns="http://www.w3.org/2000/svg">
<rect width="64" height="64" rx="6" fill="#D6E2FF"/>
<path d="M13.1364 56H9.01136V44.3636H13.1705C14.3409 44.3636 15.3485 44.5966 16.1932 45.0625C17.0379 45.5246 17.6875 46.1894 18.142 47.0568C18.6004 47.9242 18.8295 48.9621 18.8295 50.1705C18.8295 51.3826 18.6004 52.4242 18.142 53.2955C17.6875 54.1667 17.0341 54.8352 16.1818 55.3011C15.3333 55.767 14.3182 56 13.1364 56ZM11.4716 53.892H13.0341C13.7614 53.892 14.3731 53.7633 14.8693 53.5057C15.3693 53.2443 15.7443 52.8409 15.9943 52.2955C16.2481 51.7462 16.375 51.0379 16.375 50.1705C16.375 49.3106 16.2481 48.608 15.9943 48.0625C15.7443 47.517 15.3712 47.1155 14.875 46.858C14.3788 46.6004 13.767 46.4716 13.0398 46.4716H11.4716V53.892ZM24.5497 56.1705C23.6671 56.1705 22.9039 55.983 22.2599 55.608C21.6198 55.2292 21.1255 54.7027 20.777 54.0284C20.4285 53.3504 20.2543 52.5644 20.2543 51.6705C20.2543 50.7689 20.4285 49.9811 20.777 49.3068C21.1255 48.6288 21.6198 48.1023 22.2599 47.7273C22.9039 47.3485 23.6671 47.1591 24.5497 47.1591C25.4323 47.1591 26.1937 47.3485 26.8338 47.7273C27.4777 48.1023 27.974 48.6288 28.3224 49.3068C28.6709 49.9811 28.8452 50.7689 28.8452 51.6705C28.8452 52.5644 28.6709 53.3504 28.3224 54.0284C27.974 54.7027 27.4777 55.2292 26.8338 55.608C26.1937 55.983 25.4323 56.1705 24.5497 56.1705ZM24.5611 54.2955C24.9626 54.2955 25.2978 54.1818 25.5668 53.9545C25.8357 53.7235 26.0384 53.4091 26.1747 53.0114C26.3149 52.6136 26.3849 52.161 26.3849 51.6534C26.3849 51.1458 26.3149 50.6932 26.1747 50.2955C26.0384 49.8977 25.8357 49.5833 25.5668 49.3523C25.2978 49.1212 24.9626 49.0057 24.5611 49.0057C24.1558 49.0057 23.8149 49.1212 23.5384 49.3523C23.2656 49.5833 23.0592 49.8977 22.919 50.2955C22.7827 50.6932 22.7145 51.1458 22.7145 51.6534C22.7145 52.161 22.7827 52.6136 22.919 53.0114C23.0592 53.4091 23.2656 53.7235 23.5384 53.9545C23.8149 54.1818 24.1558 54.2955 24.5611 54.2955ZM34.3622 56.1705C33.4683 56.1705 32.6993 55.9811 32.0554 55.6023C31.4152 55.2197 30.9228 54.6894 30.5781 54.0114C30.2372 53.3333 30.0668 52.553 30.0668 51.6705C30.0668 50.7765 30.2391 49.9924 30.5838 49.3182C30.9323 48.6402 31.4266 48.1117 32.0668 47.733C32.7069 47.3504 33.4683 47.1591 34.3509 47.1591C35.1122 47.1591 35.7789 47.2973 36.3509 47.5739C36.9228 47.8504 37.3755 48.2386 37.7088 48.7386C38.0421 49.2386 38.2259 49.8258 38.2599 50.5H35.9759C35.9115 50.0644 35.741 49.714 35.4645 49.4489C35.1918 49.1799 34.8338 49.0455 34.3906 49.0455C34.0156 49.0455 33.688 49.1477 33.4077 49.3523C33.1312 49.553 32.9152 49.8466 32.7599 50.233C32.6046 50.6193 32.527 51.0871 32.527 51.6364C32.527 52.1932 32.6027 52.6667 32.7543 53.0568C32.9096 53.447 33.1274 53.7443 33.4077 53.9489C33.688 54.1534 34.0156 54.2557 34.3906 54.2557C34.6671 54.2557 34.9152 54.1989 35.1349 54.0852C35.3584 53.9716 35.5421 53.8068 35.6861 53.5909C35.8338 53.3712 35.9304 53.108 35.9759 52.8011H38.2599C38.2221 53.4678 38.0402 54.0549 37.7145 54.5625C37.3925 55.0663 36.9474 55.4602 36.3793 55.7443C35.8111 56.0284 35.1387 56.1705 34.3622 56.1705ZM41.7855 47.2727L43.3878 50.3239L45.0298 47.2727H47.5128L44.9844 51.6364L47.581 56H45.1094L43.3878 52.983L41.6946 56H39.1946L41.7855 51.6364L39.2855 47.2727H41.7855Z" fill="#001D52"/>
</svg>