<svg width="92" height="37" viewBox="0 0 92 37" fill="none" xmlns="http://www.w3.org/2000/svg">
<path d="M90.398 36.2103H37.0984C36.2454 36.2103 35.5476 35.5129 35.5476 34.6605V2.50184C35.5476 1.64944 36.2454 0.952026 37.0984 0.952026H90.398C91.2509 0.952026 91.9487 1.64944 91.9487 2.50184V34.6605C91.9487 35.5129 91.2664 36.2103 90.398 36.2103ZM38.6491 33.1107H88.8472V4.05166H38.6491V33.1107Z" fill="white"/>
<path d="M63.7559 25.4391C63.4147 25.4391 63.0736 25.3306 62.7789 25.0982L36.1214 3.71071C35.4545 3.16827 35.346 2.19189 35.8888 1.52547C36.4315 0.85905 37.4085 0.750563 38.0753 1.293L63.7559 21.9055L89.4365 1.293C90.1033 0.750563 91.0803 0.85905 91.6231 1.52547C92.1658 2.19189 92.0573 3.16827 91.3904 3.71071L64.7174 25.0982C64.4382 25.3306 64.0971 25.4391 63.7559 25.4391Z" fill="white"/>
<path d="M37.0984 36.2103C36.6642 36.2103 36.2144 36.0244 35.9198 35.6679C35.3615 35.017 35.4546 34.0406 36.1059 33.4827L55.6144 16.9926C56.2658 16.4347 57.2427 16.5277 57.801 17.1786C58.3593 17.8295 58.2662 18.8059 57.6149 19.3638L38.1064 35.8384C37.8117 36.0864 37.455 36.2103 37.0984 36.2103Z" fill="white"/>
<path d="M90.3979 36.2103C90.0412 36.2103 89.6845 36.0863 89.3899 35.8384L69.8969 19.3483C69.2455 18.7904 69.168 17.814 69.7108 17.1631C70.269 16.5122 71.246 16.4347 71.8973 16.9771L91.4059 33.4672C92.0572 34.0251 92.1347 35.0015 91.592 35.6524C91.2818 36.0244 90.8476 36.2103 90.3979 36.2103Z" fill="white"/>
<path d="M31.5467 4.20666H19.5283C18.6754 4.20666 17.9775 3.50924 17.9775 2.65684C17.9775 1.80444 18.6754 1.10703 19.5283 1.10703H31.5467C32.3996 1.10703 33.0974 1.80444 33.0974 2.65684C33.0974 3.50924 32.3996 4.20666 31.5467 4.20666Z" fill="#D6E2FF"/>
<path d="M31.5468 10.6229H28.5073C27.6544 10.6229 26.9565 9.92547 26.9565 9.07307C26.9565 8.22067 27.6544 7.52325 28.5073 7.52325H31.5468C32.3997 7.52325 33.0976 8.22067 33.0976 9.07307C33.0976 9.92547 32.3997 10.6229 31.5468 10.6229Z" fill="#D6E2FF"/>
<path d="M16.3492 10.6229H1.69456C0.841641 10.6229 0.143799 9.92547 0.143799 9.07307C0.143799 8.22067 0.841641 7.52325 1.69456 7.52325H16.3647C17.2177 7.52325 17.9155 8.22067 17.9155 9.07307C17.9 9.92547 17.2177 10.6229 16.3492 10.6229Z" fill="#E9203B"/>
<path d="M31.5467 17.0236H19.5283C18.6754 17.0236 17.9775 16.3262 17.9775 15.4738C17.9775 14.6214 18.6754 13.924 19.5283 13.924H31.5467C32.3996 13.924 33.0974 14.6214 33.0974 15.4738C33.0974 16.3417 32.3996 17.0236 31.5467 17.0236Z" fill="#1DAF2B"/>
<path d="M12.069 17.0236H6.06761C5.21469 17.0236 4.51685 16.3262 4.51685 15.4738C4.51685 14.6214 5.21469 13.924 6.06761 13.924H12.069C12.922 13.924 13.6198 14.6214 13.6198 15.4738C13.6198 16.3417 12.9375 17.0236 12.069 17.0236Z" fill="#D6E2FF"/>
<path d="M31.5466 23.4399H16.4887C15.6358 23.4399 14.938 22.7425 14.938 21.8901C14.938 21.0377 15.6358 20.3402 16.4887 20.3402H31.5466C32.3995 20.3402 33.0974 21.0377 33.0974 21.8901C33.0974 22.758 32.3995 23.4399 31.5466 23.4399Z" fill="#D6E2FF"/>
<path d="M31.5468 29.8561H27.8249C26.972 29.8561 26.2742 29.1587 26.2742 28.3063C26.2742 27.4539 26.972 26.7565 27.8249 26.7565H31.5468C32.3997 26.7565 33.0975 27.4539 33.0975 28.3063C33.0975 29.1587 32.3997 29.8561 31.5468 29.8561Z" fill="#D6E2FF"/>
<path d="M23.2656 29.8561H10.4253C9.57235 29.8561 8.87451 29.1587 8.87451 28.3063C8.87451 27.4539 9.57235 26.7565 10.4253 26.7565H23.2656C24.1185 26.7565 24.8163 27.4539 24.8163 28.3063C24.8163 29.1587 24.1185 29.8561 23.2656 29.8561Z" fill="#FFBA49"/>
<path d="M31.5467 36.2723H23.2656C22.4127 36.2723 21.7148 35.5749 21.7148 34.7225C21.7148 33.8701 22.4127 33.1727 23.2656 33.1727H31.5467C32.3996 33.1727 33.0974 33.8701 33.0974 34.7225C33.0974 35.5749 32.3996 36.2723 31.5467 36.2723Z" fill="white"/>
</svg>
