<svg width="33" height="44" viewBox="0 0 33 44" fill="none" xmlns="http://www.w3.org/2000/svg">
<g clip-path="url(#clip0_814_74171)">
<path d="M29.3333 3.6667H25.4977C25.1181 2.60202 24.1101 1.83339 22.9166 1.83339H20.1469C19.2858 0.691109 17.9323 0 16.5 0C15.0677 0 13.7142 0.691109 12.853 1.8333H10.0833C8.8898 1.8333 7.88184 2.60193 7.50217 3.66661H3.6667C1.64536 3.6667 0 5.31111 0 7.3333V40.3333C0 42.3556 1.64536 44 3.6667 44H29.3334C31.3546 44 33 42.3556 33 40.3333V7.3333C33 5.31111 31.3546 3.6667 29.3333 3.6667ZM9.1667 4.5833C9.1667 4.07756 9.57851 3.66661 10.0834 3.66661H13.3419C13.6678 3.66661 13.9703 3.49293 14.1332 3.21097C14.6363 2.34798 15.5207 1.8333 16.5001 1.8333C17.4794 1.8333 18.3639 2.34807 18.867 3.21097C19.0299 3.49293 19.3325 3.66661 19.6583 3.66661H22.9168C23.4217 3.66661 23.8335 4.07748 23.8335 4.5833V5.5C23.8335 6.51062 23.0117 7.3333 22.0002 7.3333H11C9.98843 7.3333 9.1667 6.51062 9.1667 5.5V4.5833ZM31.1667 40.3333C31.1667 41.3439 30.3449 42.1666 29.3334 42.1666H3.6667C2.65512 42.1666 1.83339 41.3439 1.83339 40.3333V7.3333C1.83339 6.32268 2.65521 5.5 3.6667 5.5H7.33339C7.33339 7.5222 8.97875 9.1667 11.0001 9.1667H22.0001C24.0214 9.1667 25.6668 7.52228 25.6668 5.5H29.3335C30.345 5.5 31.1668 6.32268 31.1668 7.3333V40.3333H31.1667Z" fill="#246BFD"/>
<path d="M8.25 14.6663C6.73355 14.6663 5.5 15.8998 5.5 17.4163C5.5 18.9327 6.73355 20.1663 8.25 20.1663C9.76645 20.1663 11 18.9327 11 17.4163C11 15.8998 9.76645 14.6663 8.25 14.6663ZM8.25 18.3329C7.74512 18.3329 7.3333 17.922 7.3333 17.4162C7.3333 16.9104 7.74512 16.4995 8.25 16.4995C8.75488 16.4995 9.1667 16.9103 9.1667 17.4162C9.1667 17.922 8.75488 18.3329 8.25 18.3329Z" fill="#246BFD"/>
<path d="M8.25 23.8328C6.73355 23.8328 5.5 25.0663 5.5 26.5828C5.5 28.0992 6.73355 29.3328 8.25 29.3328C9.76645 29.3328 11 28.0992 11 26.5828C11 25.0664 9.76645 23.8328 8.25 23.8328ZM8.25 27.4995C7.74512 27.4995 7.3333 27.0886 7.3333 26.5828C7.3333 26.077 7.74512 25.6661 8.25 25.6661C8.75488 25.6661 9.1667 26.0769 9.1667 26.5828C9.1667 27.0886 8.75488 27.4995 8.25 27.4995Z" fill="#246BFD"/>
<path d="M8.25 33C6.73355 33 5.5 34.2335 5.5 35.75C5.5 37.2665 6.73355 38.5 8.25 38.5C9.76645 38.5 11 37.2665 11 35.75C11 34.2335 9.76645 33 8.25 33ZM8.25 36.6667C7.74512 36.6667 7.3333 36.2558 7.3333 35.75C7.3333 35.2443 7.74512 34.8333 8.25 34.8333C8.75488 34.8333 9.1667 35.2442 9.1667 35.75C9.1667 36.2557 8.75488 36.6667 8.25 36.6667Z" fill="#246BFD"/>
<path d="M26.5832 16.5H15.5832C15.0765 16.5 14.6665 16.91 14.6665 17.4167C14.6665 17.9234 15.0765 18.3334 15.5832 18.3334H26.5832C27.0899 18.3334 27.4999 17.9234 27.4999 17.4167C27.4999 16.91 27.0899 16.5 26.5832 16.5Z" fill="#246BFD"/>
<path d="M26.5832 25.6672H15.5832C15.0765 25.6672 14.6665 26.0772 14.6665 26.5839C14.6665 27.0906 15.0765 27.5006 15.5832 27.5006H26.5832C27.0899 27.5006 27.4999 27.0906 27.4999 26.5839C27.4999 26.0772 27.0899 25.6672 26.5832 25.6672Z" fill="#246BFD"/>
<path d="M26.5832 34.8337H15.5832C15.0765 34.8337 14.6665 35.2437 14.6665 35.7504C14.6665 36.2571 15.0765 36.6671 15.5832 36.6671H26.5832C27.0899 36.6671 27.4999 36.2571 27.4999 35.7504C27.4999 35.2437 27.0899 34.8337 26.5832 34.8337Z" fill="#246BFD"/>
</g>
<defs>
<clipPath id="clip0_814_74171">
<rect width="33" height="44" fill="white"/>
</clipPath>
</defs>
</svg>
