<svg width="18" height="19" viewBox="0 0 18 19" fill="none" xmlns="http://www.w3.org/2000/svg">
<path d="M17 8.96959L9.43557 16.5497C8.50887 17.4783 7.25199 18 5.94144 18C4.63089 18 3.37401 17.4783 2.44731 16.5497C1.52061 15.6211 1 14.3616 1 13.0483C1 11.7351 1.52061 10.4756 2.44731 9.54697L10.0117 1.96687C10.6295 1.34779 11.4675 1 12.3412 1C13.2149 1 14.0528 1.34779 14.6706 1.96687C15.2884 2.58595 15.6355 3.4256 15.6355 4.30111C15.6355 5.17662 15.2884 6.01628 14.6706 6.63535L7.09792 14.2154C6.78902 14.525 6.37006 14.6989 5.93321 14.6989C5.49636 14.6989 5.0774 14.525 4.7685 14.2154C4.4596 13.9059 4.28606 13.4861 4.28606 13.0483C4.28606 12.6106 4.4596 12.1907 4.7685 11.8812L11.7568 4.88674" stroke="#246BFD" stroke-width="2" stroke-linecap="round" stroke-linejoin="round"/>
</svg>