<svg width="46" height="41" viewBox="0 0 46 41" fill="none" xmlns="http://www.w3.org/2000/svg">
<g clip-path="url(#clip0_13_3484)">
<path d="M15.3473 33.384C16.3325 33.4592 16.4741 31.9963 15.4879 31.8855C13.6115 31.7099 11.8504 31.1948 10.252 30.4149L16.845 17.2517C16.8793 17.1379 16.9187 17.0201 16.915 16.8988C16.9133 16.7776 16.8689 16.6618 16.8299 16.55L9.69226 3.72553C17.2015 -0.612872 27.7355 3.01976 30.8585 11.1851C31.2453 12.0917 32.6162 11.5343 32.2523 10.6126C25.1968 -5.95086 0.642494 -1.21732 0.348877 16.9159C0.348877 25.5033 6.79665 32.5829 15.3466 33.384L15.3473 33.384ZM8.40956 4.51778L15.3194 16.934L8.92989 29.6905C-0.220448 24.1716 -0.48565 10.4298 8.40956 4.51778Z" fill="#246BFD"/>
<path d="M41.0341 12.4033H21.4453C18.9527 12.4033 16.9248 14.4276 16.9248 16.9159V36.4707C16.9248 38.959 18.9527 40.9833 21.4453 40.9833H41.0341C43.5267 40.9833 45.5546 38.959 45.5546 36.4707V16.9159C45.5546 14.4276 43.5267 12.4033 41.0341 12.4033ZM44.0477 36.4707C44.0477 38.13 42.6963 39.4791 41.0341 39.4791H21.4453C19.6129 39.4905 18.2571 37.8604 18.4316 36.0712C19.2601 36.7981 20.335 37.2238 21.4453 37.2228H41.0341C42.1444 37.2238 43.2197 36.798 44.0477 36.0712V36.4707ZM44.0477 32.7101C44.0477 34.3695 42.6963 35.7186 41.0341 35.7186H21.4453C19.6129 35.73 18.2571 34.0999 18.4316 32.3106C19.2601 33.0375 20.335 33.4633 21.4453 33.4623H41.0341C42.1444 33.4633 43.2197 33.0375 44.0477 32.3106V32.7101ZM44.0477 28.9496C44.0477 30.609 42.6963 31.958 41.0341 31.958H21.4453C19.7837 31.958 18.4316 30.609 18.4316 28.9496V16.9159C18.4316 15.2573 19.7837 13.9075 21.4453 13.9075H41.0341C42.6963 13.9075 44.0477 15.2573 44.0477 16.9159V28.9496Z" fill="#246BFD"/>
<path d="M31.2397 15.4116C26.6698 15.4116 22.9521 18.7853 22.9521 22.9327C23.4029 32.9094 39.0787 32.906 39.5273 22.9327C39.5273 18.7857 35.8096 15.4116 31.2397 15.4116ZM31.2397 28.9495C27.5005 28.9495 24.459 26.2504 24.459 22.9327C24.8253 14.9523 37.6554 14.955 38.0205 22.9327C38.0205 26.2504 34.9789 28.9495 31.2397 28.9495Z" fill="#246BFD"/>
<path d="M41.7876 15.4116H38.0205C37.0313 15.4277 37.0292 16.8994 38.0205 16.9158H41.7876C42.7767 16.8994 42.7788 15.428 41.7876 15.4116Z" fill="#246BFD"/>
<path d="M24.4589 28.9497H20.6919C19.7027 28.9658 19.7006 30.4375 20.6919 30.4539H24.4589C25.4481 30.4378 25.4502 28.9661 24.4589 28.9497Z" fill="#246BFD"/>
<path d="M30.4863 20.6764H33.5C34.4902 20.6599 34.4905 19.1883 33.5 19.1722H31.9931V18.4201C31.9931 18.0047 31.6561 17.668 31.2397 17.668C30.8233 17.668 30.4863 18.0047 30.4863 18.4201V19.1722C27.5049 19.2514 27.5069 23.6066 30.4863 23.6848H31.9931C32.4089 23.6848 32.7465 24.0219 32.7465 24.4369C32.7465 24.8519 32.4089 25.189 31.9931 25.189H28.9795C27.99 25.2045 27.9886 26.6774 28.9795 26.6932H30.4863V27.4453C30.4863 27.861 30.8233 28.1974 31.2397 28.1974C31.6561 28.1974 31.9931 27.861 31.9931 27.4453V26.6932C34.9738 26.6147 34.9731 22.2585 31.9931 22.1806H30.4863C29.4971 22.1641 29.4958 20.6931 30.4863 20.6764Z" fill="#246BFD"/>
</g>
<defs>
<clipPath id="clip0_13_3484">
<rect width="46" height="41" fill="white"/>
</clipPath>
</defs>
</svg>
