<svg width="24" height="27" viewBox="0 0 24 27" fill="none" xmlns="http://www.w3.org/2000/svg">
<path fill-rule="evenodd" clip-rule="evenodd" d="M18.0737 15.9992C21.1113 15.9992 23.5737 18.4616 23.5737 21.4992C23.5737 24.5367 21.1113 26.9992 18.0737 26.9992C15.0362 26.9992 12.5737 24.5367 12.5737 21.4992C12.5737 18.4616 15.0362 15.9992 18.0737 15.9992ZM18.9565 18.4987C18.9291 18.4173 18.8528 18.3624 18.7669 18.3624H17.3006C17.2147 18.3624 17.1384 18.4173 17.111 18.4988L15.3546 23.7356C15.3111 23.8651 15.4075 23.9992 15.5442 23.9992H16.5383C16.627 23.9992 16.7052 23.9406 16.7302 23.8555L17.0091 22.9046C17.0341 22.8194 17.1123 22.7609 17.2011 22.7609H18.74C18.8294 22.7609 18.908 22.8202 18.9324 22.9062L19.2014 23.8538C19.2259 23.9398 19.3044 23.9992 19.3938 23.9992H20.527C20.6637 23.9992 20.7601 23.865 20.7166 23.7354L18.9565 18.4987ZM11.0796 0.453191C11.5534 0.649525 11.7961 1.16797 11.659 1.64953L11.6206 1.75985L8.412 9.49895L13.6732 9.49915C13.8618 9.49915 14.0457 9.5525 14.204 9.65166L14.3176 9.7345C14.7074 10.063 14.7833 10.6259 14.5127 11.0427L14.4378 11.1436L4.48321 22.9552C4.20242 23.2884 3.73823 23.4014 3.33571 23.2346C2.86195 23.0383 2.61927 22.5198 2.7563 22.0383L2.79474 21.928L6.128 13.882L1.00002 13.8827C0.811347 13.8827 0.627529 13.8293 0.469215 13.7302L0.355585 13.6473C-0.0342385 13.3188 -0.110087 12.756 0.160486 12.3392L0.235365 12.2382L9.93212 0.732569C10.2129 0.399399 10.6771 0.286384 11.0796 0.453191ZM18.0161 19.632L18.5479 21.4742C18.5848 21.602 18.4888 21.7296 18.3557 21.7296H17.5921C17.4585 21.7296 17.3625 21.6013 17.4002 21.4732L17.9419 19.632H18.0161Z" fill="white"/>
</svg>
