<svg width="84" height="96" viewBox="0 0 84 96" fill="none" xmlns="http://www.w3.org/2000/svg">
<path d="M47 24C60.2548 24 71 34.7452 71 48V48C71 61.2548 60.2548 72 47 72V72C33.7452 72 23 61.2548 23 48V48C23 34.7452 33.7452 24 47 24V24Z" fill="#246BFD"/>
<path d="M33 48C33 46.0452 34.5847 44.4604 36.5395 44.4605L57.4605 44.4605C59.4153 44.4605 61 46.0452 61 48C61 49.9548 59.4153 51.5395 57.4605 51.5395L36.5395 51.5395C34.5847 51.5395 33 49.9548 33 48ZM43.4605 37.5395C43.4605 35.5847 45.0452 34 47 34C48.9548 34 50.5395 35.5847 50.5395 37.5395L50.5395 58.4605C50.5395 60.4153 48.9548 62 47 62C45.0452 62 43.4605 60.4153 43.4605 58.4605L43.4605 37.5395Z" fill="white"/>
</svg>