<svg width="24" height="24" viewBox="0 0 24 24" fill="none" xmlns="http://www.w3.org/2000/svg">
<path d="M19.61 7.25079C19.5594 7.12721 19.4846 7.015 19.39 6.92079L14.76 2.29079C14.5726 2.10454 14.3192 2 14.055 2C13.7908 2 13.5374 2.10454 13.35 2.29079C13.2563 2.38376 13.1819 2.49436 13.1311 2.61622C13.0803 2.73808 13.0542 2.86878 13.0542 3.00079C13.0542 3.1328 13.0803 3.26351 13.1311 3.38537C13.1819 3.50723 13.2563 3.61783 13.35 3.71079L16.27 6.63079H8.26999C7.20912 6.63079 6.19171 7.05222 5.44156 7.80237C4.69142 8.55251 4.26999 9.56993 4.26999 10.6308V21.0008C4.26999 21.266 4.37535 21.5204 4.56288 21.7079C4.75042 21.8954 5.00477 22.0008 5.26999 22.0008C5.53521 22.0008 5.78956 21.8954 5.9771 21.7079C6.16463 21.5204 6.26999 21.266 6.26999 21.0008V10.6308C6.26999 10.1004 6.4807 9.59165 6.85578 9.21658C7.23085 8.84151 7.73956 8.63079 8.26999 8.63079H16.27L13.35 11.5508C13.209 11.6907 13.1128 11.8694 13.0737 12.0641C13.0346 12.2589 13.0545 12.4608 13.1306 12.6443C13.2068 12.8277 13.3359 12.9843 13.5014 13.0941C13.6669 13.2039 13.8614 13.2619 14.06 13.2608C14.3238 13.257 14.5754 13.1492 14.76 12.9608L19.39 8.34079C19.4822 8.24086 19.5566 8.12586 19.61 8.00079C19.7073 7.76026 19.7073 7.49133 19.61 7.25079Z" fill="#246BFD"/>
</svg>