<svg width="35" height="30" viewBox="0 0 35 30" fill="none" xmlns="http://www.w3.org/2000/svg">
<mask id="path-1-outside-1_4385_39499" maskUnits="userSpaceOnUse" x="0" y="0.25" width="35" height="29" fill="black">
<rect fill="white" y="0.25" width="35" height="29"/>
<path fill-rule="evenodd" clip-rule="evenodd" d="M29 1.25C31.7614 1.25 34 3.48858 34 6.25V23.25C34 26.0114 31.7614 28.25 29 28.25H6C3.23858 28.25 1 26.0114 1 23.25V6.25C1 3.48858 3.23858 1.25 6 1.25H29ZM31.9412 21.574L26.8789 17.5317C26.5198 17.2449 26.0168 17.2425 25.6569 17.5116L25.5625 17.5917L17.5114 25.3192L13.9134 21.9783C13.5649 21.6547 13.0427 21.6247 12.6619 21.8901L12.5618 21.9698L7.833 26.25H29C30.6569 26.25 32 24.9069 32 23.25V21.615L31.9412 21.574ZM6 3.25H29C30.6569 3.25 32 4.59315 32 6.25V19.062L28.1269 15.9688L27.9708 15.8522C26.8058 15.0388 25.2156 15.1525 24.1776 16.1487L17.4886 22.5688L15.2743 20.5127L15.1286 20.3858C13.9882 19.4547 12.325 19.4862 11.2194 20.4873L5.03085 26.09C3.84957 25.687 3 24.5677 3 23.25V6.25C3 4.59315 4.34315 3.25 6 3.25Z"/>
</mask>
<path fill-rule="evenodd" clip-rule="evenodd" d="M29 1.25C31.7614 1.25 34 3.48858 34 6.25V23.25C34 26.0114 31.7614 28.25 29 28.25H6C3.23858 28.25 1 26.0114 1 23.25V6.25C1 3.48858 3.23858 1.25 6 1.25H29ZM31.9412 21.574L26.8789 17.5317C26.5198 17.2449 26.0168 17.2425 25.6569 17.5116L25.5625 17.5917L17.5114 25.3192L13.9134 21.9783C13.5649 21.6547 13.0427 21.6247 12.6619 21.8901L12.5618 21.9698L7.833 26.25H29C30.6569 26.25 32 24.9069 32 23.25V21.615L31.9412 21.574ZM6 3.25H29C30.6569 3.25 32 4.59315 32 6.25V19.062L28.1269 15.9688L27.9708 15.8522C26.8058 15.0388 25.2156 15.1525 24.1776 16.1487L17.4886 22.5688L15.2743 20.5127L15.1286 20.3858C13.9882 19.4547 12.325 19.4862 11.2194 20.4873L5.03085 26.09C3.84957 25.687 3 24.5677 3 23.25V6.25C3 4.59315 4.34315 3.25 6 3.25Z" fill="white"/>
<path d="M26.8789 17.5317L26.2549 18.3131L26.2549 18.3131L26.8789 17.5317ZM31.9412 21.574L31.3172 22.3555L31.3428 22.3759L31.3696 22.3946L31.9412 21.574ZM25.6569 17.5116L25.0582 16.7106L25.0335 16.729L25.01 16.749L25.6569 17.5116ZM25.5625 17.5917L24.9156 16.8291L24.8922 16.849L24.87 16.8702L25.5625 17.5917ZM17.5114 25.3192L16.8309 26.052L17.5227 26.6943L18.2038 26.0406L17.5114 25.3192ZM13.9134 21.9783L14.5939 21.2455L14.5939 21.2455L13.9134 21.9783ZM12.6619 21.8901L12.0901 21.0697L12.0639 21.088L12.039 21.1078L12.6619 21.8901ZM12.5618 21.9698L11.9389 21.1875L11.9142 21.2072L11.8907 21.2284L12.5618 21.9698ZM7.833 26.25L7.16194 25.5086L5.23802 27.25H7.833V26.25ZM32 21.615H33V21.0929L32.5716 20.7945L32 21.615ZM32 19.062L31.376 19.8434L33 21.1404V19.062H32ZM28.1269 15.9688L28.751 15.1874L28.7384 15.1774L28.7255 15.1678L28.1269 15.9688ZM27.9708 15.8522L28.5694 15.0511L28.5565 15.0415L28.5433 15.0322L27.9708 15.8522ZM24.1776 16.1487L24.87 16.8702L24.1776 16.1487ZM17.4886 22.5688L16.8082 23.3016L17.5 23.944L18.1811 23.2903L17.4886 22.5688ZM15.2743 20.5127L15.9547 19.7799L15.9431 19.7691L15.9311 19.7587L15.2743 20.5127ZM15.1286 20.3858L15.7854 19.6317L15.7734 19.6213L15.761 19.6112L15.1286 20.3858ZM11.2194 20.4873L11.8906 21.2286L11.8906 21.2285L11.2194 20.4873ZM5.03085 26.09L4.70796 27.0364L5.26538 27.2266L5.702 26.8313L5.03085 26.09ZM35 6.25C35 2.93629 32.3137 0.25 29 0.25V2.25C31.2091 2.25 33 4.04086 33 6.25H35ZM35 23.25V6.25H33V23.25H35ZM29 29.25C32.3137 29.25 35 26.5637 35 23.25H33C33 25.4591 31.2091 27.25 29 27.25V29.25ZM6 29.25H29V27.25H6V29.25ZM0 23.25C0 26.5637 2.68629 29.25 6 29.25V27.25C3.79086 27.25 2 25.4591 2 23.25H0ZM0 6.25V23.25H2V6.25H0ZM6 0.25C2.68629 0.25 0 2.93629 0 6.25H2C2 4.04086 3.79086 2.25 6 2.25V0.25ZM29 0.25H6V2.25H29V0.25ZM26.2549 18.3131L31.3172 22.3555L32.5652 20.7926L27.5029 16.7503L26.2549 18.3131ZM26.2555 18.3126L26.2549 18.3131L27.5029 16.7503C26.7842 16.1764 25.7787 16.1721 25.0582 16.7106L26.2555 18.3126ZM26.2094 18.3542L26.3038 18.2741L25.01 16.749L24.9156 16.8291L26.2094 18.3542ZM18.2038 26.0406L26.2549 18.3131L24.87 16.8702L16.8189 24.5977L18.2038 26.0406ZM13.233 22.7111L16.8309 26.052L18.1918 24.5864L14.5939 21.2455L13.233 22.7111ZM13.2337 22.7105L13.233 22.7111L14.5939 21.2455C13.8965 20.598 12.8524 20.5384 12.0901 21.0697L13.2337 22.7105ZM13.1847 22.7521L13.2848 22.6724L12.039 21.1078L11.9389 21.1875L13.1847 22.7521ZM8.50406 26.9914L13.2328 22.7112L11.8907 21.2284L7.16194 25.5086L8.50406 26.9914ZM29 25.25H7.833V27.25H29V25.25ZM31 23.25C31 24.3546 30.1046 25.25 29 25.25V27.25C31.2091 27.25 33 25.4591 33 23.25H31ZM31 21.615V23.25H33V21.615H31ZM31.3696 22.3946L31.4284 22.4355L32.5716 20.7945L32.5128 20.7535L31.3696 22.3946ZM29 2.25H6V4.25H29V2.25ZM33 6.25C33 4.04086 31.2091 2.25 29 2.25V4.25C30.1046 4.25 31 5.14543 31 6.25H33ZM33 19.062V6.25H31V19.062H33ZM27.5029 16.7502L31.376 19.8434L32.624 18.2806L28.751 15.1874L27.5029 16.7502ZM27.3722 16.6532L27.5283 16.7699L28.7255 15.1678L28.5694 15.0511L27.3722 16.6532ZM24.87 16.8702C25.5618 16.2062 26.6222 16.1302 27.3983 16.6721L28.5433 15.0322C26.9894 13.9473 24.8693 14.0987 23.4851 15.4273L24.87 16.8702ZM18.1811 23.2903L24.87 16.8702L23.4851 15.4273L16.7962 21.8474L18.1811 23.2903ZM14.5939 21.2455L16.8082 23.3016L18.1691 21.836L15.9547 19.7799L14.5939 21.2455ZM14.4718 21.1398L14.6175 21.2668L15.9311 19.7587L15.7854 19.6317L14.4718 21.1398ZM11.8906 21.2285C12.6274 20.5614 13.7365 20.5401 14.4962 21.1604L15.761 19.6112C14.2399 18.3692 12.0225 18.4111 10.5482 19.746L11.8906 21.2285ZM5.702 26.8313L11.8906 21.2286L10.5483 19.7459L4.3597 25.3487L5.702 26.8313ZM2 23.25C2 25.0085 3.13414 26.4995 4.70796 27.0364L5.35373 25.1436C4.565 24.8745 4 24.1269 4 23.25H2ZM2 6.25V23.25H4V6.25H2ZM6 2.25C3.79086 2.25 2 4.04086 2 6.25H4C4 5.14543 4.89543 4.25 6 4.25V2.25Z" fill="black" fill-opacity="0.2" mask="url(#path-1-outside-1_4385_39499)"/>
<path fill-rule="evenodd" clip-rule="evenodd" d="M10.5 13.5C12.0188 13.5 13.25 12.2688 13.25 10.75C13.25 9.23122 12.0188 8 10.5 8C8.98122 8 7.75 9.23122 7.75 10.75C7.75 12.2688 8.98122 13.5 10.5 13.5Z" fill="white"/>
<path d="M10.5 14C12.2949 14 13.75 12.5449 13.75 10.75C13.75 8.95507 12.2949 7.5 10.5 7.5C8.70507 7.5 7.25 8.95507 7.25 10.75C7.25 12.5449 8.70507 14 10.5 14Z" stroke="black" stroke-opacity="0.2"/>
</svg>
