<svg width="29" height="38" viewBox="0 0 29 38" fill="none" xmlns="http://www.w3.org/2000/svg">
<g clip-path="url(#clip0_814_74364)">
<path d="M28.2681 8.14863L20.3514 0.231934C20.2029 0.0834961 20.002 0 19.7916 0H3.16662C1.42099 0 0 1.42018 0 3.16669V34.8334C0 36.5798 1.42099 38 3.16669 38H25.3334C27.079 38 28.5 36.5798 28.5 34.8333V8.70831C28.5 8.49805 28.4165 8.29706 28.2681 8.14863ZM20.5833 2.70282L25.7972 7.91669H22.1666C21.293 7.91669 20.5833 7.2062 20.5833 6.33338V2.70282ZM26.9167 34.8333C26.9167 35.7061 26.2069 36.4166 25.3334 36.4166H3.16669C2.29306 36.4166 1.58338 35.7061 1.58338 34.8333V3.16669C1.58338 2.29388 2.29314 1.58338 3.16669 1.58338H19V6.33338C19 8.07982 20.421 9.5 22.1667 9.5H26.9167V34.8333Z" fill="#246BFD"/>
<path d="M22.9583 22.1667H5.54169C5.1041 22.1667 4.75 22.5208 4.75 22.9584C4.75 23.396 5.1041 23.7501 5.54169 23.7501H22.9584C23.396 23.7501 23.7501 23.396 23.7501 22.9584C23.75 22.5208 23.3959 22.1667 22.9583 22.1667Z" fill="#246BFD"/>
<path d="M22.9583 17.4167H5.54169C5.1041 17.4167 4.75 17.7708 4.75 18.2084C4.75 18.646 5.1041 19.0001 5.54169 19.0001H22.9584C23.396 19.0001 23.7501 18.646 23.7501 18.2084C23.75 17.7708 23.3959 17.4167 22.9583 17.4167Z" fill="#246BFD"/>
<path d="M22.9583 26.9167H5.54169C5.1041 26.9167 4.75 27.2708 4.75 27.7084C4.75 28.146 5.1041 28.5001 5.54169 28.5001H22.9584C23.396 28.5001 23.7501 28.146 23.7501 27.7084C23.75 27.2708 23.3959 26.9167 22.9583 26.9167Z" fill="#246BFD"/>
<path d="M15.0417 31.6667H5.54169C5.1041 31.6667 4.75 32.0208 4.75 32.4584C4.75 32.896 5.1041 33.2501 5.54169 33.2501H15.0417C15.4793 33.2501 15.8334 32.896 15.8334 32.4584C15.8333 32.0208 15.4793 31.6667 15.0417 31.6667Z" fill="#246BFD"/>
<path d="M12.6665 13.4584C12.6665 13.896 13.0206 14.2501 13.4582 14.2501H22.9582C23.3958 14.2501 23.7499 13.896 23.7499 13.4584C23.7499 13.0208 23.3958 12.6667 22.9582 12.6667H13.4582C13.0206 12.6668 12.6665 13.0209 12.6665 13.4584Z" fill="#246BFD"/>
<path d="M7.125 12.6669H5.54169C5.1041 12.6669 4.75 13.021 4.75 13.4586C4.75 13.8962 5.1041 14.2503 5.54169 14.2503H6.33338C6.33338 14.6879 6.68748 15.042 7.12507 15.042C7.56267 15.042 7.91677 14.6879 7.91677 14.2503V14.1044C8.83619 13.7765 9.5 12.906 9.5 11.8752C9.5 10.5655 8.43466 9.50021 7.125 9.50021C6.68896 9.50021 6.33331 9.14537 6.33331 8.70851C6.33331 8.27174 6.68896 7.91682 7.125 7.91682H8.70831C9.1459 7.91682 9.5 7.56272 9.5 7.12513C9.5 6.68754 9.1459 6.33344 8.70831 6.33344H7.91662C7.91662 5.89585 7.56252 5.54175 7.12493 5.54175C6.68733 5.54175 6.33323 5.89585 6.33323 6.33344V6.47928C5.41381 6.80725 4.75 7.67776 4.75 8.70851C4.75 10.0182 5.81534 11.0835 7.125 11.0835C7.56104 11.0835 7.91669 11.4384 7.91669 11.8752C7.91669 12.3121 7.56104 12.6669 7.125 12.6669Z" fill="#246BFD"/>
</g>
<defs>
<clipPath id="clip0_814_74364">
<rect width="29" height="38" fill="white"/>
</clipPath>
</defs>
</svg>
