<svg width="40" height="40" viewBox="0 0 40 40" fill="none" xmlns="http://www.w3.org/2000/svg">
<g clip-path="url(#clip0_814_74088)">
<path d="M32.6527 22.1714C32.7791 20.2655 32.4716 18.3561 31.7534 16.5863C31.0349 14.8165 29.9246 13.2322 28.5055 11.9529C30.6037 6.27843 26.0724 -0.112833 19.9995 0.00152015C13.9275 -0.11313 9.39331 6.27873 11.4935 11.9529C10.0744 13.2322 8.96412 14.8165 8.24565 16.5863C7.52747 18.3561 7.21996 20.2655 7.3463 22.1714C-0.570025 23.6372 -2.70149 34.071 3.99294 38.5109C6.34594 40.0586 9.28597 40.4227 11.9459 39.4954C14.6055 38.5684 16.681 36.4558 17.5602 33.7817C19.1711 34.1009 20.8292 34.1009 22.4402 33.7817C23.319 36.4555 25.3939 38.5675 28.0529 39.4951C30.7117 40.4224 33.6514 40.0594 36.0043 38.5127C42.7024 34.077 40.5705 23.6346 32.654 22.1716L32.6527 22.1714ZM19.999 1.33632C27.1118 1.33781 30.3496 10.2772 24.9931 14.8208C24.5887 13.7133 23.8252 12.7729 22.8243 12.1496C23.4849 11.4864 23.895 10.6148 23.9853 9.68355C24.8048 9.1773 24.8456 7.60255 24.4609 6.8816C24.6793 6.42538 24.7172 5.90335 24.5673 5.42032C24.4171 4.9373 24.0899 4.52875 23.6509 4.27618C23.2123 4.02395 22.6944 3.94653 22.2009 4.05969C21.9383 3.7482 21.587 3.52366 21.1939 3.41586C20.8006 3.30806 20.384 3.32205 19.999 3.45577C19.614 3.32235 19.1973 3.30865 18.8043 3.41646C18.4113 3.52426 18.0599 3.7485 17.7971 4.05969C17.3036 3.94653 16.7857 4.02396 16.347 4.27618C15.9081 4.52842 15.5809 4.93699 15.431 5.42032C15.2808 5.90334 15.3186 6.42541 15.5374 6.8816C15.1532 7.60077 15.1935 9.17193 16.0085 9.68027H16.0082C16.091 10.6192 16.505 11.4986 17.1758 12.1612C16.1769 12.7824 15.4134 13.7187 15.0063 14.822C9.64561 10.2764 12.889 1.3367 19.9989 1.33594L19.999 1.33632ZM22.669 6.67279C22.3862 6.67071 22.1353 6.49054 22.0432 6.22342C21.9488 5.9566 21.6967 5.77792 21.4136 5.77703C21.0235 5.79489 20.7604 6.18709 20.3354 5.91103V5.91133C20.1274 5.79013 19.8705 5.79013 19.6625 5.91133C19.1875 6.23355 18.8445 5.6311 18.3752 5.81097C18.1785 5.8756 18.023 6.02807 17.9547 6.22342C17.8725 6.45808 17.6657 6.62753 17.4192 6.66207C17.1725 6.69662 16.9272 6.5906 16.7836 6.3875C16.6397 6.18411 16.6215 5.91758 16.7365 5.69692C16.8512 5.47596 17.0798 5.33778 17.3289 5.33867C17.6683 5.34016 17.9291 5.68888 18.2852 5.53343C18.4819 5.46881 18.6374 5.31634 18.7057 5.12098C18.7703 4.93457 18.9149 4.78656 19.1002 4.71777C19.2856 4.64898 19.4918 4.66685 19.6625 4.76601C19.8705 4.88721 20.1274 4.88721 20.3354 4.76601C20.5062 4.66714 20.7124 4.64987 20.8974 4.71836C21.0825 4.78715 21.2273 4.93486 21.2923 5.12098C21.3623 5.31514 21.5179 5.46641 21.7139 5.53104C21.91 5.59566 22.1249 5.56648 22.2968 5.45212C22.4068 5.37767 22.5364 5.33806 22.669 5.33866C23.0338 5.34402 23.3267 5.64122 23.3267 6.00572C23.3267 6.37021 23.0338 6.66742 22.669 6.67278L22.669 6.67279ZM16.6614 7.88394C17.0455 8.02271 17.4633 8.03969 17.8573 7.93248C18.2515 7.82528 18.6029 7.59895 18.8634 7.28448C19.24 7.37412 19.6346 7.35208 19.9991 7.22135C20.3635 7.35208 20.7581 7.37411 21.1347 7.28448C21.3952 7.59895 21.7465 7.82528 22.1408 7.93248C22.5348 8.03968 22.9526 8.02271 23.3367 7.88394C23.3245 8.12545 23.4172 8.56827 23.1093 8.65376C22.8396 8.77616 22.6674 9.04536 22.6692 9.34107C22.6692 10.054 22.3837 10.7371 21.8762 11.2383C21.369 11.7398 20.6821 12.0174 19.9687 12.0093C19.2553 12.0013 18.5749 11.7082 18.0791 11.1957C17.5832 10.6832 17.3129 9.9938 17.329 9.28123C17.329 9.0004 17.1532 8.74966 16.8889 8.65377C16.5813 8.56771 16.6728 8.12548 16.6615 7.88395L16.6614 7.88394ZM18.4202 13.0098C19.4277 13.45 20.5736 13.4488 21.5802 13.0069C22.7028 13.4836 23.5419 14.4521 23.8536 15.6307C22.6819 16.3094 21.3516 16.6668 19.9975 16.6668C18.6434 16.6665 17.3134 16.3085 16.1421 15.6293C16.4591 14.453 17.2989 13.4875 18.4202 13.0099V13.0098ZM5.12794 37.6422C5.44441 36.468 6.28209 35.5034 7.40076 35.0252C8.4131 35.4642 9.56213 35.4633 10.5739 35.0231C11.6928 35.5011 12.5287 36.468 12.8395 37.6437C11.6678 38.3224 10.3378 38.6797 8.98342 38.6797C7.62932 38.6795 6.29933 38.3215 5.12794 37.6423V37.6422ZM11.655 28.6861C11.3722 28.684 11.1213 28.5038 11.0292 28.2367C10.9347 27.9699 10.6826 27.7912 10.3995 27.7903C10.0095 27.8085 9.74603 28.1995 9.32137 27.9243V27.9246C9.11337 27.8034 8.85649 27.8034 8.64849 27.9246C8.17289 28.2466 7.82993 27.6441 7.36115 27.8243C7.16447 27.8889 7.00892 28.0414 6.94068 28.2367C6.85843 28.4714 6.65162 28.6408 6.40518 28.6754C6.15844 28.7099 5.91319 28.6039 5.76955 28.4008C5.62562 28.1974 5.60744 27.9309 5.72247 27.7102C5.8372 27.4893 6.06576 27.3511 6.31489 27.352C6.6543 27.3535 6.91535 27.7019 7.27115 27.5467C7.46782 27.4821 7.62338 27.3296 7.69162 27.1343C7.75628 26.9479 7.90081 26.7999 8.08617 26.7311C8.27152 26.6623 8.47773 26.6802 8.64849 26.7793C8.85649 26.9005 9.11337 26.9005 9.32136 26.7793C9.49212 26.6804 9.69833 26.6632 9.88339 26.7317C10.0684 26.8005 10.2133 26.9482 10.2782 27.1343C10.3483 27.3284 10.5038 27.4797 10.6999 27.5443C10.896 27.609 11.1108 27.5798 11.2828 27.4654C11.3927 27.391 11.5224 27.3514 11.655 27.352C12.0197 27.3573 12.3127 27.6545 12.3127 28.019C12.3127 28.3835 12.0197 28.6807 11.655 28.6861L11.655 28.6861ZM5.64738 29.8972C6.0315 30.036 6.44931 30.053 6.84326 29.9458C7.23751 29.8386 7.58884 29.6123 7.84933 29.2978C8.226 29.388 8.62083 29.366 8.98502 29.2347C9.34917 29.366 9.74402 29.388 10.1207 29.2978C10.3812 29.6123 10.7325 29.8386 11.1268 29.9458C11.5207 30.053 11.9386 30.036 12.3227 29.8972C12.3104 30.1394 12.4031 30.5813 12.0953 30.6671C11.8256 30.7895 11.6534 31.0587 11.6551 31.3544C11.6554 32.0676 11.37 32.751 10.8628 33.2525C10.3553 33.754 9.6684 34.0318 8.95466 34.0238C8.24125 34.0157 7.56066 33.7227 7.06449 33.2099C6.56862 32.6971 6.29864 32.0074 6.31503 31.2945C6.31503 31.0136 6.13921 30.7629 5.87489 30.667C5.56766 30.5812 5.65885 30.1384 5.64752 29.8972L5.64738 29.8972ZM13.9787 36.8343C13.5755 35.7305 12.8159 34.7924 11.8194 34.1685C12.478 33.5026 12.885 32.6292 12.9709 31.6971C13.7903 31.1908 13.8312 29.6161 13.4465 28.8951C13.6649 28.4389 13.7028 27.9169 13.5529 27.4339C13.4027 26.9508 13.0755 26.5423 12.6365 26.2897C12.1978 26.0375 11.6799 25.9601 11.1864 26.0732C10.9239 25.7617 10.5726 25.5372 10.1795 25.4294C9.78617 25.3216 9.36958 25.3356 8.98456 25.4693C8.59954 25.3359 8.18293 25.3222 7.7899 25.43C7.39684 25.5378 7.0455 25.762 6.78268 26.0732C6.28919 25.9601 5.77126 26.0375 5.33261 26.2897C4.89366 26.542 4.56646 26.9505 4.41655 27.4339C4.26636 27.9169 4.30421 28.4389 4.52294 28.8951C4.13882 29.6143 4.17905 31.1855 4.99407 31.6938H4.99377C5.07661 32.6327 5.48845 33.5124 6.15715 34.1774C5.16008 34.7986 4.39835 35.734 3.99189 36.8355C-1.36759 32.2906 1.87317 23.3502 8.98481 23.3495C16.095 23.3501 19.337 32.2896 13.9786 36.834L13.9787 36.8343ZM17.8661 32.4842C18.3005 29.8249 17.5204 27.1108 15.7405 25.087C13.9602 23.0632 11.3671 21.942 8.67232 22.0314C8.47475 18.7559 9.71112 15.5564 12.0605 13.2643C13.099 15.178 14.7947 16.6518 16.8347 17.4141C18.8748 18.1768 21.1223 18.1768 23.1624 17.4141C25.2025 16.6518 26.8981 15.178 27.9366 13.2643C30.286 15.5567 31.5224 18.7562 31.3248 22.0314C28.63 21.942 26.0369 23.0632 24.2566 25.087C22.4767 27.1108 21.6968 29.8249 22.1311 32.4842C20.7221 32.7522 19.275 32.7522 17.8661 32.4842H17.8661ZM27.1556 37.6426C27.4726 36.4663 28.3124 35.5008 29.4337 35.0232C30.4412 35.4634 31.5871 35.4622 32.594 35.0202C33.7163 35.497 34.5554 36.4657 34.8671 37.6441C33.6954 38.3228 32.3654 38.6801 31.011 38.6801C29.6569 38.6799 28.3269 38.3219 27.1556 37.6427V37.6426ZM33.6826 28.6865C33.3998 28.6844 33.1489 28.5042 33.0568 28.2371C32.9624 27.9703 32.7103 27.7916 32.4272 27.7907C32.0371 27.8089 31.7736 28.1999 31.349 27.9247V27.925C31.141 27.8038 30.8841 27.8038 30.6761 27.925C30.2017 28.2469 29.8572 27.6445 29.3888 27.8247C29.1921 27.8893 29.0365 28.0418 28.9683 28.2371C28.886 28.4718 28.6792 28.6412 28.4328 28.6758C28.1861 28.7103 27.9408 28.6043 27.7972 28.4012C27.6532 28.1978 27.6351 27.9313 27.7501 27.7106C27.8648 27.4896 28.0934 27.3515 28.3425 27.3524C28.6819 27.3539 28.943 27.7023 29.2988 27.5471C29.4954 27.4825 29.651 27.33 29.7192 27.1347C29.7839 26.9483 29.9284 26.8003 30.1138 26.7315C30.2991 26.6627 30.5054 26.6805 30.6761 26.7797C30.8841 26.9009 31.141 26.9009 31.349 26.7797C31.5197 26.6808 31.7259 26.6636 31.911 26.7321C32.0961 26.8008 32.2409 26.9485 32.3059 27.1347C32.3759 27.3288 32.5314 27.4801 32.7275 27.5447C32.9236 27.6093 33.1384 27.5802 33.3104 27.4658C33.4204 27.3914 33.55 27.3518 33.6826 27.3523C34.0473 27.3577 34.3403 27.6549 34.3403 28.0194C34.3403 28.3839 34.0473 28.6811 33.6826 28.6865L33.6826 28.6865ZM27.675 29.8976C28.0591 30.0364 28.4769 30.0534 28.8709 29.9462C29.2651 29.839 29.6165 29.6126 29.877 29.2982C30.2536 29.3884 30.6484 29.3664 31.0126 29.235C31.3768 29.3664 31.7716 29.3884 32.1483 29.2982C32.4088 29.6126 32.7601 29.839 33.1544 29.9462C33.5484 30.0534 33.9662 30.0364 34.3503 29.8976C34.3381 30.1391 34.4307 30.582 34.1229 30.6674C33.8532 30.7898 33.681 31.059 33.6828 31.3548C33.6828 32.0677 33.3973 32.7508 32.8898 33.252C32.3826 33.7535 31.6957 34.0311 30.9823 34.023C30.2689 34.0149 29.5885 33.7219 29.0926 33.2094C28.5968 32.6969 28.3265 32.0075 28.3426 31.2949C28.3426 31.0141 28.1668 30.7633 27.9024 30.6675C27.5949 30.5814 27.6864 30.1392 27.6751 29.8976L27.675 29.8976ZM36.0063 36.8347C35.6019 35.7273 34.8384 34.7868 33.8375 34.1635C34.4981 33.5003 34.9082 32.6287 34.9985 31.6975C35.818 31.1912 35.8588 29.6165 35.4741 28.8955C35.6925 28.4393 35.7304 27.9173 35.5805 27.4342C35.4303 26.9512 35.1031 26.5427 34.6641 26.2901C34.2255 26.0379 33.7076 25.9604 33.2141 26.0736C32.9515 25.7621 32.6002 25.5376 32.2071 25.4298C31.8138 25.322 31.3972 25.336 31.0122 25.4697C30.6272 25.3363 30.2105 25.3226 29.8175 25.4304C29.4245 25.5382 29.0731 25.7624 28.8103 26.0736C28.3168 25.9604 27.7989 26.0379 27.3602 26.2901C26.9213 26.5423 26.5941 26.9509 26.4442 27.4342C26.294 27.9173 26.3318 28.4393 26.5506 28.8955C26.1664 29.6147 26.2067 31.1859 27.0217 31.6942H27.0214C27.1042 32.6331 27.5182 33.5126 28.189 34.1751C27.1901 34.7963 26.4266 35.7326 26.0195 36.8359C20.66 32.291 23.9008 23.3506 31.0124 23.3499C38.1226 23.3505 41.3646 32.29 36.0063 36.8343L36.0063 36.8347Z" fill="#246BFD"/>
</g>
<defs>
<clipPath id="clip0_814_74088">
<rect width="40" height="40" fill="white"/>
</clipPath>
</defs>
</svg>
