<svg width="40" height="40" viewBox="0 0 40 40" fill="none" xmlns="http://www.w3.org/2000/svg">
<path d="M39.9996 15.4546C39.9993 15.1736 39.8699 14.9084 39.6473 14.7364C39.6473 14.7364 37.4404 13.1813 34.5452 10.9092V7.27286C34.5452 5.26738 32.8859 3.63648 30.8804 3.63648H25.6141C24.3187 2.57856 23.1946 1.64328 22.4438 0.977571C21.7134 0.331977 20.8413 -0.00679995 19.9711 0.000103436C19.1195 0.00692159 18.2698 0.345699 17.5566 0.977571C16.8058 1.64328 15.6818 2.57856 14.3855 3.63648H9.06227C7.05679 3.63648 5.45435 5.2673 5.45435 7.27286V10.9092C2.58885 13.159 0.35318 14.7356 0.352243 14.7364C0.12963 14.9084 0.000255681 15.1736 0 15.4546V36.3636C0 38.3691 1.63082 40 3.63638 40H36.3635C38.369 40 39.9999 38.3692 39.9999 36.3636V15.4546H39.9996ZM34.5453 13.0408C35.8302 14.0468 36.9198 14.8959 37.6366 15.4537C36.9208 16.0092 35.8292 16.8582 34.5453 17.8621V13.0408ZM18.7907 2.33856C19.2737 1.91243 20.3888 1.56172 21.2668 2.33941C21.6759 2.70129 22.1919 3.14106 22.7847 3.63648H17.2727C17.8655 3.14097 18.3816 2.70086 18.7907 2.33856ZM7.27267 7.27286C7.27267 6.27059 8.08855 5.45471 9.09082 5.45471H30.9089C31.9112 5.45471 32.7271 6.27059 32.7271 7.27286V19.287C28.6639 22.4784 23.5798 26.5226 21.2668 28.5698C21.0475 28.7642 20.5902 29.091 19.9999 29.091C19.5684 29.091 19.152 28.9161 18.7614 28.5698C16.427 26.5028 11.3297 22.4419 7.27267 19.2501V7.27286ZM5.45452 13.0859V17.8228C4.19572 16.8369 3.12485 16.0026 2.4201 15.4546C3.1257 14.9054 4.19572 14.0717 5.45452 13.0859ZM38.21 36.3636C38.21 37.3659 37.3942 38.1818 36.3919 38.1818H3.66476C2.66249 38.1818 1.81815 37.3659 1.81815 36.3636V17.3107C5.60989 20.2621 14.4108 27.1456 17.5558 29.9316C18.2785 30.5708 19.1236 30.9091 19.9999 30.9091C20.8823 30.9091 21.7603 30.562 22.4723 29.9316C25.7462 27.0332 34.6883 20.0473 38.21 17.3102V36.3636H38.21Z" fill="#246BFD"/>
</svg>
