<svg width="42" height="40" viewBox="0 0 42 40" fill="none" xmlns="http://www.w3.org/2000/svg">
<path d="M2.00055 21.1007C2.17232 21.2226 2.3922 21.2591 2.59419 21.203C5.86869 20.3421 6.02011 16.3041 3.23472 14.5925C3.01669 14.4469 2.73327 14.4354 2.50322 14.5624C-0.182806 15.962 -0.526386 19.3953 2.00055 21.1008V21.1007ZM2.80944 15.9755C4.18826 17.0769 4.2447 19.1129 2.53806 19.7931C1.22864 18.704 1.42356 16.9324 2.80944 15.9755Z" fill="#246BFD"/>
<path d="M28.2443 13.3426C27.0798 13.3426 25.9555 13.5031 24.8767 13.7761C25.3933 7.83137 21.3251 2.04095 15.5309 0.318942C15.2269 0.22664 14.8966 0.35001 14.7329 0.617567C14.5694 0.885119 14.6141 1.22748 14.8414 1.44591C17.5793 4.07927 18.5803 8.23703 17.3313 11.7934C17.0519 12.5955 16.3136 13.2525 15.3567 13.5498C12.0949 14.64 10.2159 10.5346 12.5824 8.58907C13.2254 8.15531 12.6965 7.13996 11.9573 7.39942C5.72908 9.55255 4.52482 17.6805 9.88834 21.4658C11.1253 22.3295 11.4303 24.2913 10.5289 25.5805C8.11015 28.5655 3.78873 26.6673 3.1266 23.0512C3.00849 22.3741 1.96 22.3282 1.78544 23.0012C1.08479 25.4029 -0.18824 31.429 3.10939 35.5178C7.19058 40.5455 16.0347 40.4978 21.827 38.0998C30.5523 42.902 41.8528 36.3621 41.7139 26.5176C41.7139 19.2526 35.6713 13.3423 28.2439 13.3423L28.2443 13.3426ZM4.19458 34.6808C1.99329 31.9519 2.14068 28.1225 2.62029 25.4724C4.48384 28.8553 9.38758 29.4827 11.6692 26.3453C12.995 24.4498 12.5383 21.656 10.691 20.3665C7.14642 17.9567 6.88645 12.5688 10.2534 9.8993C9.23821 15.3985 16.5929 17.0202 18.6392 12.2307C19.7469 9.07668 19.2948 5.5044 17.5608 2.66618C21.5988 4.94873 24.06 9.62077 23.4417 14.2229C13.5109 17.8574 11.6983 31.192 20.3883 37.199C14.764 39.1575 7.52071 38.7953 4.19466 34.6809L4.19458 34.6808ZM28.2443 38.3422C21.5785 38.3422 16.1559 33.0378 16.1559 26.5182C16.8202 10.8317 39.6719 10.8364 40.3335 26.5182C40.3335 33.0379 34.9105 38.3422 28.2451 38.3422H28.2443Z" fill="#246BFD"/>
<path d="M28.5899 30.9102C24.9383 31.0236 24.9392 36.2027 28.5899 36.3156C32.2416 36.2021 32.2406 31.023 28.5899 30.9102ZM28.5899 34.9642C26.7683 34.9175 26.7686 32.308 28.5899 32.2615C30.4116 32.3083 30.4112 34.9177 28.5899 34.9642Z" fill="#246BFD"/>
<path d="M29.7269 16.7279H26.8903C25.2331 16.6893 23.8521 18.282 24.1648 19.875L25.5464 27.9831C26.0201 31.0988 31.2482 30.9877 31.5523 27.8371L32.4734 19.729C32.6853 18.1782 31.3269 16.6924 29.7272 16.7277L29.7269 16.7279ZM31.1005 19.58L30.1793 27.6881C30.1013 28.3737 29.511 28.8904 28.806 28.8904H28.2716C27.5931 28.8904 27.0201 28.4153 26.9085 27.7614L25.5269 19.6533C25.3712 18.857 26.061 18.06 26.89 18.0799H29.7266C30.5275 18.0606 31.2078 18.8045 31.1001 19.5806L31.1005 19.58Z" fill="#246BFD"/>
</svg>
