<svg width="32" height="32" viewBox="0 0 32 32" fill="#000" xmlns="http://www.w3.org/2000/svg">
<path d="M27.6455 22.0455L18.8524 6.63146C17.984 5.09006 15.9214 4.53956 14.4016 5.42036C13.8588 5.75066 13.4246 6.19106 13.2075 6.63146L4.41447 22.0455C3.54602 23.5869 4.0888 25.6788 5.60858 26.5596C6.15136 26.8899 6.69414 27 7.23692 27H24.7144C26.5599 27 27.9711 25.4586 27.9711 23.697C28.0797 23.0364 27.8626 22.4859 27.6455 22.0455ZM16.03 22.596C15.3786 22.596 14.9444 22.1556 14.9444 21.495C14.9444 20.8344 15.3786 20.394 16.03 20.394C16.6813 20.394 17.1155 20.8344 17.1155 21.495C17.1155 22.1556 16.6813 22.596 16.03 22.596ZM17.1155 17.091C17.1155 17.7516 16.6813 18.192 16.03 18.192C15.3786 18.192 14.9444 17.7516 14.9444 17.091V12.687C14.9444 12.0264 15.3786 11.586 16.03 11.586C16.6813 11.586 17.1155 12.0264 17.1155 12.687V17.091Z" fill="#000"/>
</svg>