<svg width="32" height="32" viewBox="0 0 32 32" fill="#000" xmlns="http://www.w3.org/2000/svg">
<path d="M8.00103 26.9771C7.60678 26.9781 7.21624 26.901 6.852 26.7501C6.48777 26.5992 6.15706 26.3776 5.87903 26.0981L4.33503 24.7241C4.13691 24.5475 4.01708 24.2994 4.00189 24.0344C3.9867 23.7694 4.07739 23.5092 4.25403 23.3111C4.43066 23.113 4.67876 22.9932 4.94375 22.978C5.20874 22.9628 5.46891 23.0535 5.66703 23.2301L7.25203 24.6441C7.34276 24.746 7.45339 24.8283 7.5771 24.8858C7.70082 24.9433 7.835 24.975 7.97139 24.9787C8.10777 24.9824 8.24349 24.9582 8.37017 24.9076C8.49686 24.8569 8.61183 24.7809 8.70803 24.6841L12.308 21.2531C12.4021 21.1575 12.5144 21.0817 12.6383 21.0304C12.7622 20.979 12.8951 20.9531 13.0292 20.9542C13.1634 20.9553 13.2959 20.9834 13.4189 21.0368C13.542 21.0901 13.653 21.1677 13.7455 21.2648C13.8379 21.362 13.9099 21.4767 13.9571 21.6023C14.0043 21.7278 14.0258 21.8616 14.0202 21.9956C14.0147 22.1296 13.9822 22.2611 13.9248 22.3823C13.8674 22.5035 13.7862 22.6119 13.686 22.7011L10.101 26.1151C9.8248 26.3897 9.49715 26.6072 9.13682 26.7551C8.77649 26.903 8.39053 26.9785 8.00103 26.9771ZM27.001 25.9771H17.001C16.7358 25.9771 16.4815 25.8717 16.2939 25.6842C16.1064 25.4967 16.001 25.2423 16.001 24.9771C16.001 24.7119 16.1064 24.4575 16.2939 24.27C16.4815 24.0825 16.7358 23.9771 17.001 23.9771H27.001C27.2662 23.9771 27.5206 24.0825 27.7081 24.27C27.8957 24.4575 28.001 24.7119 28.001 24.9771C28.001 25.2423 27.8957 25.4967 27.7081 25.6842C27.5206 25.8717 27.2662 25.9771 27.001 25.9771ZM8.00103 18.9771C7.60678 18.9781 7.21624 18.901 6.852 18.7501C6.48777 18.5992 6.15706 18.3776 5.87903 18.0981L4.29403 16.5131C4.11187 16.3245 4.01108 16.0719 4.01335 15.8097C4.01563 15.5475 4.1208 15.2967 4.30621 15.1113C4.49162 14.9259 4.74243 14.8207 5.00463 14.8184C5.26682 14.8162 5.51943 14.9169 5.70803 15.0991L7.29403 16.6841C7.4844 16.8661 7.73764 16.9677 8.00103 16.9677C8.26442 16.9677 8.51766 16.8661 8.70803 16.6841L12.308 13.2531C12.5 13.0698 12.757 12.9704 13.0224 12.9765C13.2877 12.9827 13.5398 13.0941 13.723 13.2861C13.9063 13.4781 14.0058 13.7351 13.9996 14.0004C13.9934 14.2658 13.882 14.5178 13.69 14.7011L10.101 18.1151C9.8248 18.3897 9.49715 18.6072 9.13682 18.7551C8.77649 18.903 8.39053 18.9785 8.00103 18.9771ZM27.001 17.9771H17.001C16.7358 17.9771 16.4815 17.8717 16.2939 17.6842C16.1064 17.4967 16.001 17.2423 16.001 16.9771C16.001 16.7119 16.1064 16.4575 16.2939 16.27C16.4815 16.0825 16.7358 15.9771 17.001 15.9771H27.001C27.2662 15.9771 27.5206 16.0825 27.7081 16.27C27.8957 16.4575 28.001 16.7119 28.001 16.9771C28.001 17.2423 27.8957 17.4967 27.7081 17.6842C27.5206 17.8717 27.2662 17.9771 27.001 17.9771ZM8.00103 10.9771C7.60678 10.9781 7.21624 10.901 6.852 10.7501C6.48777 10.5992 6.15706 10.3776 5.87903 10.0981L4.33503 8.72411C4.13691 8.54747 4.01708 8.29937 4.00189 8.03438C3.9867 7.76939 4.07739 7.50922 4.25403 7.31111C4.43066 7.11299 4.67876 6.99315 4.94375 6.97796C5.20874 6.96277 5.46891 7.05347 5.66703 7.23011L7.25203 8.64411C7.34276 8.746 7.45339 8.82825 7.5771 8.88579C7.70082 8.94334 7.835 8.97495 7.97139 8.9787C8.10777 8.98245 8.24349 8.95825 8.37017 8.90758C8.49686 8.85692 8.61183 8.78087 8.70803 8.68411L12.312 5.25311C12.5058 5.08058 12.7591 4.99012 13.0183 5.00086C13.2776 5.01159 13.5225 5.12266 13.7014 5.31062C13.8802 5.49858 13.9791 5.7487 13.9769 6.00816C13.9748 6.26761 13.8719 6.51609 13.69 6.70111L10.101 10.1151C9.8248 10.3897 9.49715 10.6072 9.13682 10.7551C8.77649 10.903 8.39053 10.9785 8.00103 10.9771ZM27.001 9.97711H17.001C16.7358 9.97711 16.4815 9.87175 16.2939 9.68421C16.1064 9.49668 16.001 9.24232 16.001 8.97711C16.001 8.71189 16.1064 8.45754 16.2939 8.27C16.4815 8.08246 16.7358 7.97711 17.001 7.97711H27.001C27.2662 7.97711 27.5206 8.08246 27.7081 8.27C27.8957 8.45754 28.001 8.71189 28.001 8.97711C28.001 9.24232 27.8957 9.49668 27.7081 9.68421C27.5206 9.87175 27.2662 9.97711 27.001 9.97711Z" fill="#000"/>
</svg>