<svg width="38" height="44" viewBox="0 0 38 44" fill="none" xmlns="http://www.w3.org/2000/svg">
<path fill-rule="evenodd" clip-rule="evenodd" d="M10.0473 0C8.8258 0 7.81295 1.00248 7.81295 2.224V2.36921H2.99156C1.41657 2.36921 0.124512 3.6565 0.124512 5.23033V35.7337C0.124512 37.3075 1.41657 38.5963 2.99156 38.5963H18.8352C18.9014 38.595 18.9671 38.585 19.0308 38.5667C20.5751 41.7782 23.8687 44 27.6719 44C32.9512 44 37.248 39.7181 37.248 34.452C37.248 29.7849 33.8721 25.891 29.4292 25.0656V5.23033C29.4292 3.6565 28.1371 2.36921 26.5621 2.36921H21.7407V2.224C21.7407 1.00248 20.7279 0 19.5064 0H10.0473ZM10.0473 1.51724H19.5064C19.9163 1.51724 20.2235 1.81945 20.2235 2.224V4.02721C20.2235 4.43176 19.9163 4.73249 19.5064 4.73249H10.0473C9.63745 4.73249 9.33168 4.43176 9.33168 4.02721V2.224C9.33168 1.81945 9.63745 1.51724 10.0473 1.51724ZM2.99156 3.88052H7.81295V4.02721C7.81295 5.24873 8.8258 6.24973 10.0473 6.24973H19.5064C20.7279 6.24973 21.7407 5.24873 21.7407 4.02721V3.88052H26.5621C27.3255 3.88052 27.912 4.47347 27.912 5.23033V24.9071C27.8319 24.9051 27.7524 24.9041 27.6719 24.9041C22.3926 24.9041 18.0958 29.186 18.0958 34.452C18.0958 35.3626 18.2235 36.243 18.4633 37.0776H2.99156C2.22821 37.0776 1.64175 36.4906 1.64175 35.7337V5.23033C1.64175 4.47347 2.22821 3.88052 2.99156 3.88052ZM11.5483 9.625C11.4395 9.62868 11.3328 9.65572 11.2354 9.7043C11.138 9.75287 11.0521 9.82184 10.9837 9.90652L8.2056 13.3559L6.76096 11.8609C6.62177 11.7165 6.43112 11.6332 6.23066 11.629C6.0302 11.6249 5.83624 11.7002 5.69119 11.8386C5.61884 11.9077 5.56085 11.9903 5.52055 12.0818C5.48026 12.1733 5.45845 12.2719 5.45639 12.3719C5.45432 12.4718 5.47204 12.5712 5.50852 12.6643C5.545 12.7574 5.59953 12.8424 5.66896 12.9143L7.7122 15.0302C7.78691 15.1078 7.87731 15.1687 7.97737 15.2087C8.07744 15.2487 8.18489 15.2669 8.29255 15.2622C8.40021 15.2574 8.50562 15.2297 8.60177 15.1811C8.69791 15.1324 8.78257 15.0638 8.85013 14.9798L12.1646 10.8592C12.2904 10.7032 12.3493 10.5037 12.3285 10.3044C12.3077 10.1051 12.2088 9.92208 12.0535 9.79539C11.9113 9.67933 11.7318 9.61879 11.5483 9.625ZM15.4688 12.6402C15.3692 12.6398 15.2704 12.6591 15.1783 12.6968C15.0861 12.7346 15.0022 12.7901 14.9315 12.8603C14.8608 12.9305 14.8046 13.0139 14.7661 13.1058C14.7276 13.1977 14.7076 13.2963 14.7072 13.3959C14.7068 13.496 14.7263 13.5952 14.7644 13.6878C14.8025 13.7804 14.8586 13.8645 14.9294 13.9353C15.0002 14.0061 15.0843 14.0621 15.1769 14.1003C15.2695 14.1384 15.3687 14.1578 15.4688 14.1575H23.3365C23.4363 14.1573 23.535 14.1374 23.6271 14.099C23.7191 14.0606 23.8027 14.0044 23.873 13.9337C23.9434 13.863 23.9991 13.779 24.0369 13.6868C24.0748 13.5945 24.094 13.4956 24.0937 13.3959C24.0929 13.1954 24.0128 13.0035 23.8709 12.8619C23.7291 12.7203 23.537 12.6406 23.3365 12.6402H15.4688ZM11.5483 18.3951C11.4395 18.3987 11.3328 18.4258 11.2354 18.4744C11.138 18.5229 11.0521 18.5919 10.9837 18.6766L8.2056 22.1259L6.76096 20.6309C6.62098 20.4874 6.42988 20.4051 6.22943 20.4021C6.02898 20.399 5.83547 20.4754 5.69119 20.6146C5.54686 20.7538 5.46351 20.9445 5.45935 21.1449C5.45518 21.3454 5.53055 21.5393 5.66896 21.6844L7.7122 23.8002C7.78691 23.8779 7.87731 23.9388 7.97737 23.9788C8.07744 24.0188 8.18489 24.037 8.29255 24.0322C8.40021 24.0275 8.50562 23.9998 8.60177 23.9511C8.69791 23.9024 8.78257 23.8338 8.85013 23.7499L12.1646 19.6278C12.2904 19.4718 12.3493 19.2723 12.3285 19.073C12.3077 18.8737 12.2088 18.6907 12.0535 18.564C11.9111 18.4484 11.7316 18.3884 11.5483 18.3951ZM15.4688 21.4088C15.369 21.4084 15.2702 21.4277 15.1779 21.4656C15.0856 21.5034 15.0017 21.5591 14.931 21.6294C14.8602 21.6998 14.8041 21.7833 14.7657 21.8754C14.7273 21.9675 14.7074 22.0662 14.7072 22.1659C14.7068 22.2661 14.7263 22.3653 14.7644 22.4578C14.8025 22.5504 14.8586 22.6345 14.9294 22.7053C15.0002 22.7761 15.0843 22.8322 15.1769 22.8703C15.2695 22.9085 15.3687 22.9279 15.4688 22.9275H23.3365C23.4363 22.9273 23.535 22.9075 23.6271 22.8691C23.7191 22.8307 23.8027 22.7745 23.873 22.7038C23.9434 22.633 23.9991 22.5491 24.0369 22.4568C24.0748 22.3645 24.094 22.2657 24.0937 22.1659C24.0933 21.9653 24.0134 21.7729 23.8715 21.631C23.7296 21.4891 23.5372 21.4092 23.3365 21.4088H15.4688ZM27.6719 26.4213C32.1339 26.4213 35.7352 30.0087 35.7352 34.452C35.7352 38.8954 32.1339 42.4827 27.6719 42.4827C23.21 42.4827 19.6131 38.8954 19.6131 34.452C19.6131 30.0087 23.21 26.4213 27.6719 26.4213ZM11.5483 27.1666C11.4393 27.1707 11.3324 27.1982 11.235 27.2473C11.1375 27.2964 11.0519 27.3659 10.9837 27.4511L8.2056 30.9019L6.76096 29.4069C6.62199 29.2624 6.43144 29.1787 6.23098 29.1743C6.03052 29.1698 5.83645 29.2449 5.69119 29.3831C5.61884 29.4521 5.56085 29.5348 5.52055 29.6263C5.48026 29.7178 5.45845 29.8164 5.45639 29.9163C5.45432 30.0163 5.47204 30.1157 5.50852 30.2088C5.545 30.3019 5.59953 30.3869 5.66896 30.4588L7.7122 32.5703C7.78691 32.648 7.87731 32.7088 7.97737 32.7488C8.07744 32.7888 8.18489 32.8071 8.29255 32.8023C8.40021 32.7975 8.50562 32.7699 8.60177 32.7212C8.69791 32.6725 8.78257 32.6039 8.85013 32.5199L12.1646 28.4038C12.2278 28.3264 12.2751 28.2372 12.3037 28.1415C12.3323 28.0457 12.3418 27.9452 12.3314 27.8458C12.3211 27.7464 12.2912 27.65 12.2435 27.5622C12.1958 27.4744 12.1313 27.3968 12.0535 27.334C11.9108 27.219 11.7314 27.1596 11.5483 27.1666ZM30.4945 30.9968C30.4549 30.9957 30.4153 30.9977 30.376 31.0028C30.1778 31.0262 29.9968 31.1268 29.8722 31.2828L26.2095 35.9189L24.2211 33.8253C24.0836 33.6798 23.8941 33.5945 23.694 33.5882C23.4938 33.5818 23.2993 33.6548 23.1528 33.7912C23.08 33.8598 23.0216 33.9422 22.9808 34.0335C22.94 34.1248 22.9176 34.2232 22.915 34.3232C22.9124 34.4232 22.9296 34.5227 22.9656 34.616C23.0016 34.7093 23.0556 34.7946 23.1247 34.8669L25.7117 37.5991C25.7865 37.6775 25.8771 37.739 25.9776 37.7795C26.0781 37.82 26.1861 37.8384 26.2943 37.8336C26.4026 37.8289 26.5085 37.801 26.6051 37.7518C26.7016 37.7027 26.7865 37.6334 26.8541 37.5487L31.0591 32.2236C31.1835 32.0661 31.2404 31.8657 31.2174 31.6663C31.1943 31.4669 31.0932 31.2847 30.9361 31.1597C30.8099 31.06 30.6553 31.0029 30.4945 30.9968Z" fill="#246BFD"/>
</svg>