<svg width="24" height="25" viewBox="0 0 24 25" fill="none" xmlns="http://www.w3.org/2000/svg">
<path fill-rule="evenodd" clip-rule="evenodd" d="M3.25 10.9167C3.25 6.12281 7.17493 2.25 12 2.25C16.8251 2.25 20.75 6.12281 20.75 10.9167C20.75 13.8982 19.0113 16.8409 17.1686 18.9829C16.236 20.0669 15.2463 20.982 14.3733 21.6328C13.9374 21.9577 13.5186 22.2258 13.1405 22.4162C12.786 22.5947 12.3812 22.75 12 22.75C11.6188 22.75 11.214 22.5947 10.8595 22.4162C10.4814 22.2258 10.0626 21.9577 9.62674 21.6328C8.75371 20.982 7.76395 20.0669 6.83144 18.9829C4.98872 16.8409 3.25 13.8982 3.25 10.9167ZM12 13.5C10.3431 13.5 9 12.1569 9 10.5C9 8.84315 10.3431 7.5 12 7.5C13.6569 7.5 15 8.84315 15 10.5C15 12.1569 13.6569 13.5 12 13.5Z" fill="#001D52"/>
</svg>
