<svg width="90" height="91" viewBox="0 0 90 91" fill="none" xmlns="http://www.w3.org/2000/svg">
<path fill-rule="evenodd" clip-rule="evenodd" d="M30.5253 57.1659V60.125H48.959V52H51.1518C65.5112 52 77.1518 40.3594 77.1518 26C77.1518 11.6406 65.5112 0 51.1518 0H47.4852L30.5253 57.1659Z" fill="#D6E2FF"/>
<path fill-rule="evenodd" clip-rule="evenodd" d="M37.5619 0H13.0121L25.541 40.5966L37.5619 0Z" fill="#00B21D"/>
<path d="M0 86.4468V70.2581H6.36652C7.59045 70.2581 8.63315 70.4926 9.49463 70.9616C10.3561 71.4254 11.0127 72.0709 11.4645 72.8983C11.9215 73.7203 12.15 74.6689 12.15 75.7439C12.15 76.819 11.9188 77.7675 11.4566 78.5896C10.9943 79.4117 10.3246 80.052 9.44735 80.5104C8.57537 80.9689 7.51953 81.1981 6.27985 81.1981H2.22198V78.4552H5.72829C6.38491 78.4552 6.92596 78.3419 7.35144 78.1153C7.78218 77.8835 8.10261 77.5646 8.31272 77.1589C8.52809 76.7478 8.63578 76.2762 8.63578 75.7439C8.63578 75.2064 8.52809 74.7374 8.31272 74.3369C8.10261 73.9311 7.78218 73.6176 7.35144 73.3962C6.9207 73.1696 6.3744 73.0563 5.71253 73.0563H3.41176V86.4468H0Z" fill="white"/>
<path d="M14.6497 86.4468V74.3053H17.9039V76.4237H18.0299C18.2506 75.6702 18.6209 75.101 19.1409 74.7163C19.661 74.3264 20.2598 74.1314 20.9374 74.1314C21.1055 74.1314 21.2867 74.1419 21.4811 74.163C21.6755 74.1841 21.8462 74.2131 21.9933 74.2499V77.2379C21.8357 77.1905 21.6177 77.1483 21.3393 77.1114C21.0609 77.0745 20.8061 77.0561 20.575 77.0561C20.0812 77.0561 19.64 77.1641 19.2512 77.3802C18.8678 77.591 18.5631 77.8861 18.3372 78.2655C18.1166 78.6449 18.0063 79.0823 18.0063 79.5777V86.4468H14.6497Z" fill="white"/>
<path d="M28.9803 86.684C27.7564 86.684 26.6979 86.4231 25.8049 85.9014C24.9172 85.3744 24.2317 84.6419 23.7484 83.7039C23.2651 82.7606 23.0235 81.6672 23.0235 80.4235C23.0235 79.1693 23.2651 78.0732 23.7484 77.1351C24.2317 76.1919 24.9172 75.4594 25.8049 74.9377C26.6979 74.4107 27.7564 74.1472 28.9803 74.1472C30.2042 74.1472 31.26 74.4107 32.1478 74.9377C33.0408 75.4594 33.7289 76.1919 34.2122 77.1351C34.6954 78.0732 34.9371 79.1693 34.9371 80.4235C34.9371 81.6672 34.6954 82.7606 34.2122 83.7039C33.7289 84.6419 33.0408 85.3744 32.1478 85.9014C31.26 86.4231 30.2042 86.684 28.9803 86.684ZM28.996 84.0754C29.5528 84.0754 30.0177 83.9173 30.3907 83.6012C30.7636 83.2797 31.0447 82.8423 31.2338 82.289C31.4281 81.7357 31.5253 81.1059 31.5253 80.3998C31.5253 79.6936 31.4281 79.0639 31.2338 78.5106C31.0447 77.9572 30.7636 77.5198 30.3907 77.1984C30.0177 76.8769 29.5528 76.7162 28.996 76.7162C28.434 76.7162 27.9612 76.8769 27.5778 77.1984C27.1995 77.5198 26.9133 77.9572 26.7189 78.5106C26.5298 79.0639 26.4352 79.6936 26.4352 80.3998C26.4352 81.1059 26.5298 81.7357 26.7189 82.289C26.9133 82.8423 27.1995 83.2797 27.5778 83.6012C27.9612 83.9173 28.434 84.0754 28.996 84.0754Z" fill="white"/>
<path d="M37.4663 74.3053H40.823V87.0476C40.823 87.9856 40.6391 88.7445 40.2714 89.3241C39.9037 89.9038 39.3758 90.328 38.6876 90.5968C38.0048 90.8655 37.1879 90.9999 36.2372 90.9999C36.1216 90.9999 36.0113 90.9973 35.9062 90.992C35.7959 90.992 35.6804 90.9894 35.5595 90.9841V88.3519C35.6488 88.3571 35.7276 88.3598 35.7959 88.3598C35.859 88.365 35.9272 88.3677 36.0008 88.3677C36.5418 88.3677 36.92 88.2517 37.1354 88.0199C37.356 87.7933 37.4663 87.4507 37.4663 86.9923V74.3053ZM39.1368 72.7402C38.643 72.7402 38.2175 72.5742 37.8603 72.2422C37.5031 71.9049 37.3245 71.5018 37.3245 71.0328C37.3245 70.569 37.5031 70.1711 37.8603 69.8392C38.2175 69.5019 38.643 69.3333 39.1368 69.3333C39.641 69.3333 40.0692 69.5019 40.4211 69.8392C40.7783 70.1711 40.9569 70.569 40.9569 71.0328C40.9569 71.5018 40.7783 71.9049 40.4211 72.2422C40.0692 72.5742 39.641 72.7402 39.1368 72.7402Z" fill="white"/>
<path d="M49.374 86.684C48.1291 86.684 47.0575 86.431 46.1592 85.9251C45.2663 85.414 44.5781 84.692 44.0949 83.7593C43.6116 82.8212 43.37 81.7119 43.37 80.4314C43.37 79.1825 43.6116 78.0863 44.0949 77.1431C44.5781 76.1998 45.2584 75.4646 46.1356 74.9377C47.0181 74.4107 48.0529 74.1472 49.2401 74.1472C50.0385 74.1472 50.7818 74.2763 51.4699 74.5345C52.1633 74.7875 52.7674 75.1695 53.2822 75.6807C53.8022 76.1919 54.2067 76.8348 54.4956 77.6094C54.7845 78.3788 54.929 79.2799 54.929 80.3128V81.2377H44.7094V79.1508H51.7693C51.7693 78.666 51.6643 78.2365 51.4542 77.8624C51.2441 77.4882 50.9525 77.1958 50.5796 76.985C50.2119 76.7689 49.7837 76.6609 49.2952 76.6609C48.7857 76.6609 48.334 76.7794 47.94 77.0166C47.5513 77.2484 47.2466 77.562 47.026 77.9572C46.8054 78.3472 46.6924 78.782 46.6872 79.2615V81.2456C46.6872 81.8463 46.7975 82.3654 47.0181 82.8028C47.244 83.2402 47.5618 83.5774 47.9715 83.8146C48.3812 84.0517 48.8671 84.1703 49.4292 84.1703C49.8021 84.1703 50.1436 84.1176 50.4535 84.0122C50.7634 83.9068 51.0287 83.7487 51.2493 83.5379C51.4699 83.3271 51.638 83.0689 51.7536 82.7633L54.8581 82.9688C54.7005 83.7171 54.3774 84.3705 53.8889 84.9291C53.4056 85.4825 52.7805 85.9146 52.0136 86.2255C51.2519 86.5311 50.3721 86.684 49.374 86.684Z" fill="white"/>
<path d="M62.9344 86.684C61.6947 86.684 60.6284 86.4205 59.7354 85.8935C58.8476 85.3613 58.1648 84.6235 57.6867 83.6802C57.214 82.7369 56.9776 81.6513 56.9776 80.4235C56.9776 79.1798 57.2166 78.089 57.6946 77.151C58.1779 76.2077 58.8634 75.4725 59.7511 74.9456C60.6389 74.4133 61.6947 74.1472 62.9186 74.1472C63.9745 74.1472 64.899 74.3395 65.6922 74.7242C66.4854 75.1089 67.1131 75.6491 67.5753 76.3447C68.0376 77.0403 68.2924 77.8571 68.3396 78.7951H65.1721C65.0828 78.1891 64.8465 77.7016 64.463 77.3328C64.0848 76.9586 63.5884 76.7715 62.9738 76.7715C62.4538 76.7715 61.9994 76.9138 61.6107 77.1984C61.2272 77.4777 60.9278 77.8861 60.7124 78.4236C60.4971 78.9611 60.3894 79.6119 60.3894 80.3761C60.3894 81.1507 60.4944 81.8094 60.7045 82.3522C60.9199 82.895 61.2219 83.3087 61.6107 83.5933C61.9994 83.8778 62.4538 84.0201 62.9738 84.0201C63.3573 84.0201 63.7013 83.9411 64.006 83.783C64.3159 83.6249 64.5707 83.3956 64.7703 83.0953C64.9752 82.7896 65.1091 82.4234 65.1721 81.9965H68.3396C68.2871 82.924 68.035 83.7408 67.5832 84.447C67.1367 85.1478 66.5195 85.6959 65.7316 86.0911C64.9436 86.4864 64.0112 86.684 62.9344 86.684Z" fill="white"/>
<path d="M77.2729 74.3053V76.8348H69.9845V74.3053H77.2729ZM71.6391 71.3964H74.9957V82.7158C74.9957 83.0268 75.043 83.2692 75.1376 83.4431C75.2321 83.6117 75.3634 83.7303 75.5315 83.7988C75.7049 83.8673 75.9045 83.9015 76.1304 83.9015C76.2879 83.9015 76.4455 83.8884 76.6031 83.862C76.7607 83.8304 76.8815 83.8067 76.9656 83.7909L77.4935 86.2966C77.3254 86.3493 77.089 86.4099 76.7843 86.4785C76.4797 86.5522 76.1093 86.597 75.6733 86.6128C74.8644 86.6444 74.1553 86.5364 73.5459 86.2887C72.9418 86.0411 72.4717 85.6564 72.1355 85.1347C71.7993 84.613 71.6339 83.9542 71.6391 83.1585V71.3964Z" fill="white"/>
<path d="M89.7242 77.7675L86.6513 77.9572C86.5987 77.6937 86.4858 77.4566 86.3124 77.2458C86.1391 77.0298 85.9106 76.8585 85.6269 76.732C85.3485 76.6003 85.015 76.5344 84.6263 76.5344C84.1062 76.5344 83.6676 76.6451 83.3104 76.8664C82.9532 77.0825 82.7746 77.3723 82.7746 77.7359C82.7746 78.0257 82.8902 78.2708 83.1213 78.471C83.3524 78.6713 83.749 78.832 84.3111 78.9532L86.5016 79.3959C87.6782 79.6383 88.5555 80.0283 89.1333 80.5658C89.7111 81.1033 90 81.8094 90 82.6842C90 83.48 89.7662 84.1782 89.2987 84.779C88.8365 85.3797 88.2009 85.8487 87.3919 86.186C86.5882 86.518 85.6611 86.684 84.6105 86.684C83.0084 86.684 81.7319 86.3493 80.7811 85.6801C79.8356 85.0056 79.2814 84.0886 79.1186 82.9293L82.4201 82.7554C82.5199 83.2454 82.7615 83.6196 83.145 83.8778C83.5284 84.1308 84.0196 84.2572 84.6184 84.2572C85.2067 84.2572 85.6795 84.1439 86.0367 83.9173C86.3991 83.6855 86.583 83.3877 86.5882 83.0241C86.583 82.7185 86.4543 82.4682 86.2021 82.2732C85.95 82.0729 85.5613 81.9201 85.036 81.8147L82.9401 81.3958C81.7582 81.1586 80.8783 80.7476 80.3005 80.1626C79.7279 79.5777 79.4417 78.832 79.4417 77.9256C79.4417 77.1457 79.6518 76.4738 80.072 75.9099C80.4975 75.3461 81.0937 74.9113 81.8606 74.6057C82.6328 74.3 83.5363 74.1472 84.5711 74.1472C86.0997 74.1472 87.3026 74.4713 88.1799 75.1195C89.0624 75.7676 89.5771 76.6503 89.7242 77.7675Z" fill="white"/>
</svg>
