<svg width="24" height="16" viewBox="0 0 24 16" fill="none" xmlns="http://www.w3.org/2000/svg">
<path d="M15.238 1.67188H8.74316V13.9648H15.238V1.67188Z" fill="#9CA2AB"/>
<path d="M9.17534 7.81912C9.17534 5.32156 10.2898 3.10487 12 1.67263C10.7414 0.630084 9.15372 0 7.42194 0C3.31946 0 0 3.49709 0 7.81912C0 12.1411 3.31946 15.6382 7.42194 15.6382C9.15372 15.6382 10.7414 15.0082 12 13.9656C10.2874 12.5536 9.17534 10.3167 9.17534 7.81912Z" fill="#9CA2AB"/>
<path d="M24 7.81912C24 12.1411 20.6805 15.6382 16.5781 15.6382C14.8463 15.6382 13.2586 15.0082 12 13.9656C13.7318 12.5308 14.8247 10.3167 14.8247 7.81912C14.8247 5.32156 13.7102 3.10487 12 1.67263C13.2562 0.630084 14.8439 0 16.5757 0C20.6805 0 24 3.51987 24 7.81912Z" fill="#F2F6FF"/>
</svg>
