<svg width="140" height="140" viewBox="0 0 140 140" fill="none" xmlns="http://www.w3.org/2000/svg">
<g filter="url(#filter0_d_4532_42498)">
<circle cx="69.9999" cy="66" r="50" fill="#D6E2FF"/>
<circle cx="69.9999" cy="66" r="49.5" stroke="white"/>
</g>
<path d="M84.5833 54.543H81.9166L81.25 52.4597C80.8178 51.2372 80.0161 50.1795 78.956 49.4329C77.8959 48.6864 76.6299 48.288 75.3333 48.293H64.6666C63.3574 48.2955 62.0819 48.709 61.0203 49.4753C59.9587 50.2416 59.1646 51.322 58.75 52.5638L58.0833 54.6472H55.4166C53.759 54.6472 52.1693 55.3057 50.9972 56.4778C49.8251 57.6499 49.1666 59.2396 49.1666 60.8972V77.5638C49.1666 79.2215 49.8251 80.8112 50.9972 81.9833C52.1693 83.1554 53.759 83.8139 55.4166 83.8139H84.5833C86.2409 83.8139 87.8306 83.1554 89.0027 81.9833C90.1748 80.8112 90.8333 79.2215 90.8333 77.5638V60.8972C90.8471 60.0677 90.6957 59.2438 90.3878 58.4734C90.0799 57.7031 89.6217 57.0017 89.04 56.4103C88.4582 55.8188 87.7645 55.3491 86.9994 55.0285C86.2342 54.7079 85.4129 54.5429 84.5833 54.543ZM86.6666 77.4597C86.6666 78.0122 86.4471 78.5421 86.0564 78.9328C85.6657 79.3235 85.1358 79.543 84.5833 79.543H55.4166C54.8641 79.543 54.3342 79.3235 53.9435 78.9328C53.5528 78.5421 53.3333 78.0122 53.3333 77.4597V60.793C53.3333 60.2405 53.5528 59.7106 53.9435 59.3199C54.3342 58.9292 54.8641 58.7097 55.4166 58.7097H59.5833C60.0376 58.7334 60.4872 58.6078 60.8634 58.3519C61.2396 58.0961 61.5217 57.7242 61.6666 57.293L62.7916 53.8763C62.9314 53.4626 63.1977 53.1032 63.5528 52.8489C63.908 52.5947 64.334 52.4586 64.7708 52.4597H75.4375C75.8742 52.4586 76.3003 52.5947 76.6554 52.8489C77.0106 53.1032 77.2769 53.4626 77.4166 53.8763L78.5416 57.293C78.6753 57.6904 78.9258 58.0382 79.2603 58.291C79.5948 58.5437 79.9978 58.6896 80.4166 58.7097H84.5833C85.1358 58.7097 85.6657 58.9292 86.0564 59.3199C86.4471 59.7106 86.6666 60.2405 86.6666 60.793V77.4597ZM70 58.7097C68.3518 58.7097 66.7406 59.1984 65.3702 60.1141C63.9998 61.0298 62.9317 62.3313 62.301 63.854C61.6702 65.3767 61.5052 67.0523 61.8267 68.6688C62.1483 70.2853 62.942 71.7701 64.1074 72.9356C65.2728 74.101 66.7577 74.8947 68.3742 75.2162C69.9907 75.5378 71.6663 75.3727 73.189 74.742C74.7117 74.1113 76.0132 73.0432 76.9289 71.6728C77.8445 70.3024 78.3333 68.6912 78.3333 67.043C78.3333 64.8329 77.4553 62.7133 75.8925 61.1505C74.3297 59.5877 72.2101 58.7097 70 58.7097ZM70 71.2097C69.1759 71.2097 68.3703 70.9653 67.6851 70.5075C66.9999 70.0496 66.4658 69.3989 66.1505 68.6375C65.8351 67.8762 65.7526 67.0384 65.9134 66.2301C66.0741 65.4219 66.471 64.6795 67.0537 64.0967C67.6364 63.514 68.3788 63.1172 69.1871 62.9564C69.9953 62.7956 70.8331 62.8782 71.5945 63.1935C72.3558 63.5089 73.0066 64.0429 73.4644 64.7281C73.9223 65.4133 74.1666 66.2189 74.1666 67.043C74.1666 68.1481 73.7276 69.2079 72.9462 69.9893C72.1648 70.7707 71.105 71.2097 70 71.2097Z" fill="white"/>
<g filter="url(#filter1_d_4532_42498)">
<circle cx="104" cy="100" r="16" fill="white"/>
<mask id="mask0_4532_42498" style="mask-type:alpha" maskUnits="userSpaceOnUse" x="96" y="92" width="16" height="16">
<rect x="96" y="92" width="16" height="16" fill="#D9D9D9"/>
</mask>
<g mask="url(#mask0_4532_42498)">
<path d="M102.667 105.999L105.333 103.332H110.667V105.999H102.667ZM98.6667 104.665H99.6L106.3 97.982L105.833 97.4987L105.35 97.032L98.6667 103.732V104.665ZM97.3334 105.999V103.165L106.3 94.2154C106.556 93.9598 106.87 93.832 107.242 93.832C107.614 93.832 107.928 93.9598 108.183 94.2154L109.117 95.1654C109.372 95.4209 109.5 95.732 109.5 96.0987C109.5 96.4654 109.372 96.7765 109.117 97.032L100.167 105.999H97.3334ZM106.3 97.982L105.833 97.4987L105.35 97.032L106.3 97.982Z" fill="#246BFD"/>
</g>
</g>
<defs>
<filter id="filter0_d_4532_42498" x="-0.00012207" y="0" width="140" height="140" filterUnits="userSpaceOnUse" color-interpolation-filters="sRGB">
<feFlood flood-opacity="0" result="BackgroundImageFix"/>
<feColorMatrix in="SourceAlpha" type="matrix" values="0 0 0 0 0 0 0 0 0 0 0 0 0 0 0 0 0 0 127 0" result="hardAlpha"/>
<feOffset dy="4"/>
<feGaussianBlur stdDeviation="10"/>
<feComposite in2="hardAlpha" operator="out"/>
<feColorMatrix type="matrix" values="0 0 0 0 0.760784 0 0 0 0 0.831373 0 0 0 0 1 0 0 0 0.4 0"/>
<feBlend mode="normal" in2="BackgroundImageFix" result="effect1_dropShadow_4532_42498"/>
<feBlend mode="normal" in="SourceGraphic" in2="effect1_dropShadow_4532_42498" result="shape"/>
</filter>
<filter id="filter1_d_4532_42498" x="68" y="68" width="72" height="72" filterUnits="userSpaceOnUse" color-interpolation-filters="sRGB">
<feFlood flood-opacity="0" result="BackgroundImageFix"/>
<feColorMatrix in="SourceAlpha" type="matrix" values="0 0 0 0 0 0 0 0 0 0 0 0 0 0 0 0 0 0 127 0" result="hardAlpha"/>
<feOffset dy="4"/>
<feGaussianBlur stdDeviation="10"/>
<feComposite in2="hardAlpha" operator="out"/>
<feColorMatrix type="matrix" values="0 0 0 0 0.760784 0 0 0 0 0.831373 0 0 0 0 1 0 0 0 0.4 0"/>
<feBlend mode="normal" in2="BackgroundImageFix" result="effect1_dropShadow_4532_42498"/>
<feBlend mode="normal" in="SourceGraphic" in2="effect1_dropShadow_4532_42498" result="shape"/>
</filter>
</defs>
</svg>
