<svg width="32" height="32" viewBox="0 0 32 32" fill="#000" xmlns="http://www.w3.org/2000/svg">
<path fill-rule="evenodd" clip-rule="evenodd" d="M6.25024 22.5007H12.4252C14.9156 22.4792 17.3122 21.5478 19.1633 19.8818C21.0145 18.2158 22.1925 15.9303 22.4753 13.4559C22.5766 12.0602 22.3763 10.659 21.888 9.3476C21.3997 8.03617 20.6347 6.84523 19.6452 5.85571C18.6557 4.86619 17.4647 4.10127 16.1533 3.61293C14.8419 3.12459 13.4407 2.92427 12.045 3.02559C9.57165 3.30805 7.28691 4.48503 5.62102 6.33489C3.95512 8.18476 3.02302 10.5799 3.00024 13.0692V18.5292C3.00024 21.2722 4.63283 22.5007 6.25024 22.5007ZM24.6539 12.8373H24.6669C25.9831 13.5972 27.0763 14.6899 27.8369 16.0057C28.5975 17.3215 28.9987 18.8142 29.0002 20.334V25.7507C29.0002 26.6126 28.6578 27.4393 28.0483 28.0488C27.4388 28.6583 26.6122 29.0007 25.7502 29.0007H20.3336C18.8141 28.9979 17.322 28.5957 16.007 27.8344C14.692 27.0731 13.6002 25.9794 12.8412 24.663V24.6468C18.8678 24.4268 24.2227 19.4673 24.6409 13.6087C24.6539 13.3508 24.6539 13.0941 24.6539 12.8373ZM8.20024 13.7473C8.77462 13.7473 9.24024 13.2817 9.24024 12.7073C9.24024 12.1329 8.77462 11.6673 8.20024 11.6673C7.62587 11.6673 7.16024 12.1329 7.16024 12.7073C7.16024 13.2817 7.62587 13.7473 8.20024 13.7473ZM12.3602 13.7473C12.9346 13.7473 13.4002 13.2817 13.4002 12.7073C13.4002 12.1329 12.9346 11.6673 12.3602 11.6673C11.7859 11.6673 11.3202 12.1329 11.3202 12.7073C11.3202 13.2817 11.7859 13.7473 12.3602 13.7473ZM17.5602 12.7073C17.5602 13.2817 17.0946 13.7473 16.5202 13.7473C15.9459 13.7473 15.4802 13.2817 15.4802 12.7073C15.4802 12.1329 15.9459 11.6673 16.5202 11.6673C17.0946 11.6673 17.5602 12.1329 17.5602 12.7073Z" fill="#000"/>
</svg>