<svg width="43" height="34" viewBox="0 0 43 34" fill="none" xmlns="http://www.w3.org/2000/svg">
<path d="M6.37526 26.916C3.57319 26.9895 3.57375 31.093 6.37535 31.166C9.17734 31.0926 9.17678 26.989 6.37526 26.916ZM6.37526 29.7493C5.44445 29.7326 5.44458 28.3492 6.3753 28.3327C7.30607 28.3494 7.30594 29.7327 6.37526 29.7493Z" fill="#246BFD"/>
<path d="M2.83333 12.75H3.98922L5.7559 15.9275C5.88076 16.1523 6.11768 16.2917 6.375 16.2917C6.63232 16.2917 6.86924 16.1523 6.9941 15.9275L8.76078 12.75H9.91667C10.8472 12.7344 10.848 11.3491 9.91667 11.3333H8.34402C8.08669 11.3333 7.84978 11.4727 7.72492 11.6975L6.37501 14.1255L5.02509 11.6975C4.90024 11.4727 4.66332 11.3333 4.406 11.3333H2.83335C2.05203 11.3333 1.41668 10.698 1.41668 9.91667V2.83333C1.41668 2.05202 2.05203 1.41667 2.83335 1.41667H17C17.7813 1.41667 18.4167 2.05202 18.4167 2.83333V4.25C18.4167 4.64118 18.7338 4.95833 19.125 4.95833C19.5162 4.95833 19.8333 4.64118 19.8333 4.25V2.83333C19.8333 1.27105 18.5623 0 17 0H2.83333C1.27105 0 0 1.27105 0 2.83333V9.91667C0 11.4789 1.27105 12.75 2.83333 12.75Z" fill="#246BFD"/>
<path d="M39.6665 0H25.4998C23.9376 0 22.6665 1.27105 22.6665 2.83333V4.25C22.6861 5.18319 24.0655 5.18012 24.0832 4.24996C24.0832 4.25 24.0832 2.83333 24.0832 2.83333C24.0832 2.05202 24.7185 1.41667 25.4998 1.41667H39.6665C40.4478 1.41667 41.0832 2.05202 41.0832 2.83333V9.91667C41.0832 10.698 40.4478 11.3333 39.6665 11.3333H38.0939C37.8365 11.3333 37.5996 11.4727 37.4748 11.6975L36.1248 14.1255L34.7749 11.6975C34.6501 11.4727 34.4132 11.3333 34.1558 11.3333H32.5832C31.6527 11.349 31.6519 12.7342 32.5832 12.75C32.5832 12.75 33.7391 12.75 33.7391 12.75L35.5057 15.9275C35.6306 16.1523 35.8675 16.2917 36.1248 16.2917C36.3822 16.2917 36.6191 16.1523 36.7439 15.9275L38.5106 12.75H39.6665C41.2288 12.75 42.4998 11.4789 42.4998 9.91667V2.83333C42.4998 1.27105 41.2288 0 39.6665 0Z" fill="#246BFD"/>
<path d="M11.3335 8.49935V15.5827C11.3335 17.145 12.6046 18.416 14.1668 18.416H19.02L20.7871 21.5935C20.9119 21.8183 21.1492 21.9577 21.4062 21.9577C21.6635 21.9577 21.9004 21.8183 22.0252 21.5935L23.7919 18.416H28.3335C29.8958 18.416 31.1668 17.145 31.1668 15.5827V8.49935C31.1668 6.93707 29.8958 5.66602 28.3335 5.66602H14.1668C12.6046 5.66602 11.3335 6.93707 11.3335 8.49935ZM29.7502 8.49935V15.5827C29.7502 16.364 29.1148 16.9993 28.3335 16.9993H23.3752C23.1178 16.9993 22.8809 17.1387 22.7561 17.3635L21.4062 19.7919L20.0559 17.3635C19.931 17.1387 19.6938 16.9993 19.4368 16.9993H14.1668C13.3855 16.9993 12.7502 16.364 12.7502 15.5827V8.49935C12.7502 7.71804 13.3855 7.08268 14.1668 7.08268H28.3335C29.1148 7.08268 29.7502 7.71804 29.7502 8.49935Z" fill="#246BFD"/>
<path d="M40.3752 16.291H37.5419C36.3701 16.291 35.4169 17.2442 35.4169 18.416V24.1392C33.25 24.4513 31.5355 26.1658 31.2234 28.3327H26.152C25.2278 22.7013 17.2705 22.7054 16.3484 28.3327H11.277C10.9315 25.9338 8.86814 24.0827 6.37519 24.0827C-0.193712 24.3319 -0.191857 33.7511 6.37527 33.9993C8.86814 33.9993 10.9314 32.1482 11.277 29.7493H16.3484C17.2726 35.3807 25.2299 35.3767 26.152 29.7493H31.2234C31.5689 32.1482 33.6322 33.9993 36.1252 33.9993C42.2687 33.825 42.85 25.1625 36.8335 24.1392V22.666H40.3752C41.547 22.666 42.5002 21.7128 42.5002 20.541V18.416C42.5002 17.2442 41.547 16.291 40.3752 16.291ZM6.37519 32.5827C4.42243 32.5827 2.83353 30.9938 2.83353 29.041C2.99998 24.3536 9.7511 24.3548 9.91686 29.0411C9.91686 30.9938 8.32796 32.5827 6.37519 32.5827ZM21.2502 32.5827C19.2974 32.5827 17.7085 30.9938 17.7085 29.041C17.875 24.3536 24.6261 24.3548 24.7919 29.0411C24.7919 30.9938 23.203 32.5827 21.2502 32.5827ZM39.6669 29.041C39.6669 30.9938 38.078 32.5827 36.1252 32.5827C31.8619 32.4909 31.2963 26.4886 35.4169 25.5709V27.6243C35.4169 28.0155 35.734 28.3327 36.1252 28.3327C36.5164 28.3327 36.8335 28.0155 36.8335 27.6243V25.5709C38.448 25.9001 39.6669 27.3308 39.6669 29.041ZM41.0835 20.541C41.0835 20.9315 40.7657 21.2493 40.3752 21.2493H36.8335V18.416C36.8335 18.0255 37.1514 17.7077 37.5419 17.7077H40.3752C40.7657 17.7077 41.0835 18.0255 41.0835 18.416V20.541Z" fill="#246BFD"/>
<path d="M16.2915 3.54232C16.2915 3.15114 15.9743 2.83398 15.5832 2.83398H4.24984C3.85866 2.83398 3.5415 3.15114 3.5415 3.54232C3.5415 3.93349 3.85866 4.25065 4.24984 4.25065H15.5832C15.9743 4.25065 16.2915 3.93349 16.2915 3.54232Z" fill="#246BFD"/>
<path d="M11.1986 6.37435C11.1986 5.98317 10.8815 5.66602 10.4903 5.66602H4.24984C3.85866 5.66602 3.5415 5.98317 3.5415 6.37435C3.5415 6.76553 3.85866 7.08268 4.24984 7.08268H10.4903C10.8815 7.08268 11.1986 6.76553 11.1986 6.37435Z" fill="#246BFD"/>
<path d="M4.24988 8.5C3.32032 8.51535 3.31777 9.9008 4.24992 9.91667H9.20821C10.1378 9.90127 10.1404 8.51587 9.20821 8.5H4.24988Z" fill="#246BFD"/>
<path d="M15.5833 9.91667H26.9166C27.8449 9.90166 27.8498 8.51599 26.9166 8.5H15.5833C14.6558 8.51474 14.6494 9.90058 15.5833 9.91667Z" fill="#246BFD"/>
<path d="M15.5833 12.7507H26.9166C27.8449 12.7356 27.8498 11.35 26.9166 11.334H15.5833C14.6558 11.3487 14.6494 12.7346 15.5833 12.7507Z" fill="#246BFD"/>
<path d="M23.7292 14.166H18.7709C17.8413 14.1814 17.8388 15.5668 18.7709 15.5827H23.7292C24.6588 15.5673 24.6614 14.1819 23.7292 14.166Z" fill="#246BFD"/>
<path d="M38.2501 2.83398H26.9168C25.9885 2.84894 25.9836 4.23466 26.9168 4.25065H38.2501C39.1776 4.23591 39.184 2.85002 38.2501 2.83398Z" fill="#246BFD"/>
<path d="M38.2501 5.66602H32.0096C31.0805 5.68123 31.0772 7.06677 32.0097 7.08268H38.2501C39.1792 7.06742 39.1826 5.68192 38.2501 5.66602Z" fill="#246BFD"/>
<path d="M33.2919 8.5C32.3623 8.51535 32.3598 9.9008 33.2919 9.91667H38.2502C39.1798 9.90127 39.1824 8.51587 38.2502 8.5H33.2919Z" fill="#246BFD"/>
</svg>