<svg width="32" height="32" viewBox="0 0 32 32" fill="#000" xmlns="http://www.w3.org/2000/svg">
<path d="M5.00024 28C4.73503 28 4.48067 27.8946 4.29314 27.7071C4.1056 27.5196 4.00024 27.2652 4.00024 27V8C4.00024 6.93913 4.42167 5.92172 5.17182 5.17157C5.92196 4.42143 6.93938 4 8.00024 4H15.0002C16.0611 4 17.0785 4.42143 17.8287 5.17157C18.5788 5.92172 19.0002 6.93913 19.0002 8V13C19.0002 14.0609 18.5788 15.0783 17.8287 15.8284C17.0785 16.5786 16.0611 17 15.0002 17H6.00024V27C6.00024 27.2652 5.89489 27.5196 5.70735 27.7071C5.51981 27.8946 5.26546 28 5.00024 28ZM24.0002 8H21.0002V13C20.9987 14.5908 20.366 16.116 19.2411 17.2409C18.1163 18.3658 16.5911 18.9984 15.0002 19H14.5562C14.9046 19.606 15.4062 20.1098 16.0106 20.4608C16.6151 20.8118 17.3012 20.9978 18.0002 21H24.0002C25.0611 21 26.0785 20.5786 26.8287 19.8284C27.5788 19.0783 28.0002 18.0609 28.0002 17V12C28.0002 10.9391 27.5788 9.92172 26.8287 9.17157C26.0785 8.42143 25.0611 8 24.0002 8Z" fill="#000"/>
</svg>