<svg width="32" height="32" viewBox="0 0 32 32" fill="#000" xmlns="http://www.w3.org/2000/svg">
<path d="M5.16668 18.3334C6.36331 18.3334 7.33337 17.3633 7.33337 16.1667C7.33337 14.9701 6.36331 14 5.16668 14C3.97006 14 3 14.9701 3 16.1667C3 17.3633 3.97006 18.3334 5.16668 18.3334Z" fill="#000"/>
<path d="M15.9999 18.3334C17.1966 18.3334 18.1666 17.3633 18.1666 16.1667C18.1666 14.9701 17.1966 14 15.9999 14C14.8033 14 13.8333 14.9701 13.8333 16.1667C13.8333 17.3633 14.8033 18.3334 15.9999 18.3334Z" fill="#000"/>
<path d="M26.8332 18.3334C28.0298 18.3334 28.9999 17.3633 28.9999 16.1667C28.9999 14.9701 28.0298 14 26.8332 14C25.6366 14 24.6665 14.9701 24.6665 16.1667C24.6665 17.3633 25.6366 18.3334 26.8332 18.3334Z" fill="#000"/>
</svg>