<svg width="32" height="32" viewBox="0 0 32 32" fill="#000" xmlns="http://www.w3.org/2000/svg">
<path d="M23.0002 7.022C23.0002 7.014 23.0002 7.008 23.0002 7V5C23.0002 4.73478 22.8949 4.48043 22.7074 4.29289C22.5198 4.10536 22.2655 4 22.0002 4C21.735 4 21.4807 4.10536 21.2931 4.29289C21.1056 4.48043 21.0002 4.73478 21.0002 5V6.1C20.6711 6.03317 20.3361 5.99966 20.0002 6H19.0002V5C19.0002 4.73478 18.8949 4.48043 18.7074 4.29289C18.5198 4.10536 18.2655 4 18.0002 4C17.735 4 17.4807 4.10536 17.2931 4.29289C17.1056 4.48043 17.0002 4.73478 17.0002 5V6H15.0002V5C15.0002 4.73478 14.8949 4.48043 14.7074 4.29289C14.5198 4.10536 14.2655 4 14.0002 4C13.735 4 13.4807 4.10536 13.2931 4.29289C13.1056 4.48043 13.0002 4.73478 13.0002 5V6H12.0002C11.6644 5.99966 11.3294 6.03317 11.0002 6.1V5C11.0002 4.73478 10.8949 4.48043 10.7074 4.29289C10.5198 4.10536 10.2655 4 10.0002 4C9.73503 4 9.48067 4.10536 9.29314 4.29289C9.1056 4.48043 9.00024 4.73478 9.00024 5V7V7.022C8.38103 7.48437 7.87794 8.08454 7.53081 8.77498C7.18368 9.46543 7.00203 10.2272 7.00024 11V23C7.00183 24.3256 7.52913 25.5964 8.46646 26.5338C9.4038 27.4711 10.6746 27.9984 12.0002 28H20.0002C21.3258 27.9984 22.5967 27.4711 23.534 26.5338C24.4714 25.5964 24.9987 24.3256 25.0002 23V11C24.9985 10.2272 24.8168 9.46543 24.4697 8.77498C24.1225 8.08454 23.6195 7.48437 23.0002 7.022ZM16.0002 21H12.0002C11.735 21 11.4807 20.8946 11.2931 20.7071C11.1056 20.5196 11.0002 20.2652 11.0002 20C11.0002 19.7348 11.1056 19.4804 11.2931 19.2929C11.4807 19.1054 11.735 19 12.0002 19H16.0002C16.2655 19 16.5198 19.1054 16.7074 19.2929C16.8949 19.4804 17.0002 19.7348 17.0002 20C17.0002 20.2652 16.8949 20.5196 16.7074 20.7071C16.5198 20.8946 16.2655 21 16.0002 21ZM20.0002 17H12.0002C11.735 17 11.4807 16.8946 11.2931 16.7071C11.1056 16.5196 11.0002 16.2652 11.0002 16C11.0002 15.7348 11.1056 15.4804 11.2931 15.2929C11.4807 15.1054 11.735 15 12.0002 15H20.0002C20.2655 15 20.5198 15.1054 20.7074 15.2929C20.8949 15.4804 21.0002 15.7348 21.0002 16C21.0002 16.2652 20.8949 16.5196 20.7074 16.7071C20.5198 16.8946 20.2655 17 20.0002 17ZM20.0002 13H12.0002C11.735 13 11.4807 12.8946 11.2931 12.7071C11.1056 12.5196 11.0002 12.2652 11.0002 12C11.0002 11.7348 11.1056 11.4804 11.2931 11.2929C11.4807 11.1054 11.735 11 12.0002 11H20.0002C20.2655 11 20.5198 11.1054 20.7074 11.2929C20.8949 11.4804 21.0002 11.7348 21.0002 12C21.0002 12.2652 20.8949 12.5196 20.7074 12.7071C20.5198 12.8946 20.2655 13 20.0002 13Z" fill="#000"/>
</svg>