<svg width="40" height="37" viewBox="0 0 40 37" fill="none" xmlns="http://www.w3.org/2000/svg">
<path d="M19.069 35.4833C19.4879 35.4833 19.8274 35.8248 19.8274 36.2417C19.8274 36.6606 19.4859 37 19.069 37H1.48564C1.06674 37 0.727295 36.6585 0.727295 36.2417V3.03538C0.727295 2.61647 1.06877 2.27703 1.48564 2.27703H5.65719V0.758349C5.65719 0.339443 5.99867 0 6.41554 0C6.83445 0 7.17389 0.341478 7.17389 0.758349V2.27703H9.45092V0.758349C9.45092 0.339443 9.7924 0 10.2093 0C10.6282 0 10.9676 0.341478 10.9676 0.758349V2.27703H13.2446V0.758349C13.2446 0.339443 13.5861 0 14.003 0C14.4219 0 14.7613 0.341478 14.7613 0.758349V2.27703H17.0384V0.758349C17.0384 0.339443 17.3799 0 17.7967 0C18.2156 0 18.5551 0.341478 18.5551 0.758349V2.27703H20.8321V0.758349C20.8321 0.339443 21.1736 0 21.5905 0C22.0094 0 22.3488 0.341478 22.3488 0.758349V2.27703H26.5203C26.9393 2.27703 27.2787 2.61851 27.2787 3.03538V14.3224C27.2787 14.7413 26.9372 15.0808 26.5203 15.0808C26.1014 15.0808 25.762 14.7393 25.762 14.3224V3.79327H22.3509V5.50119C22.3509 5.92009 22.0094 6.25954 21.5925 6.25954C21.1736 6.25954 20.8342 5.91806 20.8342 5.50119V3.79327H18.5571V5.50119C18.5571 5.92009 18.2156 6.25954 17.7988 6.25954C17.3799 6.25954 17.0404 5.91806 17.0404 5.50119V3.79327H14.7634V5.50119C14.7634 5.92009 14.4219 6.25954 14.005 6.25954C13.5861 6.25954 13.2467 5.91806 13.2467 5.50119V3.79327H10.9697V5.50119C10.9697 5.92009 10.6282 6.25954 10.2113 6.25954C9.79241 6.25954 9.45297 5.91806 9.45297 5.50119V3.79327H7.17594V5.50119C7.17594 5.92009 6.83446 6.25954 6.41759 6.25954C5.99868 6.25954 5.65924 5.91806 5.65924 5.50119V3.79327H2.24809V35.4811H19.0736L19.069 35.4833Z" fill="#246BFD"/>
<path d="M9.64189 11.5787C9.22299 11.5787 8.88354 11.2372 8.88354 10.8204C8.88354 10.4015 9.22502 10.062 9.64189 10.062H22.5458C22.9647 10.062 23.3041 10.4035 23.3041 10.8204C23.3041 11.2393 22.9627 11.5787 22.5458 11.5787H9.64189Z" fill="#246BFD"/>
<path d="M5.46801 11.5787C5.0491 11.5787 4.70966 11.2372 4.70966 10.8204C4.70966 10.4015 5.05113 10.062 5.46801 10.062H6.79546C7.21437 10.062 7.55381 10.4035 7.55381 10.8204C7.55381 11.2393 7.21233 11.5787 6.79546 11.5787H5.46801Z" fill="#246BFD"/>
<path d="M9.64189 16.5108C9.22299 16.5108 8.88354 16.1694 8.88354 15.7525C8.88354 15.3336 9.22502 14.9941 9.64189 14.9941H22.5458C22.9647 14.9941 23.3041 15.3356 23.3041 15.7525C23.3041 16.1714 22.9627 16.5108 22.5458 16.5108H9.64189Z" fill="#246BFD"/>
<path d="M5.46801 16.5108C5.0491 16.5108 4.70966 16.1694 4.70966 15.7525C4.70966 15.3336 5.05113 14.9941 5.46801 14.9941H6.79546C7.21437 14.9941 7.55381 15.3356 7.55381 15.7525C7.55381 16.1714 7.21233 16.5108 6.79546 16.5108H5.46801Z" fill="#246BFD"/>
<path d="M9.64189 21.442C9.22299 21.442 8.88354 21.1005 8.88354 20.6836C8.88354 20.2647 9.22502 19.9253 9.64189 19.9253H22.5458C22.9647 19.9253 23.3041 20.2668 23.3041 20.6836C23.3041 21.1025 22.9627 21.442 22.5458 21.442H9.64189Z" fill="#246BFD"/>
<path d="M5.46801 21.442C5.0491 21.442 4.70966 21.1005 4.70966 20.6836C4.70966 20.2647 5.05113 19.9253 5.46801 19.9253H6.79546C7.21437 19.9253 7.55381 20.2668 7.55381 20.6836C7.55381 21.1025 7.21233 21.442 6.79546 21.442H5.46801Z" fill="#246BFD"/>
<path d="M9.64189 26.3751C9.22299 26.3751 8.88354 26.0336 8.88354 25.6167C8.88354 25.1978 9.22502 24.8584 9.64189 24.8584H20.0118C20.4307 24.8584 20.7701 25.1999 20.7701 25.6167C20.7701 26.0357 20.4287 26.3751 20.0118 26.3751H9.64189Z" fill="#246BFD"/>
<path d="M5.46801 26.3751C5.0491 26.3751 4.70966 26.0336 4.70966 25.6167C4.70966 25.1978 5.05113 24.8584 5.46801 24.8584H6.79546C7.21437 24.8584 7.55381 25.1999 7.55381 25.6167C7.55381 26.0357 7.21233 26.3751 6.79546 26.3751H5.46801Z" fill="#246BFD"/>
<path d="M9.64189 31.3062C9.22299 31.3062 8.88354 30.9648 8.88354 30.5479C8.88354 30.129 9.22502 29.7896 9.64189 29.7896H19.1191C19.538 29.7896 19.8775 30.131 19.8775 30.5479C19.8775 30.9668 19.536 31.3062 19.1191 31.3062H9.64189Z" fill="#246BFD"/>
<path d="M5.46801 31.3062C5.0491 31.3062 4.70966 30.9648 4.70966 30.5479C4.70966 30.129 5.05113 29.7896 5.46801 29.7896H6.79546C7.21437 29.7896 7.55381 30.131 7.55381 30.5479C7.55381 30.9668 7.21233 31.3062 6.79546 31.3062H5.46801Z" fill="#246BFD"/>
<path d="M37.2332 8.47984L35.2726 7.34803C34.7785 7.06101 34.1203 7.23653 33.8357 7.73287L33.1958 8.84168L36.9758 11.0253L37.6157 9.91647C37.9027 9.42245 37.7272 8.76424 37.2308 8.47959L37.2332 8.47984ZM32.4398 10.1511L22.4552 27.445L26.2351 29.6286L36.2198 12.3347L32.4375 10.1511H32.4398ZM22.1657 29.0282L22.1361 32.3687L25.0119 30.6744L22.1655 29.0303L22.1657 29.0282ZM36.033 6.03921L37.9913 7.17102C39.214 7.87928 39.6375 9.45267 38.9295 10.6753L27.1687 31.0438C27.105 31.153 27.0139 31.2487 26.8977 31.3171L21.7515 34.3525C21.2459 34.6416 20.6061 34.2911 20.6107 33.6943L20.6654 27.7581C20.6587 27.6192 20.6904 27.4757 20.7655 27.3459L32.5263 6.97745C33.2346 5.75479 34.808 5.33124 36.0306 6.03924L36.033 6.03921Z" fill="#246BFD"/>
</svg>
