<svg width="42" height="42" viewBox="0 0 42 42" fill="none" xmlns="http://www.w3.org/2000/svg">
<path d="M4.84956 35.2585C5.45133 35.2783 5.80193 34.5002 5.35821 34.086C3.41445 32.141 2.10799 29.7226 1.58032 27.0924C1.3887 26.2058 0.0239671 26.4605 0.18767 27.3567C0.768543 30.2515 2.20489 32.9113 4.34121 35.0491C4.48057 35.1882 4.66522 35.2582 4.84986 35.2582L4.84956 35.2585Z" fill="#246BFD"/>
<path d="M5.73175 32.4348C6.33098 33.1247 7.41231 32.2433 6.81937 31.5483C5.65253 30.1911 4.82307 28.5572 4.4205 26.8234C4.33404 26.4518 3.95334 26.219 3.57166 26.3019C3.1897 26.3861 2.94993 26.7559 3.03608 27.1284C3.48836 29.0753 4.42046 30.9102 5.73138 32.4349L5.73175 32.4348Z" fill="#246BFD"/>
<path d="M37.5699 0.367267H20.5428C18.1956 0.367267 16.2861 2.22656 16.2861 4.512V14.4452C14.6997 14.3545 13.147 14.6206 11.7218 15.2146C10.8755 14.2952 9.82555 13.442 8.48203 13.4928C5.38603 13.4281 3.73814 17.299 5.97265 19.3901L6.58108 19.9825C4.74094 23.6749 5.38035 28.257 8.51973 31.3202L11.7411 34.4503C8.00373 38.6181 13.9376 44.1632 18.0724 40.3624L20.915 37.5943C26.8057 43.3776 35.2931 35.0964 29.3507 29.3807C30.1799 28.4721 32.7539 26.3927 33.1364 25.2356H37.5703C39.9175 25.2356 41.827 23.3763 41.827 21.0909V4.51192C41.827 2.22648 39.9175 0.367188 37.5703 0.367188L37.5699 0.367267ZM6.35366 16.9462C6.43379 14.7595 9.09711 14.2056 10.3916 15.8724C9.19433 16.5844 8.09657 17.6031 7.3143 18.7423C6.77556 18.2815 6.3299 17.6749 6.35366 16.9462ZM29.9199 33.7225C29.9325 37.8 24.6614 39.684 21.9181 36.6167L28.3467 30.3571C29.3294 31.2239 29.9299 32.422 29.9195 33.7225H29.9199ZM31.1871 25.6383C27.3335 29.3908 20.9214 35.6331 17.0684 39.3854C14.2281 42.0117 10.1611 38.0501 12.8763 35.2941L13.2453 34.9277C13.518 34.6572 13.5154 34.2227 13.2402 33.9551L9.52346 30.3432C3.85727 24.8277 8.29014 15.2643 16.2861 15.828V21.0906C16.2861 23.376 18.1957 25.2353 20.5429 25.2353H23.0703L24.893 28.3411C25.0191 28.5564 25.2544 28.6893 25.5091 28.6893C25.7637 28.6893 25.999 28.5564 26.1251 28.3411L27.9478 25.2353H31.5252C31.4245 25.3769 31.3152 25.5132 31.1872 25.6381L31.1871 25.6383ZM40.4076 21.0908C40.4076 22.6149 39.1344 23.854 37.5698 23.854H27.536C27.2814 23.854 27.046 23.9869 26.92 24.2021L25.509 26.6063L24.098 24.2021C23.972 23.9869 23.7367 23.854 23.482 23.854H20.5428C18.9782 23.854 17.705 22.6149 17.705 21.0908V4.51185C17.705 2.9884 18.9782 1.74869 20.5428 1.74869H37.5698C39.1345 1.74869 40.4077 2.9884 40.4077 4.51185L40.4076 21.0908Z" fill="#246BFD"/>
<path d="M35.3629 6.57227L22.6332 6.68297C21.8749 6.68945 21.1649 6.98304 20.6334 7.51011C20.1022 8.03683 19.8134 8.73379 19.8207 9.4721L19.8872 16.2939C19.9018 17.8085 21.1725 19.0309 22.725 19.0309C22.7504 19.0309 35.4807 18.9205 35.4807 18.9205C36.239 18.9137 36.949 18.6198 37.4805 18.0931C38.0117 17.5664 38.3005 16.8694 38.2932 16.1311L38.2267 9.30928C38.2121 7.78678 36.9123 6.56184 35.3635 6.57234L35.3629 6.57227ZM22.6453 8.06453L35.375 7.95382C35.534 7.95382 35.6725 7.98158 35.8052 8.02167L29.0485 11.9986L22.2156 8.13914C22.353 8.09504 22.4962 8.06544 22.6454 8.0642L22.6453 8.06453ZM36.4672 17.1253C36.2015 17.3887 35.8464 17.5358 35.467 17.5392L22.7373 17.6496C21.948 17.6496 21.313 17.0384 21.3057 16.2816L21.2392 9.45973C21.2382 9.37123 21.2471 9.28457 21.2629 9.19945L28.7005 13.3997C28.8107 13.4617 28.9336 13.4928 29.0565 13.4928C29.1835 13.4928 29.3108 13.4595 29.4233 13.3932L36.7779 9.06437C36.795 9.14795 36.8061 9.23398 36.807 9.32249L36.8735 16.1443C36.877 16.5138 36.7329 16.8619 36.4672 17.1256L36.4672 17.1253Z" fill="#246BFD"/>
</svg>
