<svg width="24" height="28" viewBox="0 0 24 28" fill="none" xmlns="http://www.w3.org/2000/svg">
<path d="M9.28408 23.6366C9.95063 23.4956 14.0122 23.4956 14.6788 23.6366C15.2486 23.7682 15.8648 24.0757 15.8648 24.7471C15.8316 25.3863 15.4566 25.953 14.9385 26.3129C14.2666 26.8367 13.4782 27.1683 12.6539 27.2879C12.1981 27.3469 11.7502 27.3483 11.3102 27.2879C10.4847 27.1683 9.6962 26.8367 9.02567 26.3116C8.50621 25.953 8.1312 25.3863 8.09807 24.7471C8.09807 24.0757 8.71426 23.7682 9.28408 23.6366ZM12.0601 0.666016C14.8337 0.666016 17.6668 1.98204 19.3498 4.16557C20.4417 5.57157 20.9426 6.97622 20.9426 9.15975V9.72779C20.9426 11.4024 21.3852 12.3894 22.3592 13.5268C23.0973 14.3648 23.3332 15.4404 23.3332 16.6074C23.3332 17.773 22.9502 18.8795 22.1829 19.7779C21.1785 20.8549 19.7619 21.5425 18.3162 21.662C16.2211 21.8406 14.1247 21.991 12.0005 21.991C9.87496 21.991 7.7799 21.901 5.68484 21.662C4.23778 21.5425 2.8212 20.8549 1.81806 19.7779C1.0508 18.8795 0.666504 17.773 0.666504 16.6074C0.666504 15.4404 0.903706 14.3648 1.64049 13.5268C2.64495 12.3894 3.0584 11.4024 3.0584 9.72779V9.15975C3.0584 6.91713 3.61761 5.45071 4.76916 4.01517C6.48126 1.92161 9.22564 0.666016 11.9409 0.666016H12.0601Z" fill="#000"/>
</svg>