<svg width="32" height="36" viewBox="0 0 32 36" fill="none" xmlns="http://www.w3.org/2000/svg">
<path fill-rule="evenodd" clip-rule="evenodd" d="M29.7695 9.831C29.5107 9.759 29.2439 9.69394 28.9703 9.6351C28.695 9.57772 28.4133 9.52692 28.1231 9.48233C27.1077 9.3259 25.995 9.25171 24.8033 9.25171H14.7425C14.4945 9.25171 14.2591 9.30507 14.0487 9.40156C13.5845 9.61427 13.2399 10.0331 13.1563 10.5459L11.0159 23.4716L10.9546 23.8484C11.0953 22.9976 11.8577 22.3715 12.7623 22.3715H16.5283C23.9247 22.3715 29.7162 19.5072 31.4089 11.2217C31.4595 10.9764 31.502 10.7378 31.54 10.5042C31.1118 10.2875 30.648 10.1022 30.1486 9.9443C30.0251 9.90519 29.8979 9.86755 29.7695 9.831Z" fill="#000E29"/>
<path fill-rule="evenodd" clip-rule="evenodd" d="M13.1563 10.5457C13.2399 10.0329 13.5845 9.61408 14.0487 9.40283C14.2606 9.30598 14.4944 9.25262 14.7424 9.25262H24.8032C25.995 9.25262 27.1077 9.32718 28.1231 9.4836C28.4133 9.52783 28.695 9.57899 28.9702 9.63637C29.2439 9.69485 29.5107 9.76027 29.7694 9.83191C29.8978 9.86846 30.0251 9.90647 30.1497 9.94411C30.6491 10.102 31.1133 10.2888 31.5415 10.504C32.0452 7.44164 31.5373 5.35655 29.8009 3.46846C27.8862 1.38959 24.431 0.5 20.0095 0.5H7.17318C6.2701 0.5 5.49964 1.12607 5.36012 1.97838L0.0136828 34.2919C-0.091728 34.9312 0.42536 35.5079 1.10152 35.5079H9.02612L13.1563 10.5457Z" fill="#9CA2AB"/>
</svg>