<svg width="20" height="20" viewBox="0 0 20 20" fill="none" xmlns="http://www.w3.org/2000/svg">
<path d="M19.1669 9.16618C18.9459 9.16618 18.7339 9.07838 18.5777 8.9221C18.4214 8.76582 18.3336 8.55386 18.3336 8.33285C18.3318 6.56528 17.6289 4.87061 16.379 3.62075C15.1291 2.37089 13.4345 1.66795 11.6669 1.66618C11.4459 1.66618 11.2339 1.57838 11.0777 1.4221C10.9214 1.26582 10.8336 1.05386 10.8336 0.832847C10.8336 0.611833 10.9214 0.399871 11.0777 0.243591C11.2339 0.0873107 11.4459 -0.000486737 11.6669 -0.000486737C13.8763 0.00193959 15.9945 0.880693 17.5568 2.44297C19.1191 4.00525 19.9978 6.12345 20.0002 8.33285C20.0002 8.55386 19.9124 8.76582 19.7562 8.9221C19.5999 9.07838 19.3879 9.16618 19.1669 9.16618ZM16.6669 8.33285C16.6669 7.00676 16.1401 5.73499 15.2024 4.79731C14.2648 3.85963 12.993 3.33285 11.6669 3.33285C11.4459 3.33285 11.2339 3.42064 11.0777 3.57692C10.9214 3.7332 10.8336 3.94517 10.8336 4.16618C10.8336 4.38719 10.9214 4.59916 11.0777 4.75544C11.2339 4.91172 11.4459 4.99951 11.6669 4.99951C12.551 4.99951 13.3988 5.3507 14.0239 5.97582C14.6491 6.60095 15.0002 7.44879 15.0002 8.33285C15.0002 8.55386 15.088 8.76582 15.2443 8.9221C15.4006 9.07838 15.6126 9.16618 15.8336 9.16618C16.0546 9.16618 16.2666 9.07838 16.4228 8.9221C16.5791 8.76582 16.6669 8.55386 16.6669 8.33285ZM18.4861 18.4695L19.2444 17.5953C19.7271 17.1111 19.9981 16.4553 19.9981 15.7716C19.9981 15.0879 19.7271 14.4321 19.2444 13.9478C19.2186 13.922 17.2136 12.3795 17.2136 12.3795C16.7324 11.9215 16.0932 11.6664 15.4288 11.6673C14.7645 11.6683 14.126 11.9251 13.6461 12.3845L12.0577 13.7228C10.7612 13.1863 9.58348 12.3988 8.59215 11.4058C7.60082 10.4127 6.81543 9.23363 6.28108 7.93618L7.61441 6.35285C8.07417 5.87299 8.33133 5.23441 8.33241 4.56985C8.3335 3.90529 8.07844 3.26587 7.62025 2.78451C7.62025 2.78451 6.07608 0.782013 6.05025 0.75618C5.57479 0.277637 4.93015 0.00536494 4.2556 -0.00180775C3.58106 -0.00898044 2.93077 0.249522 2.44525 0.717847L1.48691 1.55118C-4.17475 8.11951 8.01691 20.217 14.8019 19.9995C15.4871 20.0035 16.1661 19.8701 16.7988 19.6074C17.4316 19.3446 18.0053 18.9577 18.4861 18.4695Z" fill="#001D52"/>
</svg>
