<svg width="12" height="12" viewBox="0 0 32 32" fill="none" xmlns="http://www.w3.org/2000/svg">
<path d="M28.9339 12.7163L19.3506 3.06803C18.8182 2.53201 18.0196 2.53201 17.4872 3.06803C16.9548 3.60404 16.9548 4.40806 17.4872 4.94407L17.7534 5.21208L10.0336 10.7062L5.7744 11.2422C4.44339 11.5102 3.24549 12.4483 2.84619 13.6543C2.44689 14.8603 2.71309 16.3344 3.64479 17.1384L8.30331 21.8285L4.9758 25.1786C4.44339 25.7146 4.44339 26.5186 4.9758 27.0546C5.242 27.3226 5.6413 27.4566 5.9075 27.4566C6.1737 27.4566 6.573 27.3226 6.8392 27.0546L10.1667 23.7045L14.8252 28.3947C15.4907 29.0647 16.2893 29.3327 17.221 29.3327C17.6203 29.3327 18.0196 29.3327 18.2858 29.1987C19.6168 28.7967 20.5485 27.5906 20.6816 26.2506L21.3471 21.9625L26.6712 14.3243L27.0705 14.7263C27.3367 14.9943 27.736 15.1283 28.0022 15.1283C28.2684 15.1283 28.6677 14.9943 28.9339 14.7263C29.4663 14.1903 29.4663 13.2523 28.9339 12.7163Z" fill="#246BFD"/>
</svg>