<svg width="40" height="40" viewBox="0 0 40 40" fill="none" xmlns="http://www.w3.org/2000/svg">
<g clip-path="url(#clip0_82_2077)">
<path d="M20 32C18.8954 32 18 31.1046 18 30V10C18 8.89543 18.8954 8 20 8C21.1046 8 22 8.89543 22 10V30C22 31.1046 21.1046 32 20 32ZM10 22C8.89543 22 8 21.1046 8 20C8 18.8954 8.89543 18 10 18H30C31.1046 18 32 18.8954 32 20C32 21.1046 31.1046 22 30 22H10Z" fill="#246BFD"/>
</g>
<defs>
<clipPath id="clip0_82_2077">
<rect width="40" height="40" fill="white"/>
</clipPath>
</defs>
</svg>
