<svg width="29" height="38" viewBox="0 0 29 38" fill="none" xmlns="http://www.w3.org/2000/svg">
<g clip-path="url(#clip0_814_74350)">
<path d="M14.4998 7.91668C16.6823 7.91668 18.4581 6.14085 18.4581 3.95838C18.4581 1.7759 16.6823 0 14.4998 0C12.3173 0 10.5415 1.77583 10.5415 3.9583C10.5415 6.14077 12.3173 7.91668 14.4998 7.91668ZM14.4998 1.58331C15.8095 1.58331 16.8748 2.64864 16.8748 3.9583C16.8748 5.26796 15.8095 6.3333 14.4998 6.3333C13.1901 6.3333 12.1248 5.26796 12.1248 3.9583C12.1248 2.64871 13.1901 1.58331 14.4998 1.58331Z" fill="#246BFD"/>
<path d="M19.9288 15.833C20.8642 15.833 21.625 15.0119 21.625 14.0022V13.4951C21.625 12.1723 20.9701 10.964 19.9148 10.3416C18.6508 9.59626 16.6856 8.70801 14.5 8.70801C12.3144 8.70801 10.3492 9.59633 9.08515 10.3416C8.02983 10.964 7.375 12.1723 7.375 13.4951V14.0022C7.375 15.0119 8.13574 15.833 9.07119 15.833H19.9288ZM8.95831 14.0023V13.4952C8.95831 12.7414 9.32398 12.0394 9.88916 11.7054C10.9831 11.0606 12.6716 10.2914 14.5 10.2914C16.3284 10.2914 18.0168 11.0607 19.1108 11.7054C19.676 12.0394 20.0417 12.7413 20.0417 13.4952V14.0023C20.0417 14.167 19.9482 14.2497 19.9288 14.2497H9.07119C9.0519 14.2497 8.95831 14.1669 8.95831 14.0023Z" fill="#246BFD"/>
<path d="M16.8743 25.3337C17.1302 25.3337 17.3814 25.21 17.5337 24.9812C17.7765 24.6171 17.6783 24.1261 17.3142 23.8834L15.2917 22.535V18.2087C15.2917 17.7711 14.9376 17.417 14.5 17.417C14.0624 17.417 13.7083 17.7711 13.7083 18.2087V22.5946L8.4434 27.108C8.11097 27.3925 8.0723 27.892 8.3576 28.2236C8.51375 28.4068 8.73567 28.5004 8.95832 28.5004C9.14075 28.5004 9.324 28.4377 9.47325 28.3094L14.5595 23.9497L16.4359 25.2007C16.5711 25.2905 16.7234 25.3337 16.8743 25.3337Z" fill="#246BFD"/>
<path d="M3.0208 28.4997H5.79161C6.2292 28.4997 6.5833 28.1456 6.5833 27.708C6.5833 27.2704 6.2292 26.9163 5.79161 26.9163H4.2083V26.1247C4.2083 25.6871 3.8542 25.333 3.41661 25.333C2.97909 25.333 2.625 25.6871 2.625 26.1247V26.9564C1.28565 27.1504 0.25 28.295 0.25 29.6872C0.25 31.2148 1.49316 32.458 3.0208 32.458H3.81249C4.46732 32.458 4.99999 32.9907 4.99999 33.6455C4.99999 34.3003 4.46732 34.833 3.81249 34.833H1.04169C0.604097 34.833 0.25 35.1871 0.25 35.6247C0.25 36.0623 0.604097 36.4164 1.04169 36.4164H2.625V37.2081C2.625 37.6457 2.97909 37.9997 3.41669 37.9997C3.85428 37.9997 4.20838 37.6457 4.20838 37.2081V36.3764C5.54772 36.1823 6.58337 35.0378 6.58337 33.6456C6.5833 32.1179 5.34014 30.8747 3.81249 30.8747H3.0208C2.36597 30.8747 1.83331 30.342 1.83331 29.6872C1.83331 29.0324 2.36597 28.4997 3.0208 28.4997Z" fill="#246BFD"/>
<path d="M22.4168 25.333C18.9247 25.333 16.0835 28.1742 16.0835 31.6663C16.0835 35.1584 18.9247 37.9997 22.4168 37.9997C25.9089 37.9997 28.7501 35.1585 28.7501 31.6664C28.7501 28.1742 25.9089 25.333 22.4168 25.333ZM22.4168 36.4164C19.7975 36.4164 17.6668 34.2857 17.6668 31.6664C17.6668 29.0471 19.7975 26.9164 22.4168 26.9164C25.0361 26.9164 27.1668 29.0471 27.1668 31.6664C27.1668 34.2857 25.036 36.4164 22.4168 36.4164Z" fill="#246BFD"/>
<path d="M23.2083 31.3389V29.2917C23.2083 28.8541 22.8542 28.5 22.4166 28.5C21.979 28.5 21.625 28.8541 21.625 29.2917V31.6667C21.625 31.8769 21.7085 32.078 21.8569 32.2264L23.4402 33.8097C23.5948 33.9643 23.7975 34.0417 24 34.0417C24.2025 34.0417 24.4051 33.9643 24.5598 33.8097C24.869 33.5005 24.869 32.9995 24.5598 32.6903L23.2083 31.3389Z" fill="#246BFD"/>
</g>
<defs>
<clipPath id="clip0_814_74350">
<rect width="29" height="38" fill="white"/>
</clipPath>
</defs>
</svg>
