<svg width="32" height="32" viewBox="0 0 32 32" fill="#000" xmlns="http://www.w3.org/2000/svg">
<path d="M23.0002 8H21.9002C21.6681 6.87141 21.0541 5.85735 20.1615 5.12872C19.2689 4.40009 18.1524 4.00145 17.0002 4L15.0002 4C13.848 4.00145 12.7316 4.40009 11.839 5.12872C10.9464 5.85735 10.3323 6.87141 10.1002 8H9.00024C7.67465 8.00159 6.4038 8.52888 5.46646 9.46622C4.52913 10.4036 4.00183 11.6744 4.00024 13L4.00024 16H28.0002V13C27.9987 11.6744 27.4714 10.4036 26.534 9.46622C25.5967 8.52888 24.3258 8.00159 23.0002 8ZM12.1842 8C12.3903 7.41709 12.7715 6.91209 13.2755 6.55409C13.7796 6.19608 14.382 6.00256 15.0002 6H17.0002C17.6185 6.00256 18.2209 6.19608 18.7249 6.55409C19.229 6.91209 19.6102 7.41709 19.8162 8H12.1842Z" fill="#000"/>
<path d="M17.0002 19C17.0002 19.2652 16.8949 19.5196 16.7074 19.7071C16.5198 19.8946 16.2655 20 16.0002 20C15.735 20 15.4807 19.8946 15.2931 19.7071C15.1056 19.5196 15.0002 19.2652 15.0002 19V18H4.00024V23C4.00183 24.3256 4.52913 25.5964 5.46646 26.5338C6.4038 27.4711 7.67465 27.9984 9.00024 28H23.0002C24.3258 27.9984 25.5967 27.4711 26.534 26.5338C27.4714 25.5964 27.9987 24.3256 28.0002 23V18H17.0002V19Z" fill="#000"/>
</svg>