<svg width="46" height="40" viewBox="0 0 46 40" fill="none" xmlns="http://www.w3.org/2000/svg">
<path d="M42.5409 5.35034H29.7328V3.05734C29.7328 1.3717 28.3807 0 26.7191 0H7.13034C5.46878 0 4.11668 1.3717 4.11668 3.05734V12.9937H2.60985C1.36332 12.9937 0.349609 14.0221 0.349609 15.2867V37.4524C0.349609 38.717 1.36332 39.7454 2.60985 39.7454H31.2396C32.4862 39.7454 33.4999 38.717 33.4999 37.4524V35.9237H38.0204C38.1189 35.9237 38.2164 35.9039 38.3076 35.8657C38.3987 35.8275 38.4822 35.7719 38.5531 35.6999L45.3339 28.8209C45.4788 28.6762 45.533 28.4773 45.5545 28.2804V8.40768C45.5545 6.72204 44.2024 5.35034 42.5409 5.35034V5.35034ZM5.62351 3.05734C5.62351 2.21418 6.29924 1.52867 7.13034 1.52867H26.7191C27.5502 1.52867 28.226 2.21418 28.226 3.05734V5.35034H22.9521C21.2905 5.35034 19.9384 6.72203 19.9384 8.40768V16.8154H10.144V15.2867C10.144 14.0221 9.1303 12.9937 7.88376 12.9937H5.62351V3.05734ZM31.993 37.4524C31.993 37.8741 31.655 38.2167 31.2396 38.2167H2.60985C2.19447 38.2167 1.85644 37.8741 1.85644 37.4524V15.2867C1.85644 14.8653 2.19447 14.5223 2.60985 14.5223H7.88376C8.29915 14.5223 8.63718 14.8653 8.63718 15.2867V17.5797C8.63718 18.0018 8.97453 18.344 9.39059 18.344H31.2396C31.655 18.344 31.993 18.6866 31.993 19.1084V37.4524ZM38.7738 33.3144V30.5734C38.7738 29.7306 39.4495 29.0447 40.2806 29.0447H42.9825L38.7738 33.3144ZM44.0477 27.516H40.2806C38.619 27.516 37.2669 28.887 37.2669 30.5734V34.395H33.4999V19.8727H39.5272C39.9432 19.8727 40.2806 19.5308 40.2806 19.1084C40.2806 18.6859 39.9432 18.344 39.5272 18.344H33.361C33.0489 17.4562 32.2204 16.8154 31.2396 16.8154H21.4452V8.40768C21.4452 7.56452 22.121 6.87901 22.9521 6.87901H42.5409C43.372 6.87901 44.0477 7.56452 44.0477 8.40768V27.516Z" fill="#246BFD"/>
<path d="M39.5273 12.9937H25.9658C24.9789 13.0097 24.9729 14.5049 25.9658 14.5223H39.5273C40.5134 14.5066 40.5208 13.011 39.5273 12.9937Z" fill="#246BFD"/>
<path d="M9.39047 8.40757H18.4315C19.419 8.3912 19.424 6.89594 18.4315 6.87891H9.39047C8.40294 6.89494 8.39795 8.39019 9.39047 8.40757Z" fill="#246BFD"/>
<path d="M9.39047 12.9935H18.4315C19.419 12.9771 19.424 11.4819 18.4315 11.4648H9.39047C8.40294 11.4809 8.39795 12.9761 9.39047 12.9935Z" fill="#246BFD"/>
<path d="M10.144 32.1021H5.62355C2.6439 32.1809 2.64287 36.6093 5.62355 36.6881H10.144C13.1231 36.6092 13.1251 32.1812 10.144 32.1021ZM10.144 35.1594H5.62355C4.63473 35.142 4.63232 33.6485 5.62355 33.6307H10.144C11.1329 33.6481 11.1353 35.1417 10.144 35.1594Z" fill="#246BFD"/>
</svg>
