<svg width="44" height="31" viewBox="0 0 44 31" fill="none" xmlns="http://www.w3.org/2000/svg">
<path d="M43.7771 8.7943C43.5546 8.51592 43.2203 8.34897 42.8864 8.34897H11.1047L9.99157 3.28383C9.60215 1.3915 7.8768 0 5.87294 0H1.14166C0.529384 0 0.0285645 0.500849 0.0285645 1.1131C0.0285645 1.72538 0.529414 2.22619 1.14166 2.22619H5.87294C6.76359 2.22619 7.5983 2.89399 7.76528 3.78467L10.4927 16.3638L12.9418 27.6627C13.3316 29.3326 14.8342 30.6127 16.5595 30.6127H38.3782C38.9905 30.6127 39.4913 30.1119 39.4913 29.4996C39.4913 28.8874 38.9904 28.3865 38.3782 28.3865L16.6152 28.3869C15.9474 28.3869 15.3351 27.886 15.1681 27.2178L14.4444 23.934H38.4338C38.9347 23.934 39.3245 23.6001 39.4915 23.1548L43.9443 9.79644C44.0558 9.46215 43.9999 9.12825 43.7774 8.79436L43.7771 8.7943ZM18.6745 21.7074H13.9432L12.997 17.2545L18.6744 17.2549L18.6745 21.7074ZM18.6745 15.0283H12.4963L11.5501 10.5754H18.6745L18.6745 15.0283ZM30.3631 21.7074H20.901V17.2545H30.3631V21.7074ZM30.3631 15.0283H20.901V10.5754H30.3631V15.0283ZM37.6544 21.7074H32.5893V17.2545H39.1015L37.6544 21.7074ZM39.881 15.0283H32.5893V10.5754H41.328L39.881 15.0283Z" fill="#246BFD"/>
</svg>
