<svg width="32" height="32" viewBox="0 0 32 32" fill="none" xmlns="http://www.w3.org/2000/svg">
<path d="M15.9998 9.33366C12.3198 9.33366 9.33317 12.3203 9.33317 16.0003C9.33317 19.6803 12.3198 22.667 15.9998 22.667C19.6798 22.667 22.6665 19.6803 22.6665 16.0003C22.6665 12.3203 19.6798 9.33366 15.9998 9.33366ZM15.9998 2.66699C8.63984 2.66699 2.6665 8.64033 2.6665 16.0003C2.6665 23.3603 8.63984 29.3337 15.9998 29.3337C23.3598 29.3337 29.3332 23.3603 29.3332 16.0003C29.3332 8.64033 23.3598 2.66699 15.9998 2.66699ZM15.9998 26.667C10.1065 26.667 5.33317 21.8937 5.33317 16.0003C5.33317 10.107 10.1065 5.33366 15.9998 5.33366C21.8932 5.33366 26.6665 10.107 26.6665 16.0003C26.6665 21.8937 21.8932 26.667 15.9998 26.667Z" fill="#9CA2AB"/>
</svg>