<svg width="46" height="37" viewBox="0 0 46 37" fill="none" xmlns="http://www.w3.org/2000/svg">
<g clip-path="url(#clip0_13_3525)">
<path d="M28.9794 9.30127C28.9794 8.88171 28.6421 8.5415 28.226 8.5415H8.6372C8.22115 8.5415 7.88379 8.88171 7.88379 9.30127C7.88379 9.72084 8.22115 10.061 8.6372 10.061H28.226C28.6421 10.061 28.9794 9.72084 28.9794 9.30127Z" fill="#246BFD"/>
<path d="M11.6509 11.5806H6.37695C5.54584 11.5806 4.87012 12.262 4.87012 13.1001V16.899C4.87012 17.7367 5.54584 18.4185 6.37695 18.4185H11.6509C12.482 18.4185 13.1577 17.7367 13.1577 16.899V13.1001C13.1577 12.262 12.482 11.5806 11.6509 11.5806ZM6.37695 16.899V13.1001H11.6509L11.6519 16.899H6.37695Z" fill="#246BFD"/>
<path d="M11.6509 19.938H6.37695C5.54584 19.938 4.87012 20.6198 4.87012 21.4575V25.2564C4.87012 26.0942 5.54584 26.7759 6.37695 26.7759H11.6509C12.482 26.7759 13.1577 26.0942 13.1577 25.2564V21.4575C13.1577 20.6198 12.482 19.938 11.6509 19.938ZM6.37695 25.2564V21.4575H11.6509L11.6519 25.2564H6.37695Z" fill="#246BFD"/>
<path d="M21.4453 11.5806H16.1714C15.3403 11.5806 14.6646 12.262 14.6646 13.1001V16.899C14.6646 17.7367 15.3403 18.4185 16.1714 18.4185H21.4453C22.2764 18.4185 22.9521 17.7367 22.9521 16.899V13.1001C22.9521 12.262 22.2764 11.5806 21.4453 11.5806ZM16.1714 16.899V13.1001H21.4453L21.4463 16.899H16.1714Z" fill="#246BFD"/>
<path d="M21.4453 19.938H16.1714C15.3403 19.938 14.6646 20.6198 14.6646 21.4575V25.2564C14.6646 26.0942 15.3403 26.7759 16.1714 26.7759H21.4453C22.2764 26.7759 22.9521 26.0942 22.9521 25.2564V21.4575C22.9521 20.6198 22.2764 19.938 21.4453 19.938ZM16.1714 25.2564V21.4575H21.4453L21.4463 25.2564H16.1714Z" fill="#246BFD"/>
<path d="M43.2943 11.5806H39.5272V8.54156C39.5306 6.82561 38.1045 5.44448 36.4066 5.50248C36.0696 4.19559 34.9001 3.22317 33.4999 3.22317H30.4862V2.08351C30.4862 1.03615 29.6413 0.184082 28.6027 0.184082C27.564 0.184082 26.7191 1.03611 26.7191 2.08351V3.22317H23.7055V2.08351C23.7055 1.03615 22.8606 0.184082 21.8219 0.184082C20.7833 0.184082 19.9384 1.03611 19.9384 2.08351V3.22317H16.9247V2.08351C16.9247 1.03615 16.0798 0.184082 15.0412 0.184082C14.0026 0.184082 13.1577 1.03611 13.1577 2.08351V3.22317H10.144V2.08351C10.144 1.03615 9.2991 0.184082 8.26047 0.184082C7.22183 0.184082 6.37693 1.03611 6.37693 2.08351V3.22317H3.36327C1.70171 3.22317 0.349609 4.58667 0.349609 6.26225V27.5358C0.349609 29.2121 1.70171 30.5749 3.36327 30.5749H4.8701C4.8701 32.2512 6.2222 33.614 7.88376 33.614H24.4589V34.3738C24.4589 35.6308 25.4726 36.6531 26.7191 36.6531H39.5272C39.7253 36.6531 39.9194 36.5727 40.06 36.4306L45.3339 31.1122C45.4782 30.9687 45.5333 30.7706 45.5545 30.5749V13.86C45.5545 12.6029 44.5408 11.5806 43.2943 11.5806ZM36.5135 7.02202C37.3446 7.02202 38.0204 7.70344 38.0204 8.54156V11.5806H36.5135V7.02202ZM28.226 2.08351C28.2283 1.58763 28.977 1.58626 28.9794 2.08351V5.12259C28.977 5.61848 28.2283 5.61984 28.226 5.12259V2.08351ZM21.4452 2.08351C21.4476 1.58763 22.1963 1.58626 22.1986 2.08351V5.12259C22.1963 5.61848 21.4476 5.61984 21.4452 5.12259V2.08351ZM14.6645 2.08351C14.6669 1.58763 15.4156 1.58626 15.4179 2.08351V5.12259C15.4156 5.61848 14.6668 5.61984 14.6645 5.12259V2.08351ZM7.88376 2.08351C7.88611 1.58763 8.63482 1.58626 8.63718 2.08351V5.12259C8.63482 5.61848 7.88611 5.61984 7.88376 5.12259V2.08351ZM24.4589 32.094H7.88376C7.05265 32.094 6.37693 31.4123 6.37693 30.5745H24.4589V32.094ZM24.4589 13.8595V29.0549H3.36327C2.53216 29.0549 1.85644 28.3732 1.85644 27.5354V6.26182C1.85644 5.4237 2.53216 4.74227 3.36327 4.74227H6.37693C6.13173 7.76139 10.3902 7.7593 10.144 4.74227H13.1577C12.9125 7.76139 17.1709 7.7593 16.9247 4.74227H19.9384C19.6932 7.76139 23.9516 7.7593 23.7055 4.74227H26.7191C26.4739 7.76139 30.7324 7.7593 30.4862 4.74227H33.4999C34.331 4.74227 35.0067 5.4237 35.0067 6.26182V11.5802H26.7191C25.4726 11.5802 24.4589 12.6025 24.4589 13.8595ZM40.2806 34.059V32.0941C40.2806 31.6749 40.6186 31.3343 41.034 31.3343H42.9825L40.2806 34.059ZM44.0477 29.8148H41.034C39.7875 29.8148 38.7738 30.8371 38.7738 32.0941V35.1332H26.7191C26.3038 35.1332 25.9657 34.7927 25.9657 34.3734V13.8596C25.9657 13.4407 26.3038 13.0998 26.7191 13.0998H43.2943C43.7097 13.0998 44.0477 13.4407 44.0477 13.8596V29.8148Z" fill="#246BFD"/>
<path d="M41.0341 26.0162V19.938C41.0341 19.5181 40.6967 19.1782 40.2807 19.1782H36.5136C36.0975 19.1782 35.7602 19.5181 35.7602 19.938V26.0162H34.2534V22.9771C34.2534 22.5572 33.916 22.2173 33.4999 22.2173H29.7329C29.3168 22.2173 28.9795 22.5572 28.9795 22.9771V26.0162C27.993 26.0318 27.9862 27.5188 28.9795 27.5357H41.0341C42.0206 27.5201 42.0273 26.0331 41.0341 26.0162ZM32.7465 26.0162H30.4863V23.7368H32.7465V26.0162ZM39.5273 26.0162H37.267V20.6978H39.5273V26.0162Z" fill="#246BFD"/>
<path d="M29.7328 16.8989H34.2532C35.2421 16.8827 35.2445 15.396 34.2532 15.3794H29.7328C28.7439 15.3957 28.7415 16.8824 29.7328 16.8989Z" fill="#246BFD"/>
<path d="M29.7329 19.938H32.7465C33.7361 19.9214 33.7374 18.435 32.7465 18.4185H29.7329C28.7434 18.4347 28.742 19.9214 29.7329 19.938Z" fill="#246BFD"/>
<path d="M38.0204 29.8149H31.2396C30.2514 29.8309 30.2477 31.3179 31.2396 31.3345H38.0204C39.0086 31.3185 39.0123 29.8315 38.0204 29.8149Z" fill="#246BFD"/>
</g>
<defs>
<clipPath id="clip0_13_3525">
<rect width="46" height="37" fill="white"/>
</clipPath>
</defs>
</svg>
