<svg width="24" height="44" viewBox="0 0 24 44" fill="none" xmlns="http://www.w3.org/2000/svg">
<path d="M18.9997 20.5001H10.2067L12.6457 18.0611C12.9271 17.7799 13.0852 17.3983 13.0853 17.0005C13.0854 16.6026 12.9275 16.221 12.6462 15.9396C12.365 15.6582 11.9834 15.5001 11.5856 15.5C11.1877 15.4999 10.8061 15.6579 10.5247 15.9391L6.93871 19.5251C6.28348 20.1822 5.91553 21.0722 5.91553 22.0001C5.91553 22.928 6.28348 23.8181 6.93871 24.4751L10.5247 28.0611C10.8061 28.3424 11.1877 28.5003 11.5856 28.5003C11.9834 28.5002 12.365 28.342 12.6462 28.0606C12.9275 27.7792 13.0854 27.3976 13.0853 26.9998C13.0852 26.6019 12.9271 26.2204 12.6457 25.9391L10.2067 23.5001H18.9997C19.3975 23.5001 19.7791 23.3421 20.0604 23.0608C20.3417 22.7795 20.4997 22.398 20.4997 22.0001C20.4997 21.6023 20.3417 21.2208 20.0604 20.9395C19.7791 20.6582 19.3975 20.5001 18.9997 20.5001Z" fill="#246BFD"/>
</svg>