<svg width="40" height="38" viewBox="0 0 40 38" fill="none" xmlns="http://www.w3.org/2000/svg">
<path d="M36.6668 12.3346H36.2038L30.4785 2.33673C30.0358 1.56369 29.3213 1.01033 28.4636 0.780796C28.1443 0.695953 27.8202 0.65775 27.4994 0.668531C26.9614 0.686578 26.433 0.839078 25.9538 1.11689L1.65207 15.2642C0.589722 15.8831 -0.00520012 17.011 3.42504e-05 18.1677C0.00261238 18.7263 0.14644 19.2925 0.442769 19.8099L5.00003 27.7689V34.0003C5.00003 35.8386 6.49582 37.3335 8.33339 37.3335H36.6668C38.5043 37.3335 40.0001 35.8387 40.0001 34.0003V15.6678C40 13.8295 38.5043 12.3346 36.6668 12.3346ZM5.00003 15.6668V24.4157L1.88808 18.9806C1.43238 18.1838 1.70253 17.1625 2.49191 16.7035L5.0455 15.2169C5.02519 15.3655 5.00003 15.5127 5.00003 15.6668ZM26.7937 2.55728C27.1713 2.33595 27.6107 2.2765 28.0323 2.39048C28.4571 2.50439 28.8119 2.77947 29.0333 3.16517L34.2841 12.3346H9.99847L26.7937 2.55728ZM38.3334 34.0001C38.3334 34.9188 37.5863 35.6667 36.6668 35.6667H8.33339C7.41378 35.6667 6.66675 34.9188 6.66675 34.0001V15.6668C6.66675 14.7481 7.41386 14.0002 8.33339 14.0002H36.6668C37.5864 14.0002 38.3334 14.7481 38.3334 15.6668V34.0001Z" fill="#246BFD"/>
<path d="M35.8334 27.3335H25.8334C25.3727 27.3335 25 27.7062 25 28.1669C25 28.6275 25.3727 29.0002 25.8334 29.0002H35.8334C36.294 29.0002 36.6667 28.6275 36.6667 28.1669C36.6667 27.7062 36.294 27.3335 35.8334 27.3335Z" fill="#246BFD"/>
<path d="M35.8335 22.3335H22.5001C22.0395 22.3335 21.6667 22.7062 21.6667 23.1669C21.6667 23.6275 22.0395 24.0002 22.5001 24.0002H35.8335C36.2941 24.0002 36.6668 23.6275 36.6668 23.1669C36.6668 22.7062 36.2941 22.3335 35.8335 22.3335Z" fill="#246BFD"/>
<path d="M15.0001 25.6667C16.8377 25.6667 18.3335 24.1718 18.3335 22.3334C18.3335 20.4949 16.8377 19 15.0001 19C13.1625 19 11.6667 20.4949 11.6667 22.3334C11.6667 24.1718 13.1626 25.6667 15.0001 25.6667ZM15.0001 20.6667C15.9197 20.6667 16.6667 21.4146 16.6667 22.3334C16.6667 23.2521 15.9196 24 15.0001 24C14.0805 24 13.3335 23.2521 13.3335 22.3334C13.3335 21.4145 14.0806 20.6667 15.0001 20.6667Z" fill="#246BFD"/>
<path d="M19.979 27.728C18.8137 27.1681 17.0054 26.5 15.0001 26.5C12.9949 26.5 11.1866 27.1681 10.0213 27.728C8.97967 28.2294 8.3335 29.2295 8.3335 30.3379V30.7188C8.3335 31.6091 9.08061 32.3334 10.0001 32.3334H20.0001C20.9197 32.3334 21.6668 31.6091 21.6668 30.7188V30.3379C21.6669 29.2295 21.0207 28.2294 19.979 27.728ZM20.0001 30.6667L10.0001 30.7188V30.3379C10.0001 29.8756 10.285 29.4509 10.744 29.2303C11.7531 28.7453 13.309 28.1666 15.0001 28.1666C16.6912 28.1666 18.2472 28.7452 19.2563 29.2303C19.7153 29.4509 20.0001 29.8756 20.0001 30.3379V30.6667Z" fill="#246BFD"/>
</svg>
