<svg width="50" height="50" viewBox="0 0 50 50" fill="none" xmlns="http://www.w3.org/2000/svg">
<path d="M13.6038 22.1512H14.1443V13.8406C14.1443 7.87837 19.0093 3 24.9553 3C30.9913 3 35.8559 7.87829 35.8559 13.8406V22.1512H36.3964C38.3784 22.1512 40 23.7772 40 25.7647V42.3865C40 44.374 38.3784 46 36.3964 46H13.6036C11.6216 46 10 44.374 10 42.3865V25.7647C10 23.7772 11.6216 22.1512 13.6036 22.1512H13.6038ZM30.2706 22.1512V13.8406C30.2706 11.0403 27.838 8.60123 24.9554 8.60123C22.1628 8.60123 19.7303 11.0404 19.7303 13.8406V22.1512H30.271H30.2706ZM17.928 22.1512V13.8406C17.928 10.0466 21.1712 6.7943 24.9551 6.7943C28.8291 6.7943 32.0722 10.0463 32.0722 13.8406V22.1512H34.0542V13.8406C34.0542 8.87205 30.0002 4.80677 24.9554 4.80677C20.0004 4.80677 15.9463 8.8719 15.9463 13.8406V22.1512H17.928ZM36.3966 23.958H13.6038C12.6128 23.958 11.8019 24.7712 11.8019 25.7649V42.3868C11.8019 43.3804 12.6128 44.1936 13.6038 44.1936H36.3966C37.3876 44.1936 38.1985 43.3804 38.1985 42.3868V25.7649C38.1985 24.7712 37.3876 23.958 36.3966 23.958Z" fill="#246BFD"/>
<path fill-rule="evenodd" clip-rule="evenodd" d="M24.9634 30C26.1272 30 27 31.0434 27 32.4347C27 33.0433 26.7817 33.652 26.4182 34.1739L26.7092 38H23.2908L23.5818 34.1739C23.2181 33.6522 23 33.0436 23 32.4347C23 31.0434 23.8728 30 24.9639 30H24.9634Z" fill="#246BFD"/>
</svg>
