<svg width="32" height="32" viewBox="0 0 32 32" fill="#000" xmlns="http://www.w3.org/2000/svg">
<path d="M16.9562 2.66675C17.9645 2.66675 18.8774 3.22675 19.3816 4.05341C19.6269 4.45341 19.7904 4.94675 19.7495 5.46675C19.7223 5.86675 19.8449 6.26675 20.0629 6.64008C20.7578 7.77342 22.2976 8.20008 23.4967 7.56008C24.8457 6.78675 26.5489 7.25342 27.3256 8.57342L28.2386 10.1467C29.0289 11.4667 28.5928 13.1601 27.2302 13.9201C26.072 14.6001 25.6632 16.1067 26.3582 17.2534C26.5762 17.6134 26.8215 17.9201 27.203 18.1067C27.6799 18.3601 28.0478 18.7601 28.3067 19.1601C28.8109 19.9867 28.77 21.0001 28.2794 21.8934L27.3256 23.4934C26.8215 24.3468 25.8813 24.8801 24.9138 24.8801C24.4369 24.8801 23.9055 24.7468 23.4694 24.4801C23.1152 24.2534 22.7064 24.1734 22.2703 24.1734C20.9214 24.1734 19.7904 25.2801 19.7495 26.6001C19.7495 28.1334 18.4959 29.3334 16.9289 29.3334H15.0758C13.4951 29.3334 12.2415 28.1334 12.2415 26.6001C12.2143 25.2801 11.0833 24.1734 9.73433 24.1734C9.28467 24.1734 8.87588 24.2534 8.53523 24.4801C8.0992 24.7468 7.55415 24.8801 7.09086 24.8801C6.10978 24.8801 5.16958 24.3468 4.66542 23.4934L3.72522 21.8934C3.22105 21.0268 3.1938 19.9867 3.69797 19.1601C3.91598 18.7601 4.32477 18.3601 4.78805 18.1067C5.16958 17.9201 5.41485 17.6134 5.6465 17.2534C6.3278 16.1067 5.91902 14.6001 4.7608 13.9201C3.41182 13.1601 2.97578 11.4667 3.75247 10.1467L4.66542 8.57342C5.45573 7.25342 7.14537 6.78675 8.50798 7.56008C9.69345 8.20008 11.2332 7.77342 11.9281 6.64008C12.1461 6.26675 12.2688 5.86675 12.2415 5.46675C12.2143 4.94675 12.3642 4.45341 12.6231 4.05341C13.1272 3.22675 14.0402 2.69341 15.0349 2.66675H16.9562ZM16.016 12.2401C13.8767 12.2401 12.1461 13.9201 12.1461 16.0134C12.1461 18.1068 13.8767 19.7734 16.016 19.7734C18.1553 19.7734 19.8449 18.1068 19.8449 16.0134C19.8449 13.9201 18.1553 12.2401 16.016 12.2401Z" fill="#000"/>
</svg>
