<svg width="24" height="24" viewBox="0 0 24 24" fill="none" xmlns="http://www.w3.org/2000/svg">
<path d="M11.3675 17.2431C11.3531 17.6003 11.2417 17.9373 11.0045 18.1957L9.71339 19.6022L7.65911 21.84L7.19091 22.35C7.08572 22.4646 6.96403 22.5545 6.83409 22.6174C6.37827 22.8398 5.80901 22.7522 5.43982 22.35L1.62619 18.1957C1.40137 17.9508 1.26318 17.5891 1.26318 17.2431C1.26318 16.9128 1.39725 16.5174 1.62619 16.2904C1.86132 16.0545 2.1707 15.8793 2.50071 15.895C2.83071 15.913 3.14215 16.0343 3.37935 16.2904L4.67049 17.6969L5.07681 18.1395V3.37589C5.07681 3.13099 5.07475 2.88609 5.07681 2.64344V2.61199C5.07681 2.26598 5.215 1.90425 5.43982 1.65935C5.65432 1.42568 6.00702 1.25043 6.31433 1.26391C6.63403 1.27964 6.96609 1.39423 7.18885 1.65935C7.4116 1.92222 7.55186 2.24801 7.55186 2.61199V18.1463L8.78731 16.8005L9.25551 16.2904C9.48033 16.0455 9.81239 15.895 10.13 15.895C10.4332 15.895 10.7962 16.041 11.0045 16.2904C11.2211 16.5466 11.382 16.8836 11.3675 17.2431V17.2431Z" fill="#246BFD"/>
<path d="M11.3536 8.8017C11.0168 8.8017 10.7153 8.94704 10.4721 9.17788C10.2267 9.40871 10.1207 9.75283 10.1061 10.0841C10.0937 10.4026 10.2558 10.7681 10.4721 10.9904C10.6987 11.2233 11.0334 11.3665 11.3536 11.3665H11.3702C11.7798 11.3708 12.1914 11.3665 12.601 11.3665H21.4889C21.8258 11.3665 22.1272 11.2212 22.3705 10.9904C22.6158 10.7595 22.7218 10.4154 22.7364 10.0841C22.7488 9.76565 22.5867 9.40016 22.3705 9.17788C22.1438 8.9449 21.8091 8.8017 21.4889 8.8017H21.4723C21.0627 8.79742 20.6511 8.8017 20.2415 8.8017H11.3536ZM18.2851 7.59622C18.624 7.59622 18.9234 7.45088 19.1666 7.22004C19.412 6.98921 19.518 6.64509 19.5326 6.3138C19.545 5.99533 19.3829 5.62984 19.1666 5.40755C18.94 5.17458 18.6053 5.03137 18.2851 5.03137H11.3536C11.0168 5.03137 10.7153 5.17671 10.4721 5.40755C10.2267 5.63839 10.1207 5.9825 10.1061 6.3138C10.0937 6.63226 10.2558 6.99776 10.4721 7.22004C10.6987 7.45302 11.0334 7.59622 11.3536 7.59622H18.2851ZM15.0792 3.82803C15.4181 3.82803 15.7175 3.68269 15.9607 3.45185C16.2061 3.22102 16.3121 2.8769 16.3267 2.54561C16.3391 2.22714 16.177 1.86165 15.9607 1.63936C15.7341 1.40639 15.3994 1.26318 15.0792 1.26318H11.3536C11.0168 1.26318 10.7153 1.40853 10.4721 1.63936C10.2267 1.8702 10.1207 2.21431 10.1061 2.54561C10.0937 2.86408 10.2558 3.22957 10.4721 3.45185C10.6987 3.68483 11.0334 3.82803 11.3536 3.82803H15.0792Z" fill="#246BFD"/>
</svg>
