<svg width="37" height="33" viewBox="0 0 37 33" fill="none" xmlns="http://www.w3.org/2000/svg">
<mask id="path-1-outside-1_4385_39505" maskUnits="userSpaceOnUse" x="0" y="0.75" width="37" height="32" fill="black">
<rect fill="white" y="0.75" width="37" height="32"/>
<path fill-rule="evenodd" clip-rule="evenodd" d="M24.0211 2.79788C23.2838 2.1238 22.321 1.75 21.322 1.75H15.678C14.679 1.75 13.7162 2.1238 12.9789 2.79788L10.8961 4.70212C10.1588 5.3762 9.19603 5.75 8.19705 5.75H7C3.68629 5.75 1 8.43629 1 11.75V25.5C1 28.8137 3.68629 31.5 7 31.5H30C33.3137 31.5 36 28.8137 36 25.5V11.75C36 8.43629 33.3137 5.75 30 5.75H28.803C27.804 5.75 26.8412 5.3762 26.1039 4.70212L24.0211 2.79788ZM15.678 3.75H21.322C21.8215 3.75 22.3029 3.9369 22.6716 4.27394L24.7543 6.17817C25.8603 7.18929 27.3045 7.75 28.803 7.75H30C32.2091 7.75 34 9.54086 34 11.75V25.5C34 27.7091 32.2091 29.5 30 29.5H7C4.79086 29.5 3 27.7091 3 25.5V11.75C3 9.54086 4.79086 7.75 7 7.75H8.19705C9.69552 7.75 11.1397 7.18929 12.2457 6.17817L14.3284 4.27394C14.6971 3.9369 15.1785 3.75 15.678 3.75ZM12.2964 13.7817C12.3497 13.8177 12.3956 13.8636 12.4315 13.9169L14.2634 16.6346C14.4178 16.8636 14.3573 17.1743 14.1283 17.3286C14.0457 17.3843 13.9484 17.414 13.8488 17.414L12.7694 17.4146C13.0119 20.5482 15.5021 23 18.5221 23C19.6217 23 20.6746 22.6758 21.5859 22.0723C21.9313 21.8437 22.3966 21.9382 22.6253 22.2836C22.854 22.629 22.7594 23.0943 22.4141 23.323C21.2598 24.0873 19.9195 24.5 18.5221 24.5C14.66 24.5 11.5132 21.3641 11.2657 17.4141L10.185 17.414C9.90887 17.414 9.68501 17.1902 9.68501 16.914C9.68501 16.8145 9.71474 16.7171 9.7704 16.6346L11.6023 13.9169C11.7567 13.6879 12.0674 13.6274 12.2964 13.7817ZM25.6543 16.9384C25.4068 12.9884 22.26 9.8525 18.3979 9.8525C17.0005 9.8525 15.6602 10.2652 14.5059 11.0295C14.1606 11.2582 14.066 11.7235 14.2947 12.0689C14.5234 12.4143 14.9887 12.5088 15.3341 12.2802C16.2454 11.6767 17.2983 11.3525 18.3979 11.3525C21.4179 11.3525 23.9081 13.8043 24.1506 16.9379L23.0712 16.9385C22.9716 16.9385 22.8743 16.9682 22.7917 17.0238C22.5627 17.1782 22.5022 17.4889 22.6566 17.7179L24.4885 20.4356C24.5244 20.4889 24.5703 20.5348 24.6236 20.5708C24.8526 20.7251 25.1633 20.6646 25.3177 20.4356L27.1496 17.7179C27.2053 17.6353 27.235 17.538 27.235 17.4385C27.235 17.1623 27.0111 16.9385 26.735 16.9385L25.6543 16.9384Z"/>
</mask>
<path fill-rule="evenodd" clip-rule="evenodd" d="M24.0211 2.79788C23.2838 2.1238 22.321 1.75 21.322 1.75H15.678C14.679 1.75 13.7162 2.1238 12.9789 2.79788L10.8961 4.70212C10.1588 5.3762 9.19603 5.75 8.19705 5.75H7C3.68629 5.75 1 8.43629 1 11.75V25.5C1 28.8137 3.68629 31.5 7 31.5H30C33.3137 31.5 36 28.8137 36 25.5V11.75C36 8.43629 33.3137 5.75 30 5.75H28.803C27.804 5.75 26.8412 5.3762 26.1039 4.70212L24.0211 2.79788ZM15.678 3.75H21.322C21.8215 3.75 22.3029 3.9369 22.6716 4.27394L24.7543 6.17817C25.8603 7.18929 27.3045 7.75 28.803 7.75H30C32.2091 7.75 34 9.54086 34 11.75V25.5C34 27.7091 32.2091 29.5 30 29.5H7C4.79086 29.5 3 27.7091 3 25.5V11.75C3 9.54086 4.79086 7.75 7 7.75H8.19705C9.69552 7.75 11.1397 7.18929 12.2457 6.17817L14.3284 4.27394C14.6971 3.9369 15.1785 3.75 15.678 3.75ZM12.2964 13.7817C12.3497 13.8177 12.3956 13.8636 12.4315 13.9169L14.2634 16.6346C14.4178 16.8636 14.3573 17.1743 14.1283 17.3286C14.0457 17.3843 13.9484 17.414 13.8488 17.414L12.7694 17.4146C13.0119 20.5482 15.5021 23 18.5221 23C19.6217 23 20.6746 22.6758 21.5859 22.0723C21.9313 21.8437 22.3966 21.9382 22.6253 22.2836C22.854 22.629 22.7594 23.0943 22.4141 23.323C21.2598 24.0873 19.9195 24.5 18.5221 24.5C14.66 24.5 11.5132 21.3641 11.2657 17.4141L10.185 17.414C9.90887 17.414 9.68501 17.1902 9.68501 16.914C9.68501 16.8145 9.71474 16.7171 9.7704 16.6346L11.6023 13.9169C11.7567 13.6879 12.0674 13.6274 12.2964 13.7817ZM25.6543 16.9384C25.4068 12.9884 22.26 9.8525 18.3979 9.8525C17.0005 9.8525 15.6602 10.2652 14.5059 11.0295C14.1606 11.2582 14.066 11.7235 14.2947 12.0689C14.5234 12.4143 14.9887 12.5088 15.3341 12.2802C16.2454 11.6767 17.2983 11.3525 18.3979 11.3525C21.4179 11.3525 23.9081 13.8043 24.1506 16.9379L23.0712 16.9385C22.9716 16.9385 22.8743 16.9682 22.7917 17.0238C22.5627 17.1782 22.5022 17.4889 22.6566 17.7179L24.4885 20.4356C24.5244 20.4889 24.5703 20.5348 24.6236 20.5708C24.8526 20.7251 25.1633 20.6646 25.3177 20.4356L27.1496 17.7179C27.2053 17.6353 27.235 17.538 27.235 17.4385C27.235 17.1623 27.0111 16.9385 26.735 16.9385L25.6543 16.9384Z" fill="white"/>
<path d="M24.0211 2.79788L24.6959 2.05986V2.05986L24.0211 2.79788ZM12.9789 2.79788L13.6536 3.53591L12.9789 2.79788ZM10.8961 4.70212L10.2214 3.96409L10.8961 4.70212ZM26.1039 4.70212L25.4291 5.44014V5.44014L26.1039 4.70212ZM22.6716 4.27394L21.9968 5.01197L21.9968 5.01197L22.6716 4.27394ZM24.7543 6.17817L24.0796 6.9162L24.7543 6.17817ZM12.2457 6.17817L12.9204 6.9162H12.9204L12.2457 6.17817ZM14.3284 4.27394L13.6536 3.53591L13.6536 3.53591L14.3284 4.27394ZM12.4315 13.9169L11.6023 14.4758L11.6023 14.4758L12.4315 13.9169ZM12.2964 13.7817L11.7375 14.6109L11.7375 14.6109L12.2964 13.7817ZM14.2634 16.6346L15.0927 16.0756L15.0927 16.0756L14.2634 16.6346ZM14.1283 17.3286L14.6873 18.1579L14.6873 18.1579L14.1283 17.3286ZM13.8488 17.414V16.414H13.8484L13.8488 17.414ZM12.7694 17.4146L12.7689 16.4146L11.689 16.4151L11.7723 17.4917L12.7694 17.4146ZM21.5859 22.0723L22.138 22.9061H22.138L21.5859 22.0723ZM22.4141 23.323L21.862 22.4892L21.862 22.4892L22.4141 23.323ZM11.2657 17.4141L12.2637 17.3515L12.205 16.4141L11.2657 16.4141L11.2657 17.4141ZM10.185 17.414L10.185 16.414H10.185V17.414ZM9.7704 16.6346L10.5996 17.1935L9.7704 16.6346ZM11.6023 13.9169L12.4315 14.4758L12.4315 14.4758L11.6023 13.9169ZM25.6543 16.9384L24.6563 17.001L24.715 17.9384L25.6543 17.9384L25.6543 16.9384ZM14.5059 11.0295L15.058 11.8633L15.058 11.8633L14.5059 11.0295ZM14.2947 12.0689L13.4609 12.621L13.4609 12.621L14.2947 12.0689ZM15.3341 12.2802L14.782 11.4464L15.3341 12.2802ZM24.1506 16.9379L24.1511 17.9379L25.231 17.9374L25.1477 16.8608L24.1506 16.9379ZM23.0712 16.9385V17.9385H23.0716L23.0712 16.9385ZM22.7917 17.0238L23.3506 17.8531L23.3506 17.8531L22.7917 17.0238ZM22.6566 17.7179L23.4858 17.159L23.4858 17.159L22.6566 17.7179ZM24.4885 20.4356L25.3177 19.8767L25.3177 19.8767L24.4885 20.4356ZM24.6236 20.5708L25.1825 19.7416L25.1825 19.7415L24.6236 20.5708ZM25.3177 20.4356L24.4885 19.8767L24.4885 19.8767L25.3177 20.4356ZM27.1496 17.7179L27.9788 18.2769L27.9788 18.2769L27.1496 17.7179ZM26.735 16.9385L26.735 17.9385H26.735V16.9385ZM21.322 2.75C22.0713 2.75 22.7934 3.03035 23.3464 3.53591L24.6959 2.05986C23.7743 1.21726 22.5708 0.75 21.322 0.75V2.75ZM15.678 2.75H21.322V0.75H15.678V2.75ZM13.6536 3.53591C14.2066 3.03035 14.9287 2.75 15.678 2.75V0.75C14.4292 0.75 13.2257 1.21726 12.3041 2.05986L13.6536 3.53591ZM11.5709 5.44014L13.6536 3.53591L12.3041 2.05986L10.2214 3.96409L11.5709 5.44014ZM8.19705 6.75C9.44577 6.75 10.6493 6.28274 11.5709 5.44014L10.2214 3.96409C9.6684 4.46965 8.94628 4.75 8.19705 4.75V6.75ZM7 6.75H8.19705V4.75H7V6.75ZM2 11.75C2 8.98858 4.23858 6.75 7 6.75V4.75C3.13401 4.75 0 7.88401 0 11.75H2ZM2 25.5V11.75H0V25.5H2ZM7 30.5C4.23858 30.5 2 28.2614 2 25.5H0C0 29.366 3.13401 32.5 7 32.5V30.5ZM30 30.5H7V32.5H30V30.5ZM35 25.5C35 28.2614 32.7614 30.5 30 30.5V32.5C33.866 32.5 37 29.366 37 25.5H35ZM35 11.75V25.5H37V11.75H35ZM30 6.75C32.7614 6.75 35 8.98858 35 11.75H37C37 7.88401 33.866 4.75 30 4.75V6.75ZM28.803 6.75H30V4.75H28.803V6.75ZM25.4291 5.44014C26.3507 6.28274 27.5542 6.75 28.803 6.75V4.75C28.0537 4.75 27.3316 4.46965 26.7786 3.96409L25.4291 5.44014ZM23.3464 3.53591L25.4291 5.44014L26.7786 3.96409L24.6959 2.05986L23.3464 3.53591ZM21.322 2.75H15.678V4.75H21.322V2.75ZM23.3464 3.53591C22.7934 3.03035 22.0713 2.75 21.322 2.75V4.75C21.5718 4.75 21.8125 4.84345 21.9968 5.01197L23.3464 3.53591ZM25.4291 5.44014L23.3464 3.53591L21.9968 5.01197L24.0796 6.9162L25.4291 5.44014ZM28.803 6.75C27.5542 6.75 26.3507 6.28274 25.4291 5.44014L24.0796 6.9162C25.3698 8.09584 27.0547 8.75 28.803 8.75V6.75ZM30 6.75H28.803V8.75H30V6.75ZM35 11.75C35 8.98858 32.7614 6.75 30 6.75V8.75C31.6569 8.75 33 10.0931 33 11.75H35ZM35 25.5V11.75H33V25.5H35ZM30 30.5C32.7614 30.5 35 28.2614 35 25.5H33C33 27.1569 31.6569 28.5 30 28.5V30.5ZM7 30.5H30V28.5H7V30.5ZM2 25.5C2 28.2614 4.23858 30.5 7 30.5V28.5C5.34315 28.5 4 27.1569 4 25.5H2ZM2 11.75V25.5H4V11.75H2ZM7 6.75C4.23858 6.75 2 8.98858 2 11.75H4C4 10.0931 5.34315 8.75 7 8.75V6.75ZM8.19705 6.75H7V8.75H8.19705V6.75ZM11.5709 5.44014C10.6493 6.28274 9.44577 6.75 8.19705 6.75V8.75C9.94526 8.75 11.6302 8.09584 12.9204 6.9162L11.5709 5.44014ZM13.6536 3.53591L11.5709 5.44014L12.9204 6.9162L15.0032 5.01197L13.6536 3.53591ZM15.678 2.75C14.9287 2.75 14.2066 3.03035 13.6536 3.53591L15.0032 5.01197C15.1875 4.84345 15.4282 4.75 15.678 4.75V2.75ZM13.2607 13.3579C13.1529 13.198 13.0153 13.0603 12.8553 12.9525L11.7375 14.6109C11.6841 14.575 11.6383 14.5291 11.6023 14.4758L13.2607 13.3579ZM15.0927 16.0756L13.2607 13.3579L11.6023 14.4758L13.4342 17.1935L15.0927 16.0756ZM14.6873 18.1579C15.3742 17.6948 15.5557 16.7626 15.0927 16.0756L13.4342 17.1935C13.2799 16.9645 13.3404 16.6538 13.5694 16.4994L14.6873 18.1579ZM13.8488 18.414C14.1476 18.414 14.4395 18.3248 14.6873 18.1579L13.5694 16.4994C13.6519 16.4438 13.7493 16.414 13.8488 16.414V18.414ZM12.7698 18.4146L13.8493 18.414L13.8484 16.414L12.7689 16.4146L12.7698 18.4146ZM18.5221 22C16.071 22 13.9723 19.998 13.7664 17.3374L11.7723 17.4917C12.0515 21.0984 14.9332 24 18.5221 24V22ZM21.0338 21.2386C20.283 21.7357 19.4215 22 18.5221 22V24C19.8218 24 21.0662 23.6159 22.138 22.9061L21.0338 21.2386ZM23.4591 21.7315C22.9255 20.9257 21.8397 20.705 21.0338 21.2386L22.138 22.9061C22.0229 22.9824 21.8678 22.9508 21.7916 22.8357L23.4591 21.7315ZM22.9662 24.1568C23.772 23.6232 23.9927 22.5373 23.4591 21.7315L21.7916 22.8357C21.7153 22.7206 21.7469 22.5655 21.862 22.4892L22.9662 24.1568ZM18.5221 25.5C20.1194 25.5 21.6511 25.0276 22.9662 24.1568L21.862 22.4892C20.8685 23.1471 19.7197 23.5 18.5221 23.5V25.5ZM10.2676 17.4766C10.5456 21.912 14.0913 25.5 18.5221 25.5V23.5C15.2286 23.5 12.4808 20.8161 12.2637 17.3515L10.2676 17.4766ZM10.185 18.414L11.2657 18.4141L11.2657 16.4141L10.185 16.414L10.185 18.414ZM8.68501 16.914C8.68501 17.7425 9.35658 18.414 10.185 18.414V16.414C10.4612 16.414 10.685 16.6379 10.685 16.914H8.68501ZM8.9412 16.0756C8.77421 16.3234 8.68501 16.6153 8.68501 16.914H10.685C10.685 17.0136 10.6553 17.1109 10.5996 17.1935L8.9412 16.0756ZM10.7731 13.3579L8.9412 16.0756L10.5996 17.1935L12.4315 14.4758L10.7731 13.3579ZM12.8553 12.9525C12.1684 12.4895 11.2362 12.671 10.7731 13.3579L12.4315 14.4758C12.2772 14.7048 11.9664 14.7653 11.7375 14.6109L12.8553 12.9525ZM18.3979 10.8525C21.6914 10.8525 24.4392 13.5364 24.6563 17.001L26.6524 16.8759C26.3744 12.4405 22.8287 8.8525 18.3979 8.8525V10.8525ZM15.058 11.8633C16.0515 11.2054 17.2003 10.8525 18.3979 10.8525V8.8525C16.8006 8.8525 15.2689 9.32493 13.9538 10.1957L15.058 11.8633ZM15.1284 11.5168C15.2047 11.6319 15.1731 11.787 15.058 11.8633L13.9538 10.1957C13.148 10.7293 12.9273 11.8152 13.4609 12.621L15.1284 11.5168ZM14.782 11.4464C14.8971 11.3701 15.0522 11.4017 15.1284 11.5168L13.4609 12.621C13.9945 13.4268 15.0803 13.6475 15.8862 13.1139L14.782 11.4464ZM18.3979 10.3525C17.0982 10.3525 15.8538 10.7366 14.782 11.4464L15.8862 13.1139C16.637 12.6168 17.4985 12.3525 18.3979 12.3525V10.3525ZM25.1477 16.8608C24.8685 13.2541 21.9868 10.3525 18.3979 10.3525V12.3525C20.849 12.3525 22.9477 14.3545 23.1536 17.0151L25.1477 16.8608ZM23.0716 17.9385L24.1511 17.9379L24.1502 15.9379L23.0707 15.9385L23.0716 17.9385ZM23.3506 17.8531C23.2681 17.9087 23.1707 17.9385 23.0712 17.9385V15.9385C22.7724 15.9385 22.4805 16.0277 22.2327 16.1946L23.3506 17.8531ZM23.4858 17.159C23.6401 17.388 23.5796 17.6987 23.3506 17.8531L22.2327 16.1946C21.5458 16.6577 21.3643 17.5899 21.8274 18.2769L23.4858 17.159ZM25.3177 19.8767L23.4858 17.159L21.8273 18.2769L23.6593 20.9946L25.3177 19.8767ZM25.1825 19.7415C25.2359 19.7775 25.2817 19.8234 25.3177 19.8767L23.6593 20.9946C23.7671 21.1545 23.9047 21.2922 24.0647 21.4L25.1825 19.7415ZM24.4885 19.8767C24.6428 19.6477 24.9536 19.5872 25.1825 19.7416L24.0647 21.4C24.7516 21.863 25.6838 21.6815 26.1469 20.9946L24.4885 19.8767ZM26.3204 17.159L24.4885 19.8767L26.1469 20.9946L27.9788 18.2769L26.3204 17.159ZM26.235 17.4385C26.235 17.3389 26.2647 17.2415 26.3204 17.159L27.9788 18.2769C28.1458 18.0291 28.235 17.7372 28.235 17.4385H26.235ZM26.735 17.9385C26.4589 17.9385 26.235 17.7146 26.235 17.4385H28.235C28.235 16.61 27.5634 15.9385 26.735 15.9385V17.9385ZM25.6543 17.9384L26.735 17.9385L26.735 15.9385L25.6544 15.9384L25.6543 17.9384Z" fill="black" fill-opacity="0.2" mask="url(#path-1-outside-1_4385_39505)"/>
</svg>
