<svg width="38" height="41" viewBox="0 0 38 41" fill="none" xmlns="http://www.w3.org/2000/svg">
<path d="M2.13801 33.3055H20.817C21.3759 34.1292 22.6152 34.6094 22.8121 35.6353H22.8124C22.8466 36.3244 23.1217 36.9797 23.59 37.4885C23.2898 37.891 23.1498 38.3898 23.1974 38.889C23.245 39.3878 23.4767 39.8517 23.8478 40.1911C24.2192 40.53 24.7036 40.7209 25.208 40.7263H27.9223H27.922C28.4263 40.7209 28.9107 40.53 29.2821 40.1908C29.6532 39.8515 29.885 39.3876 29.9325 38.8887C29.9801 38.3896 29.8401 37.8908 29.5393 37.4882C30.4944 36.7136 29.9713 35.2168 31.0609 34.5058C35.936 30.958 34.492 23.1005 28.6839 21.486L33.758 12.7496H33.7583C34.0234 12.2836 34.094 11.7324 33.9546 11.2152C33.8153 10.6977 33.4775 10.2551 33.0134 9.98301L16.5563 0.540675C16.0876 0.276356 15.533 0.206518 15.0129 0.346503C14.4924 0.486189 14.0489 0.824562 13.7784 1.28788L11.6333 4.9832H2.13877C1.59894 4.9838 1.08151 5.19724 0.699805 5.57656C0.318107 5.95558 0.103632 6.46978 0.103027 7.00624V31.2826C0.103633 31.819 0.318107 32.3332 0.699805 32.7125C1.0815 33.0919 1.59893 33.305 2.13877 33.3056L2.13801 33.3055ZM27.9214 39.3776H25.2071C24.8375 39.3704 24.5419 39.0705 24.5419 38.7033C24.5419 38.336 24.8375 38.0362 25.2071 38.0289H27.9214C28.291 38.0361 28.5869 38.336 28.5869 38.7033C28.5869 39.0705 28.291 39.3704 27.9214 39.3776ZM32.6714 28.5881C32.6778 30.4929 31.7772 32.2883 30.2428 33.4295C29.4085 34.0936 28.896 35.0775 28.8315 36.1378C28.7672 36.4524 28.4894 36.679 28.1659 36.6802H24.9627C24.6394 36.6793 24.361 36.453 24.2968 36.1381C24.2308 35.0738 23.7149 34.0877 22.8767 33.4224C21.1857 32.154 20.28 30.1034 20.4844 28.008C21.4862 20.4082 32.4312 20.9022 32.6716 28.5882L32.6714 28.5881ZM32.5805 12.0772L27.2773 21.2089C25.8633 21.0689 24.4388 21.3359 23.1735 21.9787V7.00675C23.1717 6.42784 22.9187 5.87786 22.4798 5.4973L32.3288 11.1479H32.3285C32.6529 11.3382 32.765 11.7512 32.5805 12.0775L32.5805 12.0772ZM14.9539 1.95971C15.1399 1.63729 15.5538 1.52561 15.8785 1.70985L21.7824 5.09689C21.5752 5.02434 21.3574 4.98581 21.1374 4.98309H13.1985L14.9539 1.95971ZM1.45852 7.00611C1.45882 6.63402 1.76236 6.33206 2.13709 6.33176H21.1371C21.5115 6.33206 21.8154 6.63402 21.8157 7.00611V22.8666C20.5116 23.9453 19.6145 25.4321 19.2716 27.0834C18.9284 28.7346 19.1595 30.4527 19.9271 31.9564H2.13694C1.9564 31.9582 1.78251 31.8877 1.65498 31.761C1.52745 31.6343 1.45656 31.4615 1.45837 31.282L1.45852 7.00611Z" fill="#246BFD"/>
<path d="M32.7675 23.4609C32.8832 23.5979 33.0489 23.6837 33.228 23.6993C33.4073 23.715 33.5854 23.6593 33.7233 23.5443L35.2824 22.2441C35.5675 22.0042 35.6038 21.5806 35.3636 21.2961C35.1237 21.0119 34.6978 20.9737 34.4103 21.2106L32.8511 22.5108V22.5111C32.7133 22.6258 32.6269 22.7905 32.6115 22.9687C32.5957 23.1469 32.6518 23.3239 32.7675 23.4609V23.4609Z" fill="#246BFD"/>
<path d="M34.5488 27.2572C34.6146 27.6236 34.966 27.8681 35.335 27.8042L37.3395 27.4529C37.7079 27.3873 37.9536 27.0381 37.8884 26.6717C37.8236 26.3053 37.4722 26.0606 37.1035 26.1244L35.099 26.4757C34.9218 26.507 34.7643 26.6066 34.661 26.7533C34.558 26.8999 34.5177 27.0811 34.5489 27.2572L34.5488 27.2572Z" fill="#246BFD"/>
<path d="M36.9637 31.7188L35.0507 31.027H35.0504C34.7008 30.9084 34.3197 31.0897 34.1934 31.435C34.0671 31.7803 34.2419 32.1626 34.5866 32.2947C34.7057 32.3248 36.6674 33.0864 36.7317 33.0275C37.0576 33.0218 37.3339 32.7872 37.3902 32.4681C37.4469 32.149 37.2682 31.835 36.9637 31.7188L36.9637 31.7188Z" fill="#246BFD"/>
<path d="M4.85005 13.7526H7.56433C7.92422 13.7523 8.26926 13.6099 8.52372 13.357C8.77818 13.1042 8.92117 12.7616 8.92147 12.4039V9.70658C8.92117 9.34894 8.77818 9.00635 8.52372 8.75348C8.26926 8.50062 7.92421 8.35821 7.56433 8.35791H4.85005C4.49047 8.35821 4.14543 8.50061 3.89097 8.75348C3.63652 9.00636 3.49352 9.34895 3.49292 9.70658V12.4039C3.49353 12.7616 3.63651 13.1042 3.89097 13.357C4.14543 13.6099 4.49048 13.7523 4.85005 13.7526ZM4.85005 9.70656H7.56433L7.56494 12.4039H4.85003L4.85005 9.70656Z" fill="#246BFD"/>
<path d="M11.6357 10.3809H19.1C19.4696 10.3737 19.7655 10.0738 19.7655 9.70657C19.7655 9.33929 19.4696 9.03946 19.1 9.03223H11.6357C11.2661 9.03945 10.9705 9.33929 10.9705 9.70657C10.9705 10.0738 11.2661 10.3737 11.6357 10.3809Z" fill="#246BFD"/>
<path d="M11.6357 13.0782H17.0643C17.4338 13.071 17.7298 12.7711 17.7298 12.4038C17.7298 12.0366 17.4338 11.7367 17.0643 11.7295H11.6357C11.2661 11.7367 10.9705 12.0366 10.9705 12.4038C10.9705 12.7711 11.2661 13.0709 11.6357 13.0782Z" fill="#246BFD"/>
<path d="M4.85005 20.4963H7.56433C7.92422 20.496 8.26926 20.3536 8.52372 20.1007C8.77818 19.8478 8.92117 19.5052 8.92147 19.1476V16.4502C8.92117 16.0926 8.77818 15.75 8.52372 15.4971C8.26926 15.2443 7.92421 15.1019 7.56433 15.1016H4.85005C4.49047 15.1019 4.14543 15.2443 3.89097 15.4971C3.63652 15.75 3.49352 16.0926 3.49292 16.4502V19.1476C3.49353 19.5052 3.63651 19.8478 3.89097 20.1007C4.14543 20.3536 4.49048 20.496 4.85005 20.4963ZM4.85005 16.4502H7.56433L7.56494 19.1476H4.85003L4.85005 16.4502Z" fill="#246BFD"/>
<path d="M11.6357 17.1246H19.1C19.4696 17.1173 19.7655 16.8175 19.7655 16.4502C19.7655 16.0829 19.4696 15.7831 19.1 15.7759H11.6357C11.2661 15.7831 10.9705 16.0829 10.9705 16.4502C10.9705 16.8175 11.2661 17.1173 11.6357 17.1246Z" fill="#246BFD"/>
<path d="M11.6357 19.8218H17.0643C17.4338 19.8146 17.7298 19.5148 17.7298 19.1475C17.7298 18.7802 17.4338 18.4804 17.0643 18.4731H11.6357C11.2661 18.4804 10.9705 18.7802 10.9705 19.1475C10.9705 19.5148 11.2661 19.8146 11.6357 19.8218Z" fill="#246BFD"/>
<path d="M4.85005 27.2394H7.56433C7.92422 27.2391 8.26926 27.0967 8.52372 26.8439C8.77818 26.591 8.92117 26.2484 8.92147 25.8908V23.1934C8.92117 22.8358 8.77818 22.4932 8.52372 22.2403C8.26926 21.9874 7.92421 21.845 7.56433 21.8447H4.85005C4.49047 21.845 4.14543 21.9874 3.89097 22.2403C3.63652 22.4932 3.49352 22.8358 3.49292 23.1934V25.8908C3.49353 26.2484 3.63651 26.591 3.89097 26.8439C4.14543 27.0967 4.49048 27.2391 4.85005 27.2394ZM4.85005 23.1934H7.56433L7.56494 25.8907H4.85003L4.85005 23.1934Z" fill="#246BFD"/>
<path d="M11.6357 23.8677H19.1C19.4696 23.8605 19.7655 23.5607 19.7655 23.1934C19.7655 22.8261 19.4696 22.5263 19.1 22.519H11.6357C11.2661 22.5263 10.9705 22.8261 10.9705 23.1934C10.9705 23.5607 11.2661 23.8605 11.6357 23.8677Z" fill="#246BFD"/>
<path d="M11.6357 26.565H17.0643C17.4338 26.5578 17.7298 26.2579 17.7298 25.8907C17.7298 25.5234 17.4338 25.2235 17.0643 25.2163H11.6357C11.2661 25.2235 10.9705 25.5234 10.9705 25.8907C10.9705 26.2579 11.2661 26.5578 11.6357 26.565Z" fill="#246BFD"/>
</svg>
