<svg width="50" height="38" viewBox="0 0 50 38" fill="none" xmlns="http://www.w3.org/2000/svg">
<g clip-path="url(#clip0_814_74047)">
<path d="M34.9266 36.7849C37.2306 33.5688 36.7959 28.8127 33.9414 26.0869C32.2899 24.5114 29.899 23.3992 27.6126 23.8516C27.4685 23.9353 27.353 24.0609 27.281 24.2124C26.9512 24.9052 25.9922 25.3897 24.9485 25.3897C23.9048 25.3897 22.9461 24.9052 22.616 24.2124C22.544 24.0609 22.4131 23.9257 22.2694 23.8419C19.9768 23.4103 17.6088 24.5066 15.956 26.0866C13.1018 28.8125 12.666 33.569 14.9707 36.7845C15.4285 37.4443 16.1813 37.8374 16.9841 37.8374H32.9134C33.7163 37.8374 34.469 37.4444 34.9268 36.7845L34.9266 36.7849ZM16.3102 35.8302C13.3061 31.6672 16.3366 25.4993 21.4117 25.395C22.805 27.5685 27.0923 27.5685 28.4852 25.395C33.5615 25.5006 36.5905 31.6678 33.5867 35.8312C33.4358 36.049 33.1839 36.1787 32.913 36.1787L16.9836 36.1783C16.7131 36.1783 16.4608 36.0486 16.3098 35.8308L16.3102 35.8302Z" fill="#246BFD"/>
<path d="M47.0599 9.6218C47.1601 4.71829 42.891 0.391604 38.0517 0.493462C33.0848 0.493462 29.0435 4.58827 29.0435 9.6218V10.4598C29.0628 11.5497 30.6619 11.5516 30.6813 10.4598C30.096 0.0956942 44.9728 -0.836581 45.422 9.6218V16.5488C44.0544 15.7919 42.3661 15.2166 40.7779 15.5155C40.609 15.5952 40.469 15.7319 40.3853 15.9078C40.0482 16.6154 39.1105 17.0904 38.0517 17.0904C36.9928 17.0904 36.0551 16.6155 35.718 15.9078C35.6343 15.7319 35.4939 15.5952 35.3254 15.5155C34.5558 15.2929 33.6945 15.5037 32.9271 15.6433C32.4869 15.7478 32.2135 16.1946 32.3166 16.6403C32.605 17.7069 33.7669 17.06 34.5156 17.0926C35.9125 19.2695 40.1911 19.2687 41.5883 17.0934C50.2024 17.8884 49.5067 29.7422 42.1466 30.3672H39.6898C37.532 30.3097 37.5288 27.1059 39.6898 27.0478H44.6034C45.6793 27.0296 45.6801 25.4062 44.6034 25.3881H39.6898C35.3615 25.5266 35.3608 31.8883 39.6898 32.0269H42.1466C48.3668 31.9654 52.3519 23.1167 47.0602 17.8246V9.62132L47.0599 9.6218Z" fill="#246BFD"/>
<path d="M11.846 15.4307C15.9099 15.4307 19.2163 12.0802 19.2163 7.9621C18.8112 -1.94582 4.87897 -1.94297 4.47559 7.9621C4.47559 12.0802 7.782 15.4307 11.846 15.4307ZM11.846 2.15316C15.0068 2.15316 17.5785 4.75907 17.5785 7.9621C17.2904 15.6579 6.40077 15.6556 6.11344 7.9621C6.11344 4.75907 8.68507 2.15316 11.846 2.15316Z" fill="#246BFD"/>
<path d="M24.7024 23.5237C28.4768 23.5237 31.5477 20.4038 31.5477 16.5691C31.1714 7.34316 18.2318 7.34581 17.8572 16.5691C17.8572 20.4038 20.928 23.5237 24.7024 23.5237ZM24.7024 11.16C27.6381 11.16 30.0265 13.5865 30.0265 16.5691C29.7589 23.7352 19.6452 23.733 19.3783 16.5691C19.3783 13.5865 21.7667 11.16 24.7024 11.16Z" fill="#246BFD"/>
<path d="M7.75129 32.0278H10.2081C14.536 31.8885 14.5374 25.5283 10.2081 25.389H5.2945C4.21894 25.4071 4.21744 27.0306 5.2945 27.0487H10.2081C12.3655 27.1043 12.3691 30.311 10.2081 30.3681H7.75129C0.386444 29.742 -0.303422 17.8701 8.30918 17.0933C9.70651 19.2702 13.9853 19.2702 15.3823 17.0933C16.1321 17.0607 17.2925 17.7076 17.5813 16.641C17.6844 16.1953 17.411 15.7489 16.9708 15.6444C16.2038 15.5044 15.3406 15.2943 14.5725 15.5162C14.4043 15.5959 14.2636 15.7326 14.1799 15.9086C13.5061 17.4604 10.1857 17.4594 9.5127 15.9086C9.37671 15.6222 9.08825 15.4418 8.77969 15.4314C6.57336 15.3877 4.45107 16.2094 2.85673 17.7839C-2.46341 23.0631 1.51462 31.9719 7.75168 32.0289L7.75129 32.0278Z" fill="#246BFD"/>
<path d="M37.6428 15.4307C41.359 15.7438 44.094 12.973 43.7847 9.20686C43.4787 1.47703 31.6094 2.20465 32.3197 10.0367C32.3193 13.0108 34.7074 15.4307 37.6424 15.4307H37.6428ZM33.9576 9.20686C33.9576 7.14779 35.6108 5.47254 37.6428 5.47254H38.4617C40.4937 5.47254 42.1469 7.14779 42.1469 9.20686V10.0367C42.1469 12.0958 40.4937 13.771 38.4617 13.771H37.6428C35.6108 13.771 33.9576 12.0958 33.9576 10.0367V9.20686Z" fill="#246BFD"/>
</g>
<defs>
<clipPath id="clip0_814_74047">
<rect width="50" height="38" fill="white"/>
</clipPath>
</defs>
</svg>
