<svg width="32" height="32" viewBox="0 0 32 32" fill="#000" xmlns="http://www.w3.org/2000/svg">
<path d="M16.0002 4C13.6269 4 11.3068 4.70379 9.33341 6.02236C7.36002 7.34094 5.82195 9.21509 4.9137 11.4078C4.00544 13.6005 3.7678 16.0133 4.23083 18.3411C4.69385 20.6689 5.83674 22.8071 7.51497 24.4853C9.1932 26.1635 11.3314 27.3064 13.6592 27.7694C15.9869 28.2324 18.3997 27.9948 20.5925 27.0866C22.7852 26.1783 24.6593 24.6402 25.9779 22.6668C27.2965 20.6935 28.0002 18.3734 28.0002 16C27.9968 12.8185 26.7314 9.76821 24.4817 7.51852C22.232 5.26883 19.1818 4.00344 16.0002 4V4ZM17.0002 15.879C17.0004 16.0485 16.9574 16.2153 16.8753 16.3636C16.7933 16.5119 16.6749 16.637 16.5312 16.727L12.6912 19.127C12.5796 19.1967 12.4554 19.2438 12.3255 19.2655C12.1957 19.2872 12.0629 19.2831 11.9347 19.2535C11.8064 19.2239 11.6853 19.1693 11.5782 19.0929C11.471 19.0164 11.38 18.9196 11.3102 18.808C11.2405 18.6964 11.1935 18.5721 11.1717 18.4423C11.15 18.3125 11.1541 18.1797 11.1837 18.0514C11.2134 17.9232 11.2679 17.802 11.3444 17.6949C11.4208 17.5878 11.5176 17.4967 11.6292 17.427L15.0002 15.325V11C15.0002 10.7348 15.1056 10.4804 15.2931 10.2929C15.4807 10.1054 15.735 10 16.0002 10C16.2655 10 16.5198 10.1054 16.7074 10.2929C16.8949 10.4804 17.0002 10.7348 17.0002 11V15.879Z" fill="#000"/>
</svg>