<svg width="32" height="32" viewBox="0 0 32 32" fill="none" xmlns="http://www.w3.org/2000/svg">
<path d="M27.9003 15.4542C27.5074 12.4296 25.9775 9.66808 23.6217 7.73099C21.2658 5.7939 18.2607 4.82656 15.2172 5.0256C12.1737 5.22463 9.32021 6.57511 7.23668 8.80253C5.15315 11.0299 3.99596 13.9672 4.00032 17.0171C3.99455 18.6497 4.32538 20.2658 4.97213 21.7648C5.61889 23.2637 6.5677 24.6133 7.75932 25.7291C8.67066 26.5729 9.87147 27.034 11.1133 27.0171H20.8803C22.1923 27.0202 23.4528 26.5069 24.3893 25.5881C25.724 24.2896 26.7366 22.6969 27.3462 20.9374C27.9558 19.1778 28.1456 17.3001 27.9003 15.4542V15.4542ZM11.4723 23.6781C11.3855 23.7768 11.2802 23.8574 11.1622 23.9154C11.0443 23.9733 10.9161 24.0074 10.785 24.0158C10.6538 24.0241 10.5223 24.0066 10.398 23.9641C10.2737 23.9216 10.1589 23.855 10.0603 23.7681C8.68591 22.5615 7.71209 20.9644 7.26876 19.19C6.82543 17.4156 6.93367 15.5482 7.57904 13.8369C8.2244 12.1256 9.37622 10.6517 10.8808 9.6119C12.3855 8.5721 14.1714 8.01578 16.0003 8.01715C16.7589 8.01738 17.5144 8.11245 18.2493 8.30015C18.3766 8.33298 18.4961 8.39055 18.6011 8.46958C18.7061 8.54861 18.7945 8.64755 18.8613 8.76074C18.928 8.87393 18.9719 8.99917 18.9902 9.1293C19.0086 9.25943 19.0011 9.3919 18.9683 9.51915C18.9355 9.6464 18.8779 9.76594 18.7989 9.87094C18.7199 9.97594 18.6209 10.0643 18.5077 10.1311C18.3945 10.1979 18.2693 10.2417 18.1392 10.2601C18.009 10.2784 17.8766 10.271 17.7493 10.2382C16.2258 9.84327 14.6137 9.97379 13.1735 10.6086C11.7334 11.2434 10.5495 12.3454 9.81315 13.7363C9.07684 15.1273 8.8312 16.726 9.11595 18.2738C9.4007 19.8217 10.1992 21.2283 11.3823 22.2661C11.481 22.3529 11.5616 22.4583 11.6195 22.5762C11.6775 22.6942 11.7116 22.8224 11.7199 22.9535C11.7283 23.0846 11.7107 23.2161 11.6682 23.3405C11.6258 23.4648 11.5592 23.5796 11.4723 23.6781V23.6781ZM16.0003 19.0171C15.7136 19.0209 15.4295 18.963 15.1671 18.8474C14.9048 18.7317 14.6704 18.561 14.4798 18.3468C14.2892 18.1326 14.1469 17.88 14.0625 17.6059C13.9781 17.3319 13.9537 17.043 13.9907 16.7587C14.0278 16.4744 14.1256 16.2014 14.2774 15.9582C14.4292 15.715 14.6316 15.5073 14.8707 15.3491C15.1099 15.191 15.3802 15.0861 15.6635 15.0416C15.9467 14.9971 16.2362 15.014 16.5123 15.0912L20.2933 11.3102C20.3856 11.2146 20.4959 11.1385 20.6179 11.086C20.7399 11.0336 20.8711 11.0061 21.0039 11.0049C21.1367 11.0037 21.2684 11.029 21.3913 11.0793C21.5142 11.1296 21.6258 11.2039 21.7197 11.2978C21.8136 11.3916 21.8879 11.5033 21.9381 11.6262C21.9884 11.7491 22.0137 11.8808 22.0126 12.0136C22.0114 12.1463 21.9838 12.2776 21.9314 12.3996C21.879 12.5216 21.8028 12.6319 21.7073 12.7241L17.9263 16.5051C18.0097 16.8009 18.0229 17.1121 17.965 17.4138C17.9071 17.7156 17.7795 17.9997 17.5926 18.2436C17.4056 18.4875 17.1643 18.6844 16.8879 18.8187C16.6115 18.9529 16.3076 19.0209 16.0003 19.0171V19.0171ZM21.9403 23.7681C21.7404 23.936 21.4827 24.019 21.2224 23.9994C20.9621 23.9799 20.7198 23.8593 20.5472 23.6634C20.3745 23.4676 20.2854 23.212 20.2987 22.9513C20.312 22.6906 20.4267 22.4454 20.6183 22.2681C21.5907 21.4154 22.3075 20.3096 22.689 19.0738C23.0705 17.838 23.1018 16.5206 22.7793 15.2682C22.713 15.0112 22.7515 14.7383 22.8864 14.5097C23.0212 14.2811 23.2413 14.1155 23.4983 14.0491C23.7553 13.9828 24.0281 14.0213 24.2567 14.1562C24.4853 14.291 24.651 14.5112 24.7173 14.7682C24.9051 15.5031 25.0001 16.2586 25.0003 17.0171C24.9988 18.2952 24.7252 19.5582 24.1976 20.7223C23.6699 21.8863 22.9005 22.9246 21.9403 23.7681V23.7681Z" fill="#000"/>
</svg>