<svg width="42" height="42" viewBox="0 0 42 42" fill="none" xmlns="http://www.w3.org/2000/svg">
<g clip-path="url(#clip0_814_74341)">
<path d="M22.3546 2.70972C21.9808 2.70972 21.6772 3.01244 21.6772 3.38714C21.6772 3.76183 21.9808 4.06456 22.3546 4.06456C32.4401 4.06456 40.645 12.2695 40.645 22.3549C40.645 32.4403 32.4401 40.6452 22.3546 40.6452C12.2692 40.6452 4.06431 32.4403 4.06431 22.3549C4.06431 21.9802 3.76068 21.6775 3.38689 21.6775C3.0131 21.6775 2.70947 21.9802 2.70947 22.3549C2.70947 33.1866 11.5221 42 22.3546 42C33.1872 42 41.9998 33.1866 41.9998 22.3549C41.9998 11.5231 33.1872 2.70972 22.3546 2.70972Z" fill="#246BFD"/>
<path d="M28.6499 29.6083C28.782 29.7402 28.9556 29.8067 29.1289 29.8067C29.3022 29.8067 29.4758 29.7402 29.6079 29.6083C29.8729 29.3434 29.8729 28.9152 29.6079 28.6506L23.0321 22.0747V11.5163C23.0321 11.1416 22.7285 10.8389 22.3547 10.8389C21.9809 10.8389 21.6772 11.1416 21.6772 11.5163V22.355C21.6772 22.5352 21.7483 22.7073 21.8756 22.834L28.6499 29.6083Z" fill="#246BFD"/>
<path d="M20.3226 19.6452V3.3871C20.3226 3.0124 20.0189 2.70968 19.6452 2.70968H16.2581V2.03226C16.2581 0.911768 15.3463 0 14.2258 0H6.09677C4.97628 0 4.06452 0.911768 4.06452 2.03226V2.70968H0.677419C0.303631 2.70968 0 3.0124 0 3.3871V19.6452C0 20.0199 0.303631 20.3226 0.677419 20.3226H19.6452C20.0189 20.3226 20.3226 20.0199 20.3226 19.6452ZM5.41935 2.03226C5.41935 1.65847 5.72359 1.35484 6.09677 1.35484H14.2258C14.599 1.35484 14.9032 1.65847 14.9032 2.03226V2.70968H5.41935V2.03226ZM1.35484 4.06452H18.9677V7.45161C18.9677 8.5721 18.056 9.48387 16.9355 9.48387H12.871V7.45161C12.871 7.07692 12.5673 6.77419 12.1935 6.77419H8.12903C7.75524 6.77419 7.45161 7.07692 7.45161 7.45161V9.48387H3.3871C2.26661 9.48387 1.35484 8.5721 1.35484 7.45161V4.06452ZM8.80645 8.12903H11.5161V11.5161C11.5161 11.8899 11.2119 12.1935 10.8387 12.1935H9.48387C9.11069 12.1935 8.80645 11.8899 8.80645 11.5161V8.12903ZM1.35484 18.9677V10.1435C1.92248 10.5735 2.62165 10.8384 3.3871 10.8384H7.45161V11.5159C7.45161 12.6364 8.36338 13.5481 9.48387 13.5481H10.8387C11.9592 13.5481 12.871 12.6364 12.871 11.5159V10.8384H16.9355C17.7009 10.8384 18.4001 10.5735 18.9677 10.1435V18.9677H1.35484Z" fill="#246BFD"/>
<path d="M15.1609 36.1687L16.1667 34.4264C16.3536 34.1019 16.2426 33.6879 15.9187 33.501C15.5948 33.3141 15.1802 33.4245 14.9933 33.749L13.9886 35.4886C12.0738 34.2644 10.4437 32.6347 9.21945 30.7194L10.959 29.7147C11.2835 29.5278 11.3939 29.1132 11.207 28.7893C11.0195 28.4648 10.6055 28.3538 10.2816 28.5413L8.53933 29.5472C7.51175 27.582 6.89053 25.3735 6.7895 23.0309L8.80604 23.0315C9.17983 23.0315 9.48346 22.7288 9.48346 22.3541C9.48346 21.9794 9.17983 21.6767 8.80604 21.6767H6.09636C5.72258 21.6767 5.41895 21.9794 5.41895 22.3541C5.41895 25.4215 6.24277 28.2978 7.67409 30.782C7.68014 30.795 7.68014 30.8092 7.6877 30.8219C7.69859 30.84 7.71341 30.8537 7.7255 30.8706C9.20553 33.4027 11.3225 35.517 13.8567 36.9937C13.8682 37.0013 13.8749 37.0133 13.8873 37.02C13.9054 37.0309 13.9251 37.0348 13.9441 37.043C16.4236 38.4698 19.294 39.2902 22.3542 39.2902C25.4144 39.2902 28.2849 38.4697 30.765 37.0445C30.7841 37.0357 30.8037 37.0315 30.8219 37.0215C30.834 37.0148 30.8409 37.0024 30.8524 36.9952C33.3867 35.5185 35.5036 33.4042 36.9837 30.8711C36.9958 30.8542 37.0109 30.8412 37.0209 30.8231C37.0284 30.81 37.0275 30.7958 37.0345 30.7831C38.4658 28.2984 39.2896 25.4222 39.2896 22.3545C39.2896 19.2868 38.4658 16.4108 37.0345 13.9266C37.0284 13.9136 37.0284 13.8994 37.0209 13.8867C37.0133 13.8737 37.0012 13.867 36.993 13.8556C35.513 11.3158 33.3918 9.19498 30.8521 7.71465C30.8406 7.70709 30.834 7.69499 30.8216 7.68834C30.8095 7.68078 30.7953 7.68168 30.7829 7.67533C28.2985 6.24277 25.4216 5.41895 22.3542 5.41895C21.9804 5.41895 21.6768 5.72167 21.6768 6.09636V8.80604C21.6768 9.18074 21.9804 9.48346 22.3542 9.48346C22.728 9.48346 23.0317 9.18074 23.0317 8.80604V6.79074C25.3742 6.89175 27.5824 7.51291 29.5479 8.54057L28.542 10.2828C28.3552 10.6073 28.4661 11.0213 28.79 11.2082C28.8965 11.2699 29.0135 11.2989 29.1281 11.2989C29.3625 11.2989 29.5902 11.1777 29.7154 10.9602L30.7201 9.22069C32.635 10.4448 34.2651 12.0746 35.4893 13.9899L33.7498 14.9946C33.4253 15.1814 33.3149 15.5961 33.5018 15.9199C33.6279 16.1374 33.8547 16.2587 34.0891 16.2587C34.2037 16.2587 34.3201 16.2296 34.4272 16.1679L36.1694 15.1621C37.197 17.1272 37.8182 19.3358 37.9193 21.6783L35.9027 21.6777C35.5289 21.6777 35.2253 21.9804 35.2253 22.3551C35.2253 22.7298 35.5289 23.0326 35.9027 23.0326H37.918C37.817 25.3751 37.1958 27.5833 36.1682 29.5488L34.4259 28.543C34.1008 28.3561 33.6874 28.4677 33.5005 28.7909C33.3136 29.1154 33.4246 29.5295 33.7485 29.7163L35.4881 30.721C34.2639 32.6359 32.6342 34.266 30.7189 35.4902L29.7142 33.7507C29.5267 33.4262 29.1112 33.3152 28.7888 33.5027C28.4643 33.6896 28.3539 34.1042 28.5408 34.4281L29.5467 36.1703C27.5815 37.1979 25.373 37.8191 23.0304 37.9201L23.031 35.903C23.031 35.5283 22.7274 35.2256 22.3536 35.2256C21.9798 35.2256 21.6762 35.5283 21.6762 35.903V37.9183C19.3343 37.8173 17.126 37.1961 15.1606 36.1685L15.1609 36.1687Z" fill="#246BFD"/>
</g>
<defs>
<clipPath id="clip0_814_74341">
<rect width="42" height="42" fill="white"/>
</clipPath>
</defs>
</svg>
