<svg width="42" height="42" viewBox="0 0 42 42" fill="none" xmlns="http://www.w3.org/2000/svg">
<g clip-path="url(#clip0_13_3475)">
<path d="M22.3549 2.70996C21.9811 2.70996 21.6775 3.01269 21.6775 3.38738C21.6775 3.76207 21.9811 4.0648 22.3549 4.0648C32.4403 4.0648 40.6452 12.2697 40.6452 22.3551C40.6452 32.4405 32.4403 40.6455 22.3549 40.6455C12.2695 40.6455 4.06456 32.4405 4.06456 22.3551C4.06456 21.9804 3.76092 21.6777 3.38714 21.6777C3.01335 21.6777 2.70972 21.9804 2.70972 22.3551C2.70972 33.1869 11.5224 42.0003 22.3549 42.0003C33.1874 42.0003 42 33.1869 42 22.3551C42 11.5234 33.1874 2.70996 22.3549 2.70996Z" fill="#246BFD"/>
<path d="M28.6499 29.6083C28.782 29.7402 28.9556 29.8067 29.1289 29.8067C29.3022 29.8067 29.4758 29.7402 29.6079 29.6083C29.8729 29.3434 29.8729 28.9152 29.6079 28.6506L23.0321 22.0747V11.5163C23.0321 11.1416 22.7285 10.8389 22.3547 10.8389C21.9809 10.8389 21.6772 11.1416 21.6772 11.5163V22.355C21.6772 22.5352 21.7483 22.7073 21.8756 22.834L28.6499 29.6083Z" fill="#246BFD"/>
<path d="M20.3226 19.6452V3.3871C20.3226 3.0124 20.0189 2.70968 19.6452 2.70968H16.2581V2.03226C16.2581 0.911768 15.3463 0 14.2258 0H6.09677C4.97628 0 4.06452 0.911768 4.06452 2.03226V2.70968H0.677419C0.303631 2.70968 0 3.0124 0 3.3871V19.6452C0 20.0199 0.303631 20.3226 0.677419 20.3226H19.6452C20.0189 20.3226 20.3226 20.0199 20.3226 19.6452ZM5.41935 2.03226C5.41935 1.65847 5.72359 1.35484 6.09677 1.35484H14.2258C14.599 1.35484 14.9032 1.65847 14.9032 2.03226V2.70968H5.41935V2.03226ZM1.35484 4.06452H18.9677V7.45161C18.9677 8.5721 18.056 9.48387 16.9355 9.48387H12.871V7.45161C12.871 7.07692 12.5673 6.77419 12.1935 6.77419H8.12903C7.75524 6.77419 7.45161 7.07692 7.45161 7.45161V9.48387H3.3871C2.26661 9.48387 1.35484 8.5721 1.35484 7.45161V4.06452ZM8.80645 8.12903H11.5161V11.5161C11.5161 11.8899 11.2119 12.1935 10.8387 12.1935H9.48387C9.11069 12.1935 8.80645 11.8899 8.80645 11.5161V8.12903ZM1.35484 18.9677V10.1435C1.92248 10.5735 2.62165 10.8384 3.3871 10.8384H7.45161V11.5159C7.45161 12.6364 8.36338 13.5481 9.48387 13.5481H10.8387C11.9592 13.5481 12.871 12.6364 12.871 11.5159V10.8384H16.9355C17.7009 10.8384 18.4001 10.5735 18.9677 10.1435V18.9677H1.35484Z" fill="#246BFD"/>
<path d="M15.1611 36.1687L16.1669 34.4264C16.3538 34.1019 16.2428 33.6879 15.9189 33.501C15.5951 33.3141 15.1804 33.4245 14.9936 33.749L13.9889 35.4886C12.074 34.2644 10.4439 32.6347 9.2197 30.7194L10.9592 29.7147C11.2837 29.5278 11.3941 29.1132 11.2072 28.7893C11.0197 28.4648 10.6057 28.3538 10.2818 28.5413L8.53958 29.5472C7.51199 27.582 6.89078 25.3735 6.78974 23.0309L8.80629 23.0315C9.18007 23.0315 9.48371 22.7288 9.48371 22.3541C9.48371 21.9794 9.18007 21.6767 8.80629 21.6767H6.09661C5.72282 21.6767 5.41919 21.9794 5.41919 22.3541C5.41919 25.4215 6.24301 28.2978 7.67434 30.782C7.68039 30.795 7.68039 30.8092 7.68795 30.8219C7.69883 30.84 7.71365 30.8537 7.72575 30.8706C9.20577 33.4027 11.3227 35.517 13.857 36.9937C13.8685 37.0013 13.8751 37.0133 13.8875 37.02C13.9057 37.0309 13.9253 37.0348 13.9444 37.043C16.4239 38.4698 19.2942 39.2902 22.3544 39.2902C25.4147 39.2902 28.2851 38.4697 30.7653 37.0445C30.7843 37.0357 30.804 37.0315 30.8221 37.0215C30.8342 37.0148 30.8412 37.0024 30.8527 36.9952C33.3869 35.5185 35.5039 33.4042 36.9839 30.8711C36.996 30.8542 37.0111 30.8412 37.0211 30.8231C37.0287 30.81 37.0278 30.7958 37.0347 30.7831C38.466 28.2984 39.2899 25.4222 39.2899 22.3545C39.2899 19.2868 38.466 16.4108 37.0347 13.9266C37.0287 13.9136 37.0287 13.8994 37.0211 13.8867C37.0135 13.8737 37.0014 13.867 36.9933 13.8556C35.5132 11.3158 33.392 9.19498 30.8524 7.71465C30.8409 7.70709 30.8342 7.69499 30.8218 7.68834C30.8097 7.68078 30.7955 7.68168 30.7831 7.67533C28.2987 6.24277 25.4218 5.41895 22.3545 5.41895C21.9807 5.41895 21.6771 5.72167 21.6771 6.09636V8.80604C21.6771 9.18074 21.9807 9.48346 22.3545 9.48346C22.7283 9.48346 23.0319 9.18074 23.0319 8.80604V6.79074C25.3744 6.89175 27.5827 7.51291 29.5481 8.54057L28.5423 10.2828C28.3554 10.6073 28.4664 11.0213 28.7903 11.2082C28.8967 11.2699 29.0138 11.2989 29.1284 11.2989C29.3628 11.2989 29.5905 11.1777 29.7157 10.9602L30.7203 9.22069C32.6352 10.4448 34.2653 12.0746 35.4895 13.9899L33.75 14.9946C33.4255 15.1814 33.3151 15.5961 33.502 15.9199C33.6281 16.1374 33.8549 16.2587 34.0893 16.2587C34.2039 16.2587 34.3204 16.2296 34.4274 16.1679L36.1697 15.1621C37.1973 17.1272 37.8185 19.3358 37.9195 21.6783L35.903 21.6777C35.5292 21.6777 35.2255 21.9804 35.2255 22.3551C35.2255 22.7298 35.5292 23.0326 35.903 23.0326H37.9183C37.8172 25.3751 37.1961 27.5833 36.1684 29.5488L34.4262 28.543C34.1011 28.3561 33.6877 28.4677 33.5008 28.7909C33.3139 29.1154 33.4249 29.5295 33.7488 29.7163L35.4883 30.721C34.2641 32.6359 32.6344 34.266 30.7191 35.4902L29.7144 33.7507C29.5269 33.4262 29.1114 33.3152 28.7891 33.5027C28.4646 33.6896 28.3542 34.1042 28.5411 34.4281L29.5469 36.1703C27.5818 37.1979 25.3732 37.8191 23.0307 37.9201L23.0313 35.903C23.0313 35.5283 22.7276 35.2256 22.3539 35.2256C21.9801 35.2256 21.6764 35.5283 21.6764 35.903V37.9183C19.3345 37.8173 17.1263 37.1961 15.1608 36.1685L15.1611 36.1687Z" fill="#246BFD"/>
</g>
<defs>
<clipPath id="clip0_13_3475">
<rect width="42" height="42" fill="white"/>
</clipPath>
</defs>
</svg>
