<svg width="20" height="20" viewBox="0 0 20 20" fill="none" xmlns="http://www.w3.org/2000/svg">
<g clip-path="url(#clip0_365_78092)">
<path d="M0 7.50016V15.0002C0.00132321 16.1048 0.440735 17.1639 1.22185 17.945C2.00296 18.7261 3.062 19.1655 4.16667 19.1668H15.8333C16.938 19.1655 17.997 18.7261 18.7782 17.945C19.5593 17.1639 19.9987 16.1048 20 15.0002V7.50016H0ZM11.6667 15.8335H5C4.77899 15.8335 4.56702 15.7457 4.41074 15.5894C4.25446 15.4331 4.16667 15.2212 4.16667 15.0002C4.16667 14.7791 4.25446 14.5672 4.41074 14.4109C4.56702 14.2546 4.77899 14.1668 5 14.1668H11.6667C11.8877 14.1668 12.0996 14.2546 12.2559 14.4109C12.4122 14.5672 12.5 14.7791 12.5 15.0002C12.5 15.2212 12.4122 15.4331 12.2559 15.5894C12.0996 15.7457 11.8877 15.8335 11.6667 15.8335ZM15 12.5002H5C4.77899 12.5002 4.56702 12.4124 4.41074 12.2561C4.25446 12.0998 4.16667 11.8878 4.16667 11.6668C4.16667 11.4458 4.25446 11.2339 4.41074 11.0776C4.56702 10.9213 4.77899 10.8335 5 10.8335H15C15.221 10.8335 15.433 10.9213 15.5893 11.0776C15.7455 11.2339 15.8333 11.4458 15.8333 11.6668C15.8333 11.8878 15.7455 12.0998 15.5893 12.2561C15.433 12.4124 15.221 12.5002 15 12.5002ZM20 5.8335V5.00016C19.9987 3.8955 19.5593 2.83646 18.7782 2.05535C17.997 1.27423 16.938 0.834819 15.8333 0.833496H4.16667C3.062 0.834819 2.00296 1.27423 1.22185 2.05535C0.440735 2.83646 0.00132321 3.8955 0 5.00016L0 5.8335H20ZM8.33333 2.50016C8.49815 2.50016 8.65927 2.54904 8.79631 2.6406C8.93335 2.73217 9.04016 2.86232 9.10323 3.01459C9.16631 3.16686 9.18281 3.33442 9.15065 3.49607C9.1185 3.65772 9.03913 3.80621 8.92259 3.92275C8.80604 4.03929 8.65756 4.11866 8.49591 4.15082C8.33426 4.18297 8.1667 4.16647 8.01443 4.1034C7.86216 4.04032 7.73201 3.93351 7.64044 3.79647C7.54887 3.65943 7.5 3.49831 7.5 3.3335C7.5 3.11248 7.5878 2.90052 7.74408 2.74424C7.90036 2.58796 8.11232 2.50016 8.33333 2.50016ZM5.83333 2.50016C5.99815 2.50016 6.15927 2.54904 6.29631 2.6406C6.43335 2.73217 6.54016 2.86232 6.60323 3.01459C6.66631 3.16686 6.68281 3.33442 6.65065 3.49607C6.6185 3.65772 6.53913 3.80621 6.42259 3.92275C6.30605 4.03929 6.15756 4.11866 5.99591 4.15082C5.83426 4.18297 5.6667 4.16647 5.51443 4.1034C5.36216 4.04032 5.23201 3.93351 5.14044 3.79647C5.04887 3.65943 5 3.49831 5 3.3335C5 3.11248 5.0878 2.90052 5.24408 2.74424C5.40036 2.58796 5.61232 2.50016 5.83333 2.50016ZM3.33333 2.50016C3.49815 2.50016 3.65927 2.54904 3.79631 2.6406C3.93335 2.73217 4.04016 2.86232 4.10323 3.01459C4.16631 3.16686 4.18281 3.33442 4.15065 3.49607C4.1185 3.65772 4.03913 3.80621 3.92259 3.92275C3.80605 4.03929 3.65756 4.11866 3.49591 4.15082C3.33426 4.18297 3.1667 4.16647 3.01443 4.1034C2.86216 4.04032 2.73201 3.93351 2.64044 3.79647C2.54887 3.65943 2.5 3.49831 2.5 3.3335C2.5 3.11248 2.5878 2.90052 2.74408 2.74424C2.90036 2.58796 3.11232 2.50016 3.33333 2.50016Z" fill="#001D52"/>
</g>
<defs>
<clipPath id="clip0_365_78092">
<rect width="20" height="20" fill="white"/>
</clipPath>
</defs>
</svg>
