<svg width="44" height="44" viewBox="0 0 44 44" fill="none" xmlns="http://www.w3.org/2000/svg">
<rect width="44" height="44" rx="22" fill="white"/>
<path d="M29 30H15C12.8 30 11 28.2 11 26V18C11 15.8 12.8 14 15 14H29C31.2 14 33 15.8 33 18V26C33 28.2 31.2 30 29 30Z" fill="#246BFD"/>
<path d="M21.9999 22.6003C21.3999 22.6003 20.6999 22.4003 20.1999 22.1003L15.1999 19.2003C14.6999 19.0003 14.4999 18.3003 14.7999 17.9003C14.9999 17.4003 15.6999 17.2003 16.0999 17.5003L21.0999 20.4003C21.5999 20.7003 22.2999 20.7003 22.7999 20.4003L27.7999 17.5003C28.2999 17.2003 28.8999 17.4003 29.1999 17.9003C29.4999 18.4003 29.2999 19.0003 28.7999 19.3003L23.7999 22.2003C23.2999 22.4003 22.5999 22.6003 21.9999 22.6003Z" fill="white"/>
</svg>
