<svg width="44" height="44" viewBox="0 0 44 44" fill="none" xmlns="http://www.w3.org/2000/svg">
<rect width="44" height="44" rx="22" fill="white"/>
<g clip-path="url(#clip0_4532_42322)">
<path fill-rule="evenodd" clip-rule="evenodd" d="M13 28.0006H18.7C20.9988 27.9808 23.211 27.121 24.9198 25.5832C26.6286 24.0453 27.7159 21.9356 27.977 19.6516C28.0705 18.3633 27.8856 17.0699 27.4348 15.8593C26.9841 14.6488 26.278 13.5494 25.3646 12.636C24.4512 11.7226 23.3518 11.0166 22.1413 10.5658C20.9308 10.115 19.6374 9.9301 18.349 10.0236C16.0659 10.2844 13.9569 11.3708 12.4192 13.0784C10.8814 14.7859 10.021 16.9968 10 19.2946V24.3346C10 26.8666 11.507 28.0006 13 28.0006ZM29.988 19.0806H30C31.215 19.7821 32.2241 20.7907 32.9262 22.0053C33.6282 23.2199 33.9986 24.5977 34 26.0006V31.0006C34 31.7963 33.6839 32.5593 33.1213 33.1219C32.5587 33.6846 31.7956 34.0006 31 34.0006H26C24.5974 33.9981 23.2201 33.6268 22.0062 32.924C20.7924 32.2213 19.7846 31.2117 19.084 29.9966V29.9816C24.647 29.7786 29.59 25.2006 29.976 19.7926C29.988 19.5546 29.988 19.3176 29.988 19.0806ZM14.7998 19.92C15.33 19.92 15.7598 19.4902 15.7598 18.96C15.7598 18.4298 15.33 18 14.7998 18C14.2697 18 13.8398 18.4298 13.8398 18.96C13.8398 19.4902 14.2697 19.92 14.7998 19.92ZM18.6398 19.92C19.17 19.92 19.5998 19.4902 19.5998 18.96C19.5998 18.4298 19.17 18 18.6398 18C18.1097 18 17.6798 18.4298 17.6798 18.96C17.6798 19.4902 18.1097 19.92 18.6398 19.92ZM23.4398 18.96C23.4398 19.4902 23.01 19.92 22.4798 19.92C21.9496 19.92 21.5198 19.4902 21.5198 18.96C21.5198 18.4298 21.9496 18 22.4798 18C23.01 18 23.4398 18.4298 23.4398 18.96Z" fill="#246BFD"/>
</g>
<defs>
<clipPath id="clip0_4532_42322">
<rect width="24" height="24" fill="white" transform="translate(10 10)"/>
</clipPath>
</defs>
</svg>
