<svg width="44" height="40" viewBox="0 0 44 40" fill="none" xmlns="http://www.w3.org/2000/svg">
<path d="M8.63993 40H35.3453C37.9443 40 40.058 37.8471 40.058 35.2V19.5802C42.2225 19.3802 43.9288 17.5474 43.9797 15.3041C43.9842 15.2687 44 15.2376 44 15.2008C44 15.0176 43.9404 14.8498 43.8391 14.7144L36.8327 0.443221C36.7002 0.171073 36.4284 0 36.1307 0H7.85451C7.55681 0 7.28505 0.171073 7.15146 0.442499L0.0824015 14.8426C0.0785444 14.8522 0.0771419 14.8626 0.0729341 14.8722C0.0652198 14.889 0.0603114 14.9065 0.0547011 14.9244C0.0255972 15.0044 0.00911718 15.0869 0.00596101 15.1708C0.00561039 15.1815 0 15.1897 0 15.2001C0 15.209 0.00140259 15.2176 0.00140259 15.2265C0.00140259 15.233 0.00140255 15.2394 0.00210389 15.2458C0.0252464 17.5162 1.74446 19.3787 3.92729 19.5801V35.1999C3.92729 37.847 6.04101 39.9999 8.64 39.9999L8.63993 40ZM38.4871 35.2C38.4871 36.9646 37.0778 38.4 35.3453 38.4H8.63993C6.90736 38.4 5.49813 36.9646 5.49813 35.2V19.433C5.51461 19.4284 5.53039 19.4187 5.54757 19.4137C5.64646 19.3841 5.73832 19.3401 5.8344 19.3034C5.97957 19.248 6.12509 19.1955 6.26184 19.1248C6.35756 19.0751 6.44558 19.0151 6.53745 18.9584C6.66297 18.8816 6.78816 18.8062 6.90493 18.7176C6.99294 18.6505 7.07219 18.5744 7.15389 18.5009C7.26083 18.4066 7.36673 18.3119 7.46351 18.2073C7.54065 18.1241 7.60868 18.0344 7.6788 17.9448C7.73631 17.8719 7.80293 17.8062 7.85623 17.7287C7.87727 17.7598 7.90427 17.788 7.92601 17.8183C7.99053 17.9055 8.05575 17.9912 8.12623 18.0726C8.16305 18.1166 8.20162 18.1591 8.24089 18.2016C8.31172 18.2784 8.38536 18.3519 8.46075 18.423C8.50072 18.4605 8.54069 18.4991 8.58172 18.5359C8.67044 18.6134 8.76301 18.6862 8.85908 18.7566C8.89064 18.7798 8.92115 18.8062 8.95341 18.8287C9.0821 18.9191 9.21569 19.0016 9.35384 19.0777C9.3854 19.0944 9.41836 19.1087 9.45062 19.1248C9.55967 19.1809 9.66978 19.2327 9.78373 19.2802C9.83387 19.3009 9.88647 19.3187 9.93766 19.3377C10.0383 19.3744 10.1396 19.4073 10.2424 19.4369C10.2981 19.453 10.3546 19.468 10.4114 19.4809C10.5197 19.5066 10.6288 19.5266 10.7406 19.5441C10.7918 19.5519 10.8427 19.5616 10.8946 19.568C11.0573 19.5873 11.2221 19.5991 11.39 19.5991C11.558 19.5991 11.7232 19.5869 11.8866 19.568C11.9384 19.5616 11.9893 19.5512 12.0405 19.5441C12.152 19.5273 12.261 19.5073 12.3687 19.4809C12.4262 19.4673 12.4826 19.4519 12.5391 19.4362C12.6418 19.4073 12.7425 19.3748 12.8414 19.3377C12.894 19.3184 12.9466 19.3002 12.9977 19.2791C13.111 19.2327 13.2194 19.1805 13.327 19.1262C13.3607 19.1094 13.3954 19.0941 13.4283 19.0766C13.5658 19.0012 13.6987 18.9191 13.8267 18.8294C13.8621 18.8048 13.8944 18.7773 13.9287 18.7509C14.0206 18.683 14.111 18.6116 14.1973 18.5366C14.2404 18.4991 14.2815 18.4598 14.3228 18.4205C14.3975 18.3501 14.4698 18.2766 14.5388 18.2012C14.5781 18.1587 14.6174 18.1166 14.6542 18.0716C14.725 17.9884 14.791 17.9026 14.8551 17.8141C14.8772 17.7837 14.9032 17.7566 14.9242 17.7262C14.9452 17.7573 14.9712 17.7837 14.9933 17.8141C15.0578 17.9019 15.1237 17.9884 15.1942 18.0716C15.2321 18.1155 15.2713 18.158 15.3096 18.2012C15.3793 18.2773 15.4516 18.3502 15.5256 18.4205C15.5673 18.4598 15.608 18.4991 15.6511 18.5366C15.7367 18.6119 15.8278 18.683 15.9197 18.7509C15.9544 18.7766 15.9863 18.8044 16.0217 18.8294C16.1497 18.9191 16.2826 19.0016 16.4201 19.0766C16.453 19.0941 16.4877 19.1094 16.5214 19.1262C16.629 19.1816 16.7374 19.2334 16.8507 19.2791C16.9019 19.2998 16.9544 19.3184 17.007 19.3377C17.1059 19.3737 17.2066 19.4066 17.3093 19.4362C17.3658 19.4523 17.4226 19.4673 17.4797 19.4809C17.5874 19.5066 17.6964 19.5266 17.8079 19.5441C17.8591 19.5519 17.91 19.5616 17.9619 19.568C18.1253 19.5873 18.2901 19.5991 18.4584 19.5991C18.6263 19.5991 18.7915 19.5869 18.9549 19.568C19.0068 19.5616 19.0576 19.5512 19.1088 19.5441C19.2203 19.5273 19.3294 19.5073 19.437 19.4809C19.4945 19.4673 19.551 19.4519 19.6074 19.4362C19.7102 19.4073 19.8108 19.3748 19.9097 19.3377C19.9623 19.3184 20.0149 19.3002 20.0661 19.2791C20.1793 19.2327 20.2877 19.1805 20.3953 19.1262C20.429 19.1094 20.4637 19.0941 20.4967 19.0766C20.6341 19.0012 20.767 18.9191 20.895 18.8294C20.9304 18.8048 20.9627 18.7773 20.997 18.7509C21.0889 18.683 21.1794 18.6116 21.2656 18.5366C21.3088 18.4991 21.3498 18.4598 21.3912 18.4205C21.4659 18.3501 21.5381 18.2766 21.6072 18.2012C21.6464 18.1587 21.6857 18.1166 21.7225 18.0716C21.7934 17.9884 21.8593 17.9026 21.9235 17.8141C21.9455 17.7837 21.9715 17.7566 21.9925 17.7262C22.0136 17.7573 22.0395 17.7837 22.0616 17.8141C22.1261 17.9019 22.192 17.9884 22.2625 18.0716C22.3004 18.1155 22.3397 18.158 22.3779 18.2012C22.4477 18.2773 22.5199 18.3502 22.5939 18.4205C22.6356 18.4598 22.6763 18.4991 22.7194 18.5366C22.805 18.6119 22.8962 18.683 22.988 18.7509C23.0227 18.7766 23.0546 18.8044 23.0901 18.8294C23.218 18.9191 23.3509 19.0016 23.4884 19.0766C23.5214 19.0941 23.5561 19.1094 23.5897 19.1262C23.6974 19.1816 23.8057 19.2334 23.919 19.2791C23.9702 19.2998 24.0228 19.3184 24.0754 19.3377C24.1743 19.3737 24.2749 19.4066 24.3776 19.4362C24.4341 19.4523 24.4909 19.4673 24.548 19.4809C24.6557 19.5066 24.7648 19.5266 24.8763 19.5441C24.9274 19.5519 24.9783 19.5616 25.0302 19.568C25.1936 19.5873 25.3584 19.5991 25.5267 19.5991C25.6947 19.5991 25.8598 19.5869 26.0232 19.568C26.0751 19.5616 26.1259 19.5512 26.1771 19.5441C26.2886 19.5273 26.3977 19.5073 26.5053 19.4809C26.5628 19.4673 26.6193 19.4519 26.6758 19.4362C26.7785 19.4073 26.8791 19.3748 26.978 19.3377C27.0306 19.3184 27.0832 19.3002 27.1344 19.2791C27.2477 19.2327 27.356 19.1805 27.4637 19.1262C27.4973 19.1094 27.532 19.0941 27.565 19.0766C27.7024 19.0012 27.8353 18.9191 27.9633 18.8294C27.9987 18.8048 28.031 18.7773 28.0654 18.7509C28.1572 18.683 28.2477 18.6116 28.334 18.5366C28.3771 18.4991 28.4181 18.4598 28.4595 18.4205C28.5342 18.3501 28.6064 18.2766 28.6755 18.2012C28.7148 18.1587 28.754 18.1166 28.7909 18.0716C28.8617 17.9884 28.9276 17.9026 28.9918 17.8141C29.0139 17.7837 29.0398 17.7566 29.0609 17.7262C29.0819 17.7573 29.1078 17.7837 29.1299 17.8141C29.1945 17.9019 29.2604 17.9884 29.3309 18.0716C29.3687 18.1155 29.408 18.158 29.4462 18.2012C29.516 18.2773 29.5882 18.3502 29.6622 18.4205C29.7039 18.4598 29.7446 18.4991 29.7878 18.5366C29.8733 18.6119 29.9645 18.683 30.0563 18.7509C30.0911 18.7766 30.123 18.8044 30.1584 18.8294C30.2864 18.9191 30.4193 19.0016 30.5567 19.0766C30.5897 19.0941 30.6244 19.1094 30.6581 19.1262C30.7657 19.1816 30.8741 19.2334 30.9873 19.2791C31.0385 19.2998 31.0911 19.3184 31.1437 19.3377C31.2426 19.3737 31.3432 19.4066 31.446 19.4362C31.5024 19.4523 31.5592 19.4673 31.6164 19.4809C31.724 19.5066 31.8331 19.5266 31.9446 19.5441C31.9958 19.5519 32.0466 19.5616 32.0985 19.568C32.2619 19.5873 32.4267 19.5991 32.595 19.5991C32.763 19.5991 32.9281 19.5869 33.0905 19.568C33.1424 19.5616 33.1932 19.5519 33.2444 19.5441C33.3559 19.5273 33.465 19.5073 33.5737 19.4809C33.6301 19.4673 33.6869 19.4519 33.7427 19.4369C33.8454 19.408 33.9468 19.3744 34.0474 19.3377C34.0986 19.3191 34.1512 19.3009 34.2013 19.2802C34.3153 19.233 34.425 19.1809 34.5344 19.1248C34.5667 19.108 34.5997 19.0944 34.6312 19.0777C34.7694 19.0016 34.903 18.9191 35.0317 18.8287C35.0646 18.8062 35.0944 18.7798 35.126 18.7566C35.221 18.6862 35.3136 18.6134 35.4033 18.5359C35.4451 18.4998 35.485 18.4616 35.525 18.423C35.6004 18.3519 35.6733 18.2784 35.7442 18.2016C35.7827 18.1591 35.822 18.1169 35.8588 18.0726C35.9297 17.9901 35.9949 17.9055 36.0591 17.8183C36.0811 17.7873 36.1078 17.7598 36.1288 17.7287C36.179 17.8016 36.2428 17.863 36.2968 17.9326C36.3715 18.0287 36.4444 18.1237 36.5268 18.2126C36.6148 18.3087 36.7113 18.3941 36.808 18.4816C36.8999 18.5648 36.9886 18.648 37.0868 18.723C37.1881 18.8005 37.2989 18.8655 37.4066 18.9334C37.5135 19.0005 37.617 19.0709 37.7295 19.1287C37.846 19.188 37.9697 19.2312 38.0918 19.2798C38.2071 19.3262 38.3197 19.3784 38.4407 19.4141C38.4564 19.4187 38.4705 19.4269 38.4862 19.4316L38.4876 35.2004L38.4871 35.2ZM16.3822 1.59973L14.2591 14.3998H8.94639L13.1643 1.59973H16.3822ZM30.8821 1.59973L35.0426 14.3998H29.7275L27.6618 1.59973H30.8821ZM35.1 16.3427C35.0481 16.4613 34.9854 16.5738 34.9187 16.6834C34.8998 16.7145 34.884 16.7491 34.8637 16.7788C34.7725 16.9156 34.668 17.0434 34.5541 17.1613C34.5267 17.1902 34.4945 17.2141 34.4654 17.242C34.3759 17.3277 34.2816 17.4084 34.1817 17.4813C34.1354 17.5141 34.0881 17.5427 34.0404 17.5734C33.9478 17.6327 33.8517 17.6863 33.7521 17.7334C33.6988 17.7581 33.6452 17.7831 33.5905 17.8045C33.4846 17.847 33.3745 17.8806 33.2612 17.9084C33.21 17.922 33.1599 17.9381 33.108 17.9477C32.9421 17.9798 32.7717 18.0006 32.5975 18.0006C32.4232 18.0006 32.2528 17.9798 32.0869 17.9477C32.035 17.9373 31.9849 17.9213 31.9337 17.9084C31.8204 17.8795 31.7107 17.8459 31.6044 17.8045C31.5494 17.7831 31.4961 17.7581 31.4428 17.7334C31.3432 17.6863 31.2471 17.6327 31.1545 17.5734C31.1065 17.5431 31.0595 17.5141 31.0132 17.4813C30.9137 17.4084 30.8193 17.3277 30.7296 17.242C30.7005 17.2148 30.6682 17.1909 30.6408 17.1613C30.5269 17.0438 30.4234 16.9156 30.3312 16.7788C30.3109 16.7484 30.2951 16.7148 30.2762 16.6834C30.2085 16.5738 30.1464 16.4609 30.0949 16.3427C30.0721 16.2898 30.0532 16.2355 30.0335 16.1813C30.0114 16.122 29.9957 16.0605 29.9778 15.9998H35.2199C35.2017 16.0605 35.1863 16.1223 35.1642 16.1813C35.141 16.2348 35.1228 16.2898 35.1 16.3427H35.1ZM28.031 16.3427C27.9791 16.4613 27.9163 16.5738 27.8497 16.6834C27.8308 16.7145 27.815 16.7491 27.7946 16.7788C27.7035 16.9156 27.599 17.0434 27.485 17.1613C27.4577 17.1902 27.4254 17.2141 27.3963 17.242C27.3069 17.3277 27.2126 17.4084 27.1126 17.4813C27.0663 17.5141 27.019 17.5427 26.9713 17.5734C26.8787 17.6327 26.7827 17.6863 26.6831 17.7334C26.6298 17.7581 26.5761 17.7831 26.5214 17.8045C26.4155 17.847 26.3054 17.8806 26.1922 17.9084C26.141 17.922 26.0908 17.9381 26.0389 17.9477C25.8731 17.9798 25.7027 18.0006 25.5284 18.0006C25.3541 18.0006 25.1837 17.9798 25.0179 17.9477C24.966 17.9373 24.9158 17.9213 24.8646 17.9084C24.7514 17.8795 24.6416 17.8459 24.5354 17.8045C24.4803 17.7831 24.427 17.7581 24.3737 17.7334C24.2741 17.6863 24.1781 17.6327 24.0855 17.5734C24.0374 17.5431 23.9905 17.5141 23.9442 17.4813C23.8446 17.4084 23.7503 17.3277 23.6605 17.242C23.6314 17.2148 23.5991 17.1909 23.5718 17.1613C23.4578 17.0438 23.3544 16.9156 23.2622 16.7788C23.2418 16.7484 23.226 16.7148 23.2071 16.6834C23.1394 16.5738 23.0774 16.4609 23.0258 16.3427C23.003 16.2898 22.9841 16.2355 22.9645 16.1813C22.9424 16.122 22.9266 16.0605 22.9087 15.9998H28.1509C28.1326 16.0605 28.1172 16.1223 28.0951 16.1813C28.072 16.2348 28.0537 16.2898 28.0309 16.3427H28.031ZM20.9619 16.3427C20.91 16.4613 20.8473 16.5738 20.7806 16.6834C20.7617 16.7145 20.7459 16.7491 20.7256 16.7788C20.6344 16.9156 20.5299 17.0434 20.416 17.1613C20.3886 17.1902 20.3563 17.2141 20.3272 17.242C20.2378 17.3277 20.1435 17.4084 20.0436 17.4813C19.9973 17.5141 19.9499 17.5427 19.9023 17.5734C19.8097 17.6327 19.7136 17.6863 19.614 17.7334C19.5607 17.7581 19.5071 17.7831 19.4524 17.8045C19.3465 17.847 19.2364 17.8806 19.1231 17.9084C19.0719 17.922 19.0218 17.9381 18.9699 17.9477C18.804 17.9798 18.6336 18.0006 18.4593 18.0006C18.2851 18.0006 18.1147 17.9798 17.9488 17.9477C17.8969 17.9373 17.8468 17.9213 17.7956 17.9084C17.6823 17.8795 17.5726 17.8459 17.4663 17.8045C17.4113 17.7831 17.358 17.7581 17.3047 17.7334C17.2051 17.6863 17.109 17.6327 17.0164 17.5734C16.9684 17.5431 16.9214 17.5141 16.8751 17.4813C16.7755 17.4084 16.6812 17.3277 16.5914 17.242C16.5623 17.2148 16.5301 17.1909 16.5027 17.1613C16.3888 17.0438 16.2853 16.9156 16.1931 16.7788C16.1728 16.7484 16.157 16.7148 16.1381 16.6834C16.0704 16.5738 16.0083 16.4609 15.9568 16.3427C15.934 16.2898 15.915 16.2355 15.8954 16.1813C15.8733 16.122 15.8575 16.0605 15.8397 15.9998H21.0818C21.0636 16.0605 21.0481 16.1223 21.026 16.1813C21.0029 16.2348 20.9847 16.2898 20.9619 16.3427H20.9619ZM13.8929 16.3427C13.841 16.4613 13.7782 16.5738 13.7116 16.6834C13.6926 16.7145 13.6769 16.7491 13.6565 16.7788C13.5654 16.9156 13.4609 17.0434 13.3469 17.1613C13.3195 17.1902 13.2873 17.2141 13.2582 17.242C13.1688 17.3277 13.0744 17.4084 12.9745 17.4813C12.9282 17.5141 12.8809 17.5427 12.8332 17.5734C12.7406 17.6327 12.6445 17.6863 12.545 17.7334C12.4917 17.7581 12.438 17.7831 12.3833 17.8045C12.2774 17.847 12.1673 17.8806 12.0541 17.9084C12.0029 17.922 11.9527 17.9381 11.9008 17.9477C11.735 17.9798 11.5646 18.0006 11.3903 18.0006C11.216 18.0006 11.0456 17.9798 10.8797 17.9477C10.8278 17.9373 10.7777 17.9213 10.7265 17.9084C10.6133 17.8795 10.5035 17.8459 10.3972 17.8045C10.3422 17.7831 10.2889 17.7581 10.2356 17.7334C10.136 17.6863 10.0399 17.6327 9.94737 17.5734C9.89933 17.5431 9.85234 17.5141 9.80606 17.4813C9.70647 17.4084 9.61215 17.3277 9.52238 17.242C9.49328 17.2148 9.46102 17.1909 9.43367 17.1613C9.31971 17.0438 9.21626 16.9156 9.12405 16.7788C9.10371 16.7484 9.08793 16.7148 9.069 16.6834C9.00132 16.5738 8.93926 16.4609 8.88771 16.3427C8.86492 16.2898 8.84599 16.2355 8.82635 16.1813C8.80426 16.122 8.78848 16.0605 8.7706 15.9998H14.0127C13.9945 16.0605 13.9791 16.1223 13.957 16.1813C13.9338 16.2348 13.9156 16.2898 13.8928 16.3427H13.8929ZM28.136 14.3995H22.7791L22.8082 1.59936H26.0703L28.136 14.3995ZM21.2082 14.3995H15.8532L17.9763 1.59936H21.2373L21.2082 14.3995ZM39.3589 17.9809C39.1993 17.9634 39.0461 17.9281 38.8964 17.8834C38.8476 17.8691 38.8027 17.8498 38.7558 17.8331C38.6551 17.7977 38.557 17.757 38.4626 17.7106C38.4132 17.6866 38.3652 17.6602 38.3175 17.6331C38.228 17.582 38.1414 17.5241 38.059 17.4634C38.0184 17.4338 37.9773 17.4059 37.9381 17.3738C37.8353 17.2891 37.7385 17.197 37.6491 17.0984C37.6365 17.0848 37.6232 17.0745 37.6105 17.0609C37.5117 16.9473 37.423 16.8241 37.3427 16.6945C37.3192 16.6559 37.2995 16.6152 37.2774 16.5759C37.2248 16.4805 37.1754 16.3823 37.133 16.2805C37.1133 16.2309 37.0951 16.1813 37.0779 16.1309C37.0628 16.0877 37.0537 16.043 37.0411 15.9988H42.299C41.9337 17.2484 40.7636 18.1588 39.3588 17.9809L39.3589 17.9809ZM41.9291 14.3995H36.6988L32.538 1.59936H35.6451L41.9291 14.3995ZM8.33967 1.59936H11.5067L7.28878 14.3995H2.05606L8.33967 1.59936ZM1.68542 15.9995H6.94336C6.93074 16.0427 6.92232 16.0873 6.90654 16.1305C6.88936 16.1816 6.87113 16.232 6.85079 16.2816C6.80906 16.3816 6.76208 16.4777 6.70948 16.5713C6.68669 16.6127 6.66565 16.6559 6.6404 16.697C6.56116 16.8241 6.47454 16.9448 6.37636 17.057C6.35533 17.0816 6.32938 17.1027 6.30659 17.1259C6.22664 17.2116 6.14319 17.293 6.05377 17.3673C6.00573 17.4066 5.95489 17.4416 5.90439 17.4777C5.83216 17.5298 5.75817 17.5791 5.68138 17.6241C5.62387 17.6577 5.56496 17.6888 5.50465 17.7177C5.42295 17.7577 5.33985 17.7913 5.25393 17.8223C5.19502 17.8438 5.13751 17.867 5.0765 17.8848C4.94536 17.9234 4.81036 17.952 4.67115 17.9705C4.65222 17.973 4.63433 17.9795 4.6154 17.9809C4.52072 17.9938 4.42044 17.9995 4.3198 17.9995C3.07636 17.9995 2.02377 17.1548 1.68535 15.9995L1.68542 15.9995Z" fill="#246BFD"/>
<path d="M25.5273 21.5996H11.3892C9.87334 21.5996 8.64014 22.8557 8.64014 24.3996V32.3997C8.64014 33.9437 9.87334 35.1997 11.3892 35.1997H25.5273C27.0432 35.1997 28.2764 33.9437 28.2764 32.3997V24.3996C28.2764 22.8557 27.0432 21.5996 25.5273 21.5996ZM26.7055 32.3992C26.7055 33.0607 26.1767 33.5992 25.5273 33.5992H11.3892C10.7398 33.5992 10.211 33.0607 10.211 32.3992V24.3992C10.211 23.7377 10.7398 23.1992 11.3892 23.1992H25.5273C26.1767 23.1992 26.7055 23.7377 26.7055 24.3992V32.3992Z" fill="#246BFD"/>
</svg>
