<svg width="32" height="10" viewBox="0 0 32 10" fill="none" xmlns="http://www.w3.org/2000/svg">
<g clip-path="url(#clip0_2247_81758)">
<path d="M11.7334 9.59598L13.3588 0.453125H15.8985L14.3239 9.59598H11.7334Z" fill="#9CA2AB"/>
<path d="M11.7334 9.59598L13.8159 0.453125H15.8985L14.3239 9.59598H11.7334Z" fill="#9CA2AB"/>
<path d="M23.5175 0.554786C23.0096 0.351612 22.1969 0.148438 21.181 0.148438C18.6413 0.148438 16.8128 1.41828 16.8128 3.24685C16.8128 4.61828 18.0826 5.32939 19.0985 5.78653C20.1143 6.24368 20.4191 6.54844 20.4191 6.95479C20.4191 7.56431 19.6064 7.86907 18.8953 7.86907C17.8794 7.86907 17.3207 7.71669 16.4572 7.36114L16.1016 7.20875L15.7461 9.2913C16.3556 9.54526 17.4731 9.79923 18.6413 9.79923C21.3334 9.79923 23.1112 8.52939 23.1112 6.59923C23.1112 5.53257 22.4509 4.71987 20.927 4.05955C20.0128 3.60241 19.454 3.34844 19.454 2.89129C19.454 2.48495 19.9112 2.0786 20.927 2.0786C21.7905 2.0786 22.4001 2.23098 22.8572 2.43415L23.1112 2.53574L23.5175 0.554786Z" fill="#9CA2AB"/>
<path d="M23.5175 0.554786C23.0096 0.351612 22.1969 0.148438 21.181 0.148438C18.6413 0.148438 17.2699 1.41828 17.2699 3.24685C17.2699 4.61828 18.0826 5.32939 19.0985 5.78653C20.1143 6.24368 20.4191 6.54844 20.4191 6.95479C20.4191 7.56431 19.6064 7.86907 18.8953 7.86907C17.8794 7.86907 17.3207 7.71669 16.4572 7.36114L16.1016 7.20875L15.7461 9.2913C16.3556 9.54526 17.4731 9.79923 18.6413 9.79923C21.3334 9.79923 23.1112 8.52939 23.1112 6.59923C23.1112 5.53257 22.4509 4.71987 20.927 4.05955C20.0128 3.60241 19.454 3.34844 19.454 2.89129C19.454 2.48495 19.9112 2.0786 20.927 2.0786C21.7905 2.0786 22.4001 2.23098 22.8572 2.43415L23.1112 2.53574L23.5175 0.554786Z" fill="#9CA2AB"/>
<path d="M27.8858 0.453125C27.2763 0.453125 26.8191 0.503919 26.5651 1.11344L22.7556 9.59598H25.4985L26.0064 8.07217H29.2572L29.562 9.59598H32.0001L29.8667 0.453125H27.8858ZM26.7175 6.54836C26.8699 6.09122 27.7334 3.8563 27.7334 3.8563C27.7334 3.8563 27.9366 3.29757 28.0889 2.94201L28.2413 3.80551C28.2413 3.80551 28.7493 6.09122 28.8509 6.59916H26.7175V6.54836Z" fill="#9CA2AB"/>
<path d="M28.4953 0.453125C27.8858 0.453125 27.4286 0.503919 27.1747 1.11344L22.7556 9.59598H25.4985L26.0064 8.07217H29.2572L29.562 9.59598H32.0001L29.8667 0.453125H28.4953ZM26.7175 6.54836C26.9207 6.04043 27.7334 3.8563 27.7334 3.8563C27.7334 3.8563 27.9366 3.29757 28.0889 2.94201L28.2413 3.80551C28.2413 3.80551 28.7493 6.09122 28.8509 6.59916H26.7175V6.54836Z" fill="#9CA2AB"/>
<path d="M7.06026 6.85311L6.80629 5.53248C6.34915 4.00867 4.87613 2.33248 3.25073 1.51978L5.53645 9.64676H8.27931L12.3936 0.503906H9.65074L7.06026 6.85311Z" fill="#9CA2AB"/>
<path d="M7.06026 6.85311L6.80629 5.53248C6.34915 4.00867 4.87613 2.33248 3.25073 1.51978L5.53645 9.64676H8.27931L12.3936 0.503906H10.1587L7.06026 6.85311Z" fill="#9CA2AB"/>
<path d="M0 0.453125L0.457143 0.554713C3.70794 1.31662 5.94286 3.24678 6.80635 5.53249L5.89206 1.21503C5.73968 0.605506 5.28254 0.453125 4.72381 0.453125H0Z" fill="#9CA2AB"/>
<path d="M0 0.453125C3.25079 1.21503 5.94286 3.19598 6.80635 5.4817L5.94286 1.87535C5.79048 1.26582 5.28254 0.910269 4.72381 0.910269L0 0.453125Z" fill="#9CA2AB"/>
<path d="M0 0.453125C3.25079 1.21503 5.94286 3.19598 6.80635 5.4817L6.19683 3.50074C6.04444 2.89122 5.84127 2.2817 5.13016 2.02773L0 0.453125Z" fill="#9CA2AB"/>
<path d="M9.59993 6.54811L7.87294 4.82113L7.06024 6.75129L6.85707 5.48145C6.39993 3.95764 4.92691 2.28145 3.30151 1.46875L5.58723 9.59573H8.33009L9.59993 6.54811Z" fill="#9CA2AB"/>
<path d="M14.3236 9.59429L12.1395 7.35938L11.7332 9.59429H14.3236Z" fill="#9CA2AB"/>
<path d="M20.1649 6.44531C20.3681 6.64849 20.4697 6.80087 20.4189 7.00404C20.4189 7.61357 19.6062 7.91833 18.8951 7.91833C17.8792 7.91833 17.3205 7.76595 16.457 7.41039L16.1014 7.25801L15.7458 9.34055C16.3554 9.59452 17.4728 9.84849 18.6411 9.84849C20.2665 9.84849 21.5871 9.39134 22.349 8.57865L20.1649 6.44531Z" fill="#9CA2AB"/>
<path d="M23.1111 9.59537H25.4984L26.0063 8.07156H29.2571L29.5619 9.59537H32L31.1365 5.88744L28.0889 2.94141L28.2412 3.7541C28.2412 3.7541 28.7492 6.03982 28.8508 6.54775H26.7174C26.9206 6.03982 27.7333 3.85569 27.7333 3.85569C27.7333 3.85569 27.9365 3.29696 28.0889 2.94141" fill="#9CA2AB"/>
</g>
<defs>
<clipPath id="clip0_2247_81758">
<rect width="32" height="10" fill="white"/>
</clipPath>
</defs>
</svg>
