<svg width="24" height="25" viewBox="0 0 24 25" fill="none" xmlns="http://www.w3.org/2000/svg">
<path d="M12 15.5C13.0609 15.5 14.0783 15.0786 14.8284 14.3284C15.5786 13.5783 16 12.5609 16 11.5V5.5C16 4.43913 15.5786 3.42172 14.8284 2.67157C14.0783 1.92143 13.0609 1.5 12 1.5C10.9391 1.5 9.92172 1.92143 9.17157 2.67157C8.42143 3.42172 8 4.43913 8 5.5V11.5C8 12.5609 8.42143 13.5783 9.17157 14.3284C9.92172 15.0786 10.9391 15.5 12 15.5ZM10 5.5C10 4.96957 10.2107 4.46086 10.5858 4.08579C10.9609 3.71071 11.4696 3.5 12 3.5C12.5304 3.5 13.0391 3.71071 13.4142 4.08579C13.7893 4.46086 14 4.96957 14 5.5V11.5C14 12.0304 13.7893 12.5391 13.4142 12.9142C13.0391 13.2893 12.5304 13.5 12 13.5C11.4696 13.5 10.9609 13.2893 10.5858 12.9142C10.2107 12.5391 10 12.0304 10 11.5V5.5ZM20 11.5C20 11.2348 19.8946 10.9804 19.7071 10.7929C19.5196 10.6054 19.2652 10.5 19 10.5C18.7348 10.5 18.4804 10.6054 18.2929 10.7929C18.1054 10.9804 18 11.2348 18 11.5C18 13.0913 17.3679 14.6174 16.2426 15.7426C15.1174 16.8679 13.5913 17.5 12 17.5C10.4087 17.5 8.88258 16.8679 7.75736 15.7426C6.63214 14.6174 6 13.0913 6 11.5C6 11.2348 5.89464 10.9804 5.70711 10.7929C5.51957 10.6054 5.26522 10.5 5 10.5C4.73478 10.5 4.48043 10.6054 4.29289 10.7929C4.10536 10.9804 4 11.2348 4 11.5C4.00177 13.4473 4.71372 15.3271 6.0024 16.787C7.29107 18.2469 9.06798 19.1866 11 19.43V21.5H9C8.73478 21.5 8.48043 21.6054 8.29289 21.7929C8.10536 21.9804 8 22.2348 8 22.5C8 22.7652 8.10536 23.0196 8.29289 23.2071C8.48043 23.3946 8.73478 23.5 9 23.5H15C15.2652 23.5 15.5196 23.3946 15.7071 23.2071C15.8946 23.0196 16 22.7652 16 22.5C16 22.2348 15.8946 21.9804 15.7071 21.7929C15.5196 21.6054 15.2652 21.5 15 21.5H13V19.43C14.932 19.1866 16.7089 18.2469 17.9976 16.787C19.2863 15.3271 19.9982 13.4473 20 11.5Z" fill="#246BFD"/>
</svg>